<svg width="56" height="57" viewBox="0 0 56 57" fill="none" xmlns="http://www.w3.org/2000/svg">
<g clip-path="url(#clip0)">
<path d="M51.2835 23.9962C51.7962 23.1776 52.461 21.5289 52.2141 18.6719C52.0171 16.3917 51.0759 15.0266 50.3214 14.2828C49.8206 13.7902 49.3332 13.4945 49.0042 13.3309C48.7329 12.6028 48.0237 10.896 46.803 9.25537C44.7924 6.55304 42.3024 5.25421 39.568 5.46784C39.3429 4.95557 38.9583 4.20148 38.3828 3.44653C37.0178 1.65424 35.2349 0.707031 33.2273 0.707031C31.4858 0.707031 30.0186 1.46411 28.9843 2.8971C28.6147 3.40894 28.3037 4.0058 28.0499 4.6817C26.7318 1.18427 24.1688 0.707031 22.8738 0.707031C20.8657 0.707031 19.0828 1.65424 17.7178 3.44653C17.1431 4.20105 16.7586 4.95514 16.533 5.46698C14.4442 5.29993 12.522 6.00531 10.8088 7.56818C10.4734 7.87452 10.4499 8.39447 10.7558 8.73029C11.0617 9.06568 11.5821 9.0896 11.9175 8.78327C13.4197 7.41266 15.106 6.87006 16.9304 7.17169C17.3337 7.23835 17.7229 6.99994 17.8477 6.61158C17.8609 6.56885 19.2563 2.3515 22.8738 2.3515C25.6099 2.3515 27.1565 4.99787 27.2283 9.80311V47.3957C27.2279 47.4384 27.1728 51.6843 24.9173 53.8415C24.0064 54.7127 22.8802 55.1104 21.4741 55.0579C18.3992 54.9421 17.7327 53.7488 16.9611 52.3675C16.5091 51.5587 15.9968 50.6423 15.0044 49.9865C14.2353 49.4789 13.2309 49.1824 12.1674 48.8684C9.61293 48.1139 6.71791 47.2589 5.68226 43.2505C5.04823 40.7956 5.52034 38.7909 5.90187 37.7322C6.56282 38.1735 7.4673 38.758 8.01759 39.0332C8.41878 39.2335 8.92036 39.0661 9.12074 38.6653C9.32411 38.259 9.15919 37.7651 8.75331 37.5622C8.10518 37.2383 6.69484 36.2898 6.10353 35.8814C5.58998 35.2563 4.66243 33.4226 4.50264 30.4878C4.35908 27.8547 5.3379 26.0658 5.95997 25.2075C6.52138 25.6817 7.39039 26.3435 8.37434 26.8353C8.77553 27.0357 9.27711 26.8682 9.47749 26.4674C9.68086 26.0611 9.51594 25.5672 9.10963 25.3643C7.84114 24.7298 6.74952 23.7228 6.50941 23.4938C6.48634 23.4682 6.46156 23.4434 6.43379 23.4203C6.01338 22.999 5.29261 21.5079 5.52589 18.8133C5.68654 16.9522 6.4308 15.8986 7.0627 15.3287C7.2588 16.1204 7.69929 17.159 8.66145 18.3015C8.94984 18.6441 9.47707 18.6894 9.82014 18.401C10.1675 18.1083 10.2119 17.5897 9.91927 17.2423C8.57259 15.6431 8.54823 14.3969 8.56276 14.1149C8.67512 13.7923 9.14125 12.5277 9.98891 11.163C10.2282 10.7772 10.1098 10.2701 9.72401 10.0308C9.33778 9.79114 8.83107 9.90949 8.59138 10.2957C7.79713 11.5753 7.3105 12.7588 7.09645 13.3317C6.21504 13.7709 4.19117 15.1522 3.88697 18.6719C3.64003 21.5289 4.30482 23.1776 4.81709 23.9958C4.04719 24.9806 2.67787 27.2266 2.8603 30.5771C3.03804 33.8421 4.03865 35.7622 4.58809 36.5846C4.11299 37.6463 3.21705 40.2824 4.08992 43.6615C5.35841 48.5723 9.02504 49.6554 11.7017 50.4458C12.6442 50.7239 13.5342 50.9867 14.0977 51.3592C14.7565 51.7942 15.1129 52.4316 15.5252 53.1699C16.3668 54.6759 17.414 56.5507 21.4122 56.7015C22.7426 56.7515 24.0765 56.4554 25.1959 55.7167C25.5022 55.5146 25.7889 55.2835 26.0542 55.0301C27.0031 54.1222 27.6329 52.958 28.0503 51.8142C28.4682 52.958 29.0979 54.1222 30.0468 55.0301C30.9872 55.9295 32.1848 56.4883 33.4742 56.6511C33.8767 56.7019 34.2834 56.7165 34.6889 56.7011C38.687 56.5507 39.7342 54.6759 40.5755 53.1699C40.9882 52.4316 41.3445 51.7942 42.0033 51.3592C42.5673 50.9867 43.4568 50.7239 44.3993 50.4458C45.6144 50.0869 46.9919 49.6801 48.2727 48.9C48.6607 48.6637 48.7833 48.1579 48.547 47.7699C48.3112 47.382 47.8049 47.2589 47.417 47.4952C46.3198 48.1634 45.1068 48.5219 43.9336 48.8684C43.3897 49.029 42.8617 49.1854 42.3725 49.3674V46.4254C43.5807 46.0695 44.4655 44.951 44.4655 43.629C44.4655 42.0213 43.1577 40.7135 41.55 40.7135C39.9423 40.7135 38.6345 42.0213 38.6345 43.629C38.6345 44.951 39.5193 46.0695 40.7276 46.4254V50.2599C39.9701 50.8828 39.5321 51.666 39.1399 52.3675C38.4456 53.6104 37.8355 54.7003 35.4806 54.9908V50.6726C35.4806 50.2185 35.1123 49.8506 34.6581 49.8506C34.2039 49.8506 33.8357 50.2185 33.8357 50.6726V55.0365C32.791 54.937 31.9203 54.5443 31.188 53.8454C28.9458 51.7057 28.8736 47.4679 28.8732 47.3952V45.5081H32.5637C33.0179 45.5081 33.3862 45.1398 33.3862 44.6856C33.3862 44.2315 33.0179 43.8632 32.5637 43.8632H28.8732V38.3731H32.7641L35.9492 40.8071C36.3056 41.0792 36.8298 41.0087 37.102 40.6529C37.3775 40.2918 37.3087 39.7757 36.9477 39.5001L33.5417 36.8974C33.3982 36.788 33.2226 36.7286 33.0423 36.7286H28.8732V31.3547H31.3209C31.6768 32.5629 32.7953 33.4478 34.1172 33.4478C35.7249 33.4478 37.0327 32.14 37.0327 30.5322C37.0327 28.9245 35.7249 27.6167 34.1172 27.6167C32.7953 27.6167 31.6768 28.5015 31.3209 29.7098H28.8732V24.3363H33.0423C33.2226 24.3363 33.3982 24.2769 33.5417 24.1671L36.9477 21.5643C37.3087 21.2888 37.3775 20.7727 37.102 20.4116C36.8264 20.051 36.3103 19.9818 35.9492 20.2578L32.7641 22.6914H28.8732V16.2746H32.5637C33.0179 16.2746 33.3862 15.9063 33.3862 15.4522C33.3862 14.9984 33.0179 14.6301 32.5637 14.6301H28.8732V9.80481C28.9441 4.99872 30.4903 2.3515 33.2273 2.3515C36.5406 2.3515 37.9663 5.81775 38.2145 6.49921V10.438C37.0058 10.7939 36.1214 11.9128 36.1214 13.2347C36.1214 14.8425 37.4292 16.1503 39.0365 16.1503C40.6443 16.1503 41.9521 14.8425 41.9521 13.2347C41.9521 11.9128 41.0672 10.7943 39.859 10.438V7.09778C41.9533 6.99268 43.8345 8.03559 45.4606 10.206C46.2412 11.2485 46.797 12.3422 47.1405 13.1207H45.3192C44.865 13.1207 44.4967 13.4885 44.4967 13.9427C44.4967 14.3969 44.865 14.7651 45.3192 14.7651H48.1954C48.6248 14.9536 50.3218 15.879 50.5756 18.8133C50.7785 21.164 50.2564 22.5983 49.8407 23.2062H46.3266C46.0049 21.9459 44.8603 21.0106 43.5012 21.0106C41.8935 21.0106 40.5857 22.3184 40.5857 23.9262C40.5857 25.5339 41.8935 26.8417 43.5012 26.8417C44.7856 26.8417 45.878 26.0064 46.2655 24.8507H49.8608C50.347 25.4262 51.5309 27.0916 51.6074 29.7102H45.5943C45.1397 29.7102 44.7719 30.0785 44.7719 30.5322C44.7719 30.9864 45.1397 31.3547 45.5943 31.3547H51.5262C51.2805 33.5371 50.6153 34.9974 50.1513 35.6754H44.51C44.0558 35.6754 43.688 36.0437 43.688 36.4979C43.688 36.952 44.0558 37.3203 44.51 37.3203H50.0368C50.4145 38.1996 51.1472 40.4281 50.4184 43.2505C50.2022 44.0879 49.892 44.8326 49.4964 45.4636C49.2554 45.8486 49.372 46.3562 49.757 46.5971C50.1372 46.8351 50.6525 46.7163 50.8905 46.3369C51.3754 45.5628 51.7522 44.6626 52.0111 43.6619C52.8836 40.2824 51.9881 37.6467 51.513 36.5846C52.0624 35.7626 53.063 33.8421 53.2408 30.5771C53.4232 27.2271 52.0539 24.9806 51.2835 23.9962ZM40.2794 43.629C40.2794 42.9284 40.8493 42.3584 41.55 42.3584C42.2507 42.3584 42.8206 42.9284 42.8206 43.629C42.8206 44.3297 42.2507 44.9001 41.55 44.9001C40.8493 44.9001 40.2794 44.3297 40.2794 43.629ZM34.1168 29.2616C34.8175 29.2616 35.3878 29.8316 35.3878 30.5322C35.3878 31.2334 34.8175 31.8033 34.1168 31.8033C33.4161 31.8033 32.8462 31.2334 32.8462 30.5322C32.8462 29.8316 33.4161 29.2616 34.1168 29.2616ZM40.3076 13.2347C40.3076 13.9354 39.7372 14.5054 39.0365 14.5054C38.3358 14.5054 37.7659 13.9354 37.7659 13.2347C37.7659 12.5341 38.3358 11.9637 39.0365 11.9637C39.7372 11.9637 40.3076 12.5341 40.3076 13.2347ZM43.5012 25.1968C42.8006 25.1968 42.2306 24.6268 42.2306 23.9262C42.2306 23.2255 42.8006 22.6555 43.5012 22.6555C44.2019 22.6555 44.7719 23.2255 44.7719 23.9262C44.7719 24.6268 44.2019 25.1968 43.5012 25.1968Z" fill="#212121"/>
<path d="M40.115 29.7109C39.6608 29.7109 39.293 30.0792 39.293 30.533C39.293 30.9871 39.6608 31.3554 40.115 31.3554H42.3033C42.7579 31.3554 43.1258 30.9871 43.1258 30.533C43.1258 30.0792 42.7579 29.7109 42.3033 29.7109H40.115Z" fill="#393A40"/>
<path d="M12.2271 44.2021C11.778 44.1295 11.3568 44.4341 11.2841 44.8827C11.2115 45.3309 11.5161 45.753 11.9647 45.8256C11.9784 45.8278 13.3687 46.0581 14.7935 46.7297C16.5636 47.5641 17.5207 48.6468 17.639 49.9481C17.6779 50.3754 18.0363 50.6963 18.4572 50.6963C18.482 50.6963 18.5072 50.695 18.5324 50.6928C18.9848 50.6514 19.3181 50.2515 19.2771 49.7995C18.8703 45.3275 12.4984 44.2461 12.2271 44.2021Z" fill="#212121"/>
<path d="M22.5639 41.1646C22.1422 40.9959 21.6637 41.2005 21.4945 41.6218C21.4445 41.7457 20.2995 44.6967 22.3622 47.8891C22.6053 48.2655 23.1227 48.377 23.4991 48.1334C23.8807 47.8869 23.99 47.3781 23.7435 46.9965C22.1614 44.5476 22.9826 42.334 23.0223 42.2302C23.1885 41.8098 22.9843 41.3334 22.5639 41.1646Z" fill="#00C8D2"/>
<path d="M22.7521 13.935C22.4001 14.2221 22.3471 14.7399 22.6342 15.092C22.6641 15.1287 25.5963 18.8359 23.2973 25.5262C23.1495 25.956 23.3781 26.4238 23.8074 26.5712C24.2317 26.7174 24.7068 26.4845 24.8525 26.0607C27.4454 18.5151 24.0544 14.2315 23.9091 14.0529C23.622 13.7009 23.1042 13.6479 22.7521 13.935Z" fill="#00C8D2"/>
<path d="M26.3547 30.5744C26.1765 30.1565 25.6942 29.9621 25.2759 30.1399C23.848 30.747 22.5633 30.6859 21.4572 29.9574C20.5933 29.3888 20.1412 28.6082 20.1301 28.5894C19.9093 28.1942 19.4107 28.0515 19.0142 28.2711C18.6168 28.4907 18.4728 28.9914 18.6929 29.3888C18.7177 29.4332 19.3094 30.4881 20.4856 31.2866C21.1816 31.7587 22.1672 32.2 23.4208 32.2C24.1616 32.2 24.9965 32.0458 25.9198 31.6532C26.3376 31.475 26.5324 30.9922 26.3547 30.5744Z" fill="#212121"/>
<path d="M8.92079 31.0474C8.73878 31.4631 8.92805 31.948 9.34334 32.1305C9.36085 32.1382 11.0938 32.9089 12.6126 34.3611C13.092 34.8196 13.4957 35.2912 13.8234 35.7745C13.8371 35.7971 13.8516 35.8193 13.8674 35.8411C14.8228 37.2826 15.1056 38.8297 14.7066 40.4601C14.5985 40.901 14.8689 41.3462 15.3098 41.4543C15.7452 41.5607 16.1976 41.2864 16.304 40.851C16.6146 39.5812 16.5976 38.3375 16.2639 37.1459C17.1431 37.4501 17.9489 37.5621 18.6594 37.5621C20.5714 37.5621 21.7899 36.7511 21.8723 36.6943C22.247 36.4376 22.3449 35.9236 22.0881 35.5493C21.8313 35.1746 21.3225 35.0776 20.9478 35.3344C20.8469 35.4011 18.4732 36.9178 15.1146 34.7529C14.7258 34.1958 14.2592 33.6562 13.7136 33.1388C11.9846 31.499 10.0825 30.6586 10.0022 30.6236C9.58687 30.442 9.1028 30.6317 8.92079 31.0474Z" fill="#212121"/>
<path d="M11.0119 22.7087C10.7487 23.0779 10.835 23.591 11.2028 23.855C11.2353 23.8781 14.4307 26.216 14.4743 30.1932C14.4794 30.644 14.8464 31.0063 15.2963 31.0063H15.3057C15.7598 31.0016 16.1239 30.629 16.1187 30.1753C16.0658 25.3414 12.3158 22.6275 12.156 22.5147C11.7865 22.2524 11.275 22.3396 11.0119 22.7087Z" fill="#00C8D2"/>
<path d="M15.6561 10.453C15.2762 10.2039 14.7665 10.3103 14.5175 10.6901C14.3957 10.876 11.5515 15.2997 13.1836 20.0306C13.3297 20.454 13.8052 20.6856 14.2295 20.5395C14.6584 20.3916 14.8866 19.9234 14.7383 19.494C14.4581 18.6814 14.3423 17.8713 14.3329 17.0958C16.311 20.7804 19.8709 22.0374 20.058 22.101C20.4814 22.2455 20.9543 22.0122 21.0996 21.5896C21.247 21.1611 21.0189 20.6937 20.5903 20.545C20.3968 20.4779 15.8987 18.8617 14.8845 13.7954C15.3279 12.4786 15.8778 11.6143 15.8936 11.5904C16.1418 11.2105 16.0355 10.7017 15.6561 10.453Z" fill="#212121"/>
<path d="M19.2921 10.3376C18.8477 10.4325 18.5641 10.8691 18.6589 11.3135C18.7414 11.6997 19.0823 11.9646 19.4621 11.9646C19.5189 11.9646 19.5766 11.9586 19.6343 11.9462C22.6203 11.3105 23.9768 9.57413 24.5887 8.22959C25.2483 6.77909 25.1928 5.46958 25.1898 5.41446C25.1676 4.96244 24.786 4.61551 24.3323 4.6356C23.8803 4.65525 23.5291 5.03892 23.547 5.49137C23.553 5.65073 23.65 9.41007 19.2921 10.3376Z" fill="#212121"/>
</g>
<defs>
<clipPath id="clip0">
<rect y="0.707031" width="56" height="56" fill="white"/>
</clipPath>
</defs>
</svg>
