<svg width="69" height="69" viewBox="0 0 69 69" fill="none" xmlns="http://www.w3.org/2000/svg">
<g clip-path="url(#clip0)">
<path d="M43.2785 8.59817C35.6936 4.76305 26.5568 6.22942 20.5433 12.2469C13.5541 19.2404 12.8546 30.3916 18.9162 38.1855C19.1305 38.461 19.4508 38.6052 19.7745 38.6052C20.0078 38.6052 20.2428 38.5304 20.4412 38.3758C20.9149 38.0069 21 37.3238 20.6315 36.8499C15.2418 29.92 15.8647 20.0041 22.0803 13.7846C27.4284 8.43281 35.5533 7.12857 42.2985 10.539C42.834 10.8102 43.4877 10.5948 43.7585 10.0589C44.029 9.52292 43.8143 8.86891 43.2785 8.59817Z" fill="#00C8D2"/>
<path d="M51.9549 17.2829C51.6842 16.7469 51.0309 16.5319 50.4949 16.8025C49.9592 17.0732 49.7442 17.7271 50.0147 18.2633C53.4206 25.0118 52.1165 33.1407 46.7696 38.4909C40.5539 44.7102 30.6444 45.3334 23.7189 39.9405C23.2451 39.5718 22.5626 39.657 22.194 40.1308C21.8253 40.6048 21.9106 41.2879 22.3843 41.6568C25.9322 44.4197 30.1761 45.7787 34.4065 45.7787C39.4633 45.7787 44.501 43.8366 48.3066 40.0285C54.3188 34.0127 55.7849 24.8719 51.9549 17.2829Z" fill="#00C8D2"/>
<path d="M49.1505 13.1412C48.8812 12.8364 48.5984 12.5353 48.3098 12.2467C48.0212 11.9579 47.7204 11.6748 47.4158 11.4055C46.9661 11.0076 46.2792 11.0502 45.8821 11.5002C45.4844 11.95 45.5267 12.6372 45.9763 13.0349C46.2477 13.2748 46.5157 13.527 46.773 13.7843C47.0299 14.0417 47.2821 14.3098 47.5219 14.5813C47.7366 14.8244 48.0359 14.9485 48.3366 14.9485C48.5924 14.9485 48.8491 14.8586 49.0558 14.6759C49.5056 14.2784 49.5479 13.5912 49.1505 13.1412Z" fill="#00C8D2"/>
<path d="M60.0758 28.0865C60.8004 26.8969 60.8004 25.4194 60.0755 24.2301L58.6459 21.8842C58.4576 21.575 58.3848 21.2079 58.4411 20.8505L58.8672 18.1413C59.0844 16.7607 58.5176 15.3924 57.3881 14.5702L55.1725 12.9576C54.8796 12.7443 54.6714 12.4331 54.5861 12.0808L53.9408 9.41258C53.6133 8.05725 52.5683 7.01174 51.214 6.68372L48.5473 6.03792C48.1953 5.95261 47.884 5.74427 47.6711 5.45115L46.0592 3.23358C45.2377 2.10344 43.8701 1.53594 42.4907 1.75345L39.7823 2.17985C39.4251 2.23605 39.0581 2.16327 38.7494 1.97487L36.4047 0.543931C35.216 -0.181378 33.7393 -0.181243 32.5506 0.543931L30.2061 1.97447C29.8974 2.163 29.5307 2.23551 29.1731 2.17945L26.4655 1.75305C25.0861 1.53581 23.7184 2.10303 22.8969 3.23318L21.2853 5.45021C21.0721 5.74332 20.761 5.95167 20.4088 6.03698L17.7423 6.68264C16.3881 7.01039 15.3429 8.05603 15.0151 9.41124L14.3697 12.0796C14.2845 12.4319 14.0764 12.7433 13.7833 12.9564L11.5672 14.5693C10.4377 15.3912 9.87101 16.7593 10.088 18.14L10.5141 20.8503C10.5703 21.2078 10.4975 21.5749 10.3093 21.8838L8.87936 24.2302C8.15478 25.4196 8.15478 26.8972 8.87949 28.0865L10.3091 30.4325C10.4974 30.7417 10.5703 31.1088 10.514 31.4662L10.0878 34.1755C9.8706 35.556 10.4375 36.9244 11.5669 37.7465L13.7825 39.3591C14.0755 39.5722 14.2837 39.8836 14.3689 40.2359L15.0142 42.9041C15.3417 44.2595 16.3867 45.305 17.7411 45.633L18.8546 45.9027L11.3187 62.7233C11.1586 63.0808 11.2029 63.4967 11.4349 63.8123C11.6668 64.128 12.0503 64.2944 12.4392 64.2478L18.5028 63.5223L21.9959 68.5344C22.2003 68.8275 22.5339 68.9997 22.8869 68.9997C22.9207 68.9997 22.9549 68.9981 22.9889 68.995C23.3786 68.9584 23.7187 68.7146 23.8788 68.3573L31.5752 51.1775L32.5504 51.7725C33.1447 52.1352 33.811 52.3164 34.4774 52.3164C35.1438 52.3164 35.81 52.135 36.4044 51.7725L37.4148 51.1561L45.1208 68.3573C45.2809 68.7148 45.6208 68.9584 46.0107 68.995C46.0448 68.9982 46.0789 68.9999 46.1127 68.9999C46.4657 68.9999 46.7994 68.8276 47.0037 68.5345L50.4968 63.5224L56.5604 64.2479C56.9491 64.2941 57.3328 64.1281 57.5647 63.8125C57.7966 63.4968 57.8412 63.081 57.6809 62.7234L50.1411 45.8935L51.2128 45.6341C52.567 45.3063 53.6121 44.2607 53.9399 42.9055L54.5853 40.2371C54.6706 39.8848 54.8788 39.5734 55.1717 39.3603L57.3879 37.7474C58.5173 36.9255 59.084 35.5574 58.8671 34.1767L58.4409 31.4664C58.3848 31.1089 58.4575 30.7418 58.6458 30.4329L60.0758 28.0865ZM22.6807 65.7154L19.9125 61.7433C19.683 61.4139 19.2906 61.2376 18.8922 61.2856L14.0869 61.8605L20.9528 46.5346C21.0783 46.6269 21.1909 46.7375 21.2837 46.8654L22.8955 49.083C23.0487 49.2936 23.2208 49.4846 23.4084 49.6547L19.7945 57.7213C19.5491 58.2694 19.794 58.9127 20.3416 59.1583C20.486 59.2232 20.637 59.2537 20.7854 59.2537C21.2005 59.2537 21.597 59.0144 21.7776 58.6109L25.3786 50.573C25.733 50.6216 26.0978 50.6208 26.464 50.5631L29.1725 50.1367C29.3346 50.1112 29.4985 50.1135 29.6581 50.14L22.6807 65.7154ZM54.913 61.8602L50.1076 61.2856C49.7088 61.2378 49.3167 61.4139 49.0872 61.7433L46.319 65.7154L39.3387 50.1339C39.4851 50.1139 39.6344 50.1139 39.7822 50.1371L42.4897 50.5635C42.8707 50.6235 43.2503 50.6216 43.6181 50.5668L47.2219 58.6112C47.4028 59.0148 47.799 59.254 48.2141 59.254C48.3627 59.254 48.5136 59.2234 48.6579 59.1586C49.2055 58.9131 49.4505 58.2696 49.2049 57.7216L45.5773 49.6242C45.7523 49.4617 45.914 49.2818 46.0583 49.0834L47.6699 46.8664C47.7714 46.7266 47.8959 46.6068 48.0357 46.5099L54.913 61.8602ZM58.22 26.9542L56.7901 29.3006C56.3343 30.0491 56.1578 30.9383 56.294 31.8043L56.7201 34.5144C56.8097 35.0843 56.5756 35.6492 56.1095 35.9885L53.8932 37.6015C53.1838 38.1179 52.6793 38.8722 52.473 39.7254L51.8276 42.3938C51.6922 42.9532 51.261 43.3848 50.7018 43.5203L48.0351 44.1659C47.1823 44.3724 46.4284 44.8772 45.9123 45.5872L44.3007 47.8042C43.9616 48.2709 43.3973 48.5048 42.8274 48.4151L40.1198 47.9887C39.2542 47.8524 38.3655 48.0287 37.6173 48.4852L35.2729 49.9157C34.7823 50.2149 34.1725 50.2149 33.6821 49.9157L31.3372 48.485C30.754 48.1291 30.0855 47.9437 29.409 47.9437C29.2177 47.9437 29.0255 47.9585 28.8349 47.9886L26.1264 48.415C25.5567 48.5047 24.9924 48.2704 24.6533 47.8039L23.0413 45.5864C22.5252 44.8766 21.7714 44.3717 20.9187 44.1653L18.252 43.5195C17.693 43.384 17.2616 42.9525 17.1262 42.393L16.481 39.7247C16.2747 38.8714 15.7703 38.1168 15.0606 37.6004L12.8452 35.9877C12.3789 35.6483 12.145 35.0834 12.2346 34.5135L12.6608 31.8042C12.7969 30.938 12.6208 30.0488 12.1646 29.3002L10.735 26.9541C10.4359 26.4631 10.4359 25.853 10.735 25.3622L12.1649 23.0158C12.6209 22.2673 12.7972 21.3781 12.661 20.5121L12.2349 17.802C12.1454 17.2321 12.3794 16.6673 12.8456 16.3279L15.0619 14.7149C15.7712 14.1985 16.2757 13.4442 16.4821 12.591L17.1275 9.92267C17.2628 9.36326 17.6941 8.9316 18.2532 8.79617L20.9199 8.1505C21.7727 7.94404 22.5267 7.43921 23.0426 6.72927L24.6542 4.51224C24.9933 4.04568 25.5576 3.81132 26.1275 3.90121L28.8351 4.32761C29.7008 4.46413 30.5896 4.28758 31.3376 3.83113L33.682 2.4006C34.1726 2.10142 34.7824 2.10142 35.2728 2.4006L37.6177 3.83127C38.3657 4.28785 39.2546 4.46426 40.12 4.32788L42.8285 3.90148C43.3979 3.81213 43.9625 4.04608 44.3016 4.51251L45.9136 6.73008C46.4297 7.43989 47.1835 7.94472 48.0362 8.15118L50.7029 8.79697C51.2619 8.93241 51.6933 9.36393 51.8287 9.92348L52.4739 12.5917C52.6802 13.445 53.1846 14.1996 53.8942 14.716L56.1099 16.3286C56.5761 16.668 56.8101 17.2329 56.7204 17.8028L56.2943 20.5121C56.1581 21.3783 56.3343 22.2675 56.7904 23.0161L58.22 25.3622C58.5193 25.8532 58.5193 26.4633 58.22 26.9542Z" fill="#212121"/>
<path d="M47.1947 22.774C46.9553 22.0363 46.3284 21.5212 45.5585 21.4298L39.0197 20.654L36.2618 14.6712C35.9371 13.9669 35.2538 13.5293 34.4786 13.5293C33.7036 13.5293 33.0202 13.9669 32.6955 14.6712L29.9375 20.6541L23.3987 21.43C22.6289 21.5214 22.0018 22.0364 21.7625 22.7741C21.5231 23.5114 21.7278 24.297 22.2966 24.8235L27.1309 29.297L25.8477 35.7595C25.6968 36.5203 25.9925 37.2761 26.6197 37.7319C26.9657 37.9833 27.3672 38.1107 27.7712 38.1107C28.0997 38.1107 28.4297 38.0266 28.7328 37.8568L34.4785 34.6388L40.2242 37.8568C40.9007 38.2357 41.7102 38.1879 42.3374 37.732C42.9646 37.2761 43.2604 36.5202 43.1093 35.7595L41.826 29.2971L46.6603 24.8236C47.2295 24.2971 47.4342 23.5117 47.1947 22.774ZM39.904 28.1137C39.6266 28.3705 39.5024 28.7531 39.576 29.1239L40.8891 35.7369L35.0093 32.4437C34.8444 32.3514 34.6615 32.3052 34.4785 32.3052C34.2955 32.3052 34.1127 32.3513 33.9477 32.4437L28.0679 35.7369L29.381 29.1239C29.4548 28.7529 29.3305 28.3705 29.053 28.1137L24.1059 23.5358L30.7976 22.7419C31.1728 22.6974 31.4981 22.4609 31.6564 22.1177L34.4786 15.9952L37.3008 22.1177C37.4592 22.4609 37.7843 22.6974 38.1597 22.7419L44.8511 23.5358L39.904 28.1137Z" fill="#212121"/>
</g>
<defs>
<clipPath id="clip0">
<rect width="68.9562" height="68.9998" fill="white"/>
</clipPath>
</defs>
</svg>
