<svg width="67" height="68" viewBox="0 0 67 68" fill="none" xmlns="http://www.w3.org/2000/svg">
<g clip-path="url(#clip0)">
<path d="M34.8529 43.054C36.0327 42.9622 37.1083 42.3604 37.8064 41.4004L48.4178 26.7306C48.7431 26.2806 48.6943 25.6596 48.2999 25.2652C47.9055 24.8719 47.2845 24.8232 46.8345 25.1473L32.1624 35.7621C31.2059 36.458 30.6041 37.5335 30.5123 38.7133C30.4205 39.8931 30.8477 41.048 31.683 41.8832C32.4435 42.6448 33.4691 43.0664 34.5356 43.0664C34.641 43.0664 34.7464 43.0619 34.8529 43.054ZM32.7721 38.8901C32.8118 38.3722 33.077 37.8996 33.4941 37.5958L42.444 31.1211L35.9715 40.0688C35.6655 40.4892 35.1929 40.7533 34.675 40.7941C34.1593 40.8281 33.6527 40.649 33.2844 40.2807C32.9195 39.9146 32.7313 39.4069 32.7721 38.8901Z" fill="#212121"/>
<path d="M60.2388 22.1725C60.2274 22.1487 60.2274 22.1238 60.215 22.1C60.2014 22.0773 60.1798 22.0649 60.1651 22.0433C59.0193 20.0781 57.6638 18.2501 56.1248 16.5931L58.5592 14.1599L60.1617 15.7624L64.9693 10.9537L60.1617 6.14607L55.353 10.9537L56.9566 12.5573L54.5222 14.9906C52.8653 13.4515 51.0384 12.0949 49.072 10.9491C49.0505 10.9344 49.038 10.9129 49.0154 10.8993C48.9916 10.8857 48.9666 10.8868 48.9428 10.8743C45.4374 8.85473 41.4991 7.50947 37.3001 7.01647V5.66667H39.0001C40.563 5.66667 41.8334 4.3962 41.8334 2.83333C41.8334 1.27047 40.5618 0 38.999 0H28.799C27.2361 0 25.9656 1.27047 25.9656 2.83333C25.9656 4.3962 27.2361 5.66667 28.799 5.66667H30.499V6.9768C29.275 7.10713 28.0532 7.3066 26.8451 7.58313C26.2354 7.72253 25.8534 8.33113 25.994 8.94087C26.1334 9.5506 26.742 9.93367 27.3517 9.792C28.3944 9.55287 29.4472 9.37267 30.5024 9.2514L31.7184 9.15733C32.0902 9.129 32.4324 9.1086 32.7656 9.09273V11.3333C32.7656 11.9601 33.2722 12.4667 33.899 12.4667C34.5257 12.4667 35.0323 11.9601 35.0323 11.3333V9.10067C39.2948 9.29673 43.3113 10.4414 46.8824 12.325L45.765 14.2596C45.4522 14.8025 45.638 15.4949 46.1798 15.8077C46.3577 15.9109 46.5526 15.9596 46.7453 15.9596C47.1374 15.9596 47.5182 15.7567 47.7279 15.3929L48.842 13.4629C52.3882 15.7125 55.4006 18.7249 57.6502 22.2711L55.7202 23.3852C55.1796 23.698 54.9937 24.3905 55.3076 24.9333C55.5184 25.2971 55.8981 25.5 56.2902 25.5C56.4829 25.5 56.6778 25.4513 56.8558 25.3481L58.7904 24.2307C60.7 27.8528 61.8481 31.9351 62.0192 36.2655H59.7809C59.1542 36.2655 58.6476 36.7721 58.6476 37.3989C58.6476 38.0256 59.1542 38.5322 59.7809 38.5322H62.0192C61.8481 42.8627 60.7 46.9449 58.7904 50.5671L56.8558 49.4496C56.314 49.1368 55.6204 49.3204 55.3076 49.8644C54.9948 50.4073 55.1807 51.0997 55.7224 51.4125L57.6525 52.5266C55.4028 56.0728 52.3904 59.0852 48.8442 61.3349L47.7302 59.4048C47.4162 58.8608 46.7215 58.6761 46.182 58.99C45.6392 59.3028 45.4533 59.9964 45.7672 60.5381L46.8847 62.4727C43.3136 64.3563 39.297 65.501 35.0346 65.6971V63.4667C35.0346 62.8399 34.528 62.3333 33.9012 62.3333C33.2745 62.3333 32.7679 62.8399 32.7679 63.4667V65.7061C30.958 65.6438 29.1424 65.4171 27.3551 65.0069C26.7454 64.8607 26.1368 65.2483 25.9974 65.858C25.8568 66.4677 26.2388 67.0763 26.8485 67.2157C29.1106 67.7371 31.4215 68 33.7142 68C33.7698 68 33.823 67.9966 33.8786 67.9955C33.8865 67.9955 33.8922 68 33.899 68C33.908 68 33.916 67.9943 33.925 67.9943C39.373 67.9569 44.4843 66.4859 48.9066 63.9449C48.9417 63.9291 48.9791 63.9211 49.0131 63.9007C49.0358 63.8871 49.0482 63.8656 49.0698 63.8509C53.6473 61.183 57.4723 57.3625 60.1458 52.7884C60.1674 52.7578 60.1946 52.734 60.2138 52.7C60.2274 52.6762 60.2263 52.6513 60.2376 52.6275C62.8262 48.1395 64.3142 42.942 64.3142 37.4C64.3142 31.858 62.8262 26.6605 60.2388 22.1725ZM60.1606 9.35113L61.7631 10.9537L60.1606 12.5573L58.5569 10.9537L60.1606 9.35113ZM32.7656 6.8238V3.4H28.799C28.4873 3.4 28.2323 3.145 28.2323 2.83333C28.2323 2.52167 28.4873 2.26667 28.799 2.26667H38.999C39.3106 2.26667 39.5656 2.52167 39.5656 2.83333C39.5656 3.145 39.3106 3.4 38.999 3.4H35.0323V6.8238C34.6379 6.80793 34.2616 6.8 33.899 6.8C33.8672 6.8 33.831 6.80227 33.7992 6.80227C33.7709 6.80227 33.7426 6.8 33.7142 6.8C33.5284 6.8 33.3425 6.81247 33.1566 6.81587C33.0252 6.81927 32.9016 6.81813 32.7656 6.8238Z" fill="#212121"/>
<path d="M23.6984 15.8672H18.0318C17.405 15.8672 16.8984 16.3738 16.8984 17.0005C16.8984 17.6273 17.405 18.1339 18.0318 18.1339H23.6984C24.3252 18.1339 24.8318 17.6273 24.8318 17.0005C24.8318 16.3738 24.3252 15.8672 23.6984 15.8672Z" fill="#00C8D2"/>
<path d="M23.6991 23.8008H12.3658C11.739 23.8008 11.2324 24.3074 11.2324 24.9341C11.2324 25.5608 11.739 26.0674 12.3658 26.0674H23.6991C24.3258 26.0674 24.8324 25.5608 24.8324 24.9341C24.8324 24.3074 24.3258 23.8008 23.6991 23.8008Z" fill="#00C8D2"/>
<path d="M23.6997 31.7344H6.69974C6.07301 31.7344 5.56641 32.241 5.56641 32.8677C5.56641 33.4944 6.07301 34.001 6.69974 34.001H23.6997C24.3265 34.001 24.8331 33.4944 24.8331 32.8677C24.8331 32.241 24.3265 31.7344 23.6997 31.7344Z" fill="#00C8D2"/>
<path d="M23.6999 39.666H2.16654C1.5398 39.666 1.0332 40.1726 1.0332 40.7993C1.0332 41.4261 1.5398 41.9327 2.16654 41.9327H23.6999C24.3266 41.9327 24.8332 41.4261 24.8332 40.7993C24.8332 40.1726 24.3266 39.666 23.6999 39.666Z" fill="#00C8D2"/>
<path d="M23.7007 47.5996H8.96732C8.34058 47.5996 7.83398 48.1062 7.83398 48.7329C7.83398 49.3597 8.34058 49.8663 8.96732 49.8663H23.7007C24.3274 49.8663 24.834 49.3597 24.834 48.7329C24.834 48.1062 24.3274 47.5996 23.7007 47.5996Z" fill="#00C8D2"/>
<path d="M23.7014 55.5332H15.7681C15.1414 55.5332 14.6348 56.0398 14.6348 56.6665C14.6348 57.2933 15.1414 57.7999 15.7681 57.7999H23.7014C24.3282 57.7999 24.8348 57.2933 24.8348 56.6665C24.8348 56.0398 24.3282 55.5332 23.7014 55.5332Z" fill="#00C8D2"/>
</g>
<defs>
<clipPath id="clip0">
<rect x="-1" width="68" height="68" fill="white"/>
</clipPath>
</defs>
</svg>
