<svg width="90" height="90" viewBox="0 0 90 90" fill="none" xmlns="http://www.w3.org/2000/svg">
<g clip-path="url(#clip0)">
<path d="M79.3513 41.7051C76.2908 40.174 70.5525 40.1562 70.3097 40.1562C69.5821 40.1562 68.9922 40.7465 68.9922 41.4746C68.9922 42.2027 69.5821 42.793 70.3097 42.793C71.7904 42.7931 76.0896 43.0213 78.1729 44.0635C78.3621 44.1583 78.563 44.2029 78.761 44.2029C79.2443 44.2029 79.7096 43.9357 79.9405 43.4739C80.266 42.8227 80.0021 42.0308 79.3513 41.7051Z" fill="#212121"/>
<path d="M36.875 54.375L33.75 57.5L38.125 63.75L40 64.375L44.375 61.25L46.875 61.875L51.25 65L56.25 56.875L53.125 54.375L45 59.375L36.875 54.375Z" fill="#00C8D2"/>
<path d="M85.9224 60.4761L80.481 58.9204C80.2461 58.8533 80.0821 58.6356 80.0821 58.3911V56.5737C80.5247 56.2668 80.9471 55.9233 81.3418 55.54C83.2548 53.6823 84.3083 51.1906 84.3083 48.5237V46.0158L84.8345 44.963C85.4119 43.8073 85.717 42.5133 85.717 41.2213V34.4274C85.717 33.6993 85.1271 33.109 84.3995 33.109H71.7209C67.1106 33.109 63.3597 36.8623 63.3597 41.4755V41.5541C63.3597 42.6285 63.6135 43.7044 64.0936 44.6653L64.7684 46.0156V48.1689C64.7684 51.5815 66.449 54.6435 68.9946 56.486L68.995 58.3908C68.995 58.6845 68.995 58.8062 67.9071 59.1173L65.252 59.8763L57.5715 57.0817C57.5991 56.7191 57.4768 56.3503 57.2124 56.0724L54.7581 53.4923V49.161C55.0176 48.9471 55.2734 48.7274 55.5213 48.495C58.6174 45.5911 60.3931 41.4912 60.3931 37.2466V33.7876C61.328 31.7518 61.8018 29.5976 61.8018 27.3791V13.2832C61.8018 12.5551 61.2119 11.9648 60.4843 11.9648H40.762C33.8213 11.9648 28.1747 17.6152 28.1747 24.5601V27.3795C28.1747 29.598 28.6485 31.7522 29.5834 33.7879V36.7641C29.5834 41.6923 31.7733 46.1321 35.2184 49.0593V53.4925L32.7641 56.0726C32.4997 56.3505 32.3774 56.7193 32.405 57.0819L24.2987 60.0313C23.7113 60.2451 23.1654 60.5346 22.6699 60.8853L21.397 60.2484C25.1862 58.598 26.3865 56.2768 26.4442 56.1615C26.6297 55.7904 26.6297 55.3535 26.4442 54.9824C25.4943 53.0815 25.3792 49.5973 25.2868 46.7978C25.2561 45.8658 25.2269 44.9853 25.1713 44.2014C24.7221 37.8778 19.9178 33.109 13.996 33.109C8.07415 33.109 3.26975 37.8776 2.82074 44.2014C2.76505 44.9855 2.73589 45.866 2.70514 46.7982C2.61274 49.5975 2.4975 53.0813 1.54783 54.9822C1.36232 55.3533 1.36232 55.7903 1.54783 56.1613C1.60545 56.2767 2.80334 58.5931 6.6001 60.2454L3.06439 62.0143C1.17418 62.9607 0 64.8618 0 66.9763V76.7161C0 77.4442 0.5899 78.0345 1.31753 78.0345C2.04515 78.0345 2.63505 77.4442 2.63505 76.7161V66.9763C2.63505 65.8668 3.25113 64.8692 4.24279 64.373L8.64561 62.1702L10.1771 63.6266C11.248 64.6449 12.6217 65.1538 13.996 65.1538C15.3699 65.1538 16.7444 64.6445 17.8149 63.6266L19.3462 62.1704L20.7818 62.8887C20.1058 63.971 19.7221 65.2401 19.7221 66.5695V76.7165C19.7221 77.4446 20.312 78.0349 21.0397 78.0349C21.7673 78.0349 22.3572 77.4446 22.3572 76.7165V66.5695C22.3572 64.7597 23.4992 63.1281 25.1992 62.5095L33.7459 59.3998L37.3037 64.7402C37.7585 65.4229 38.4874 65.8608 39.3034 65.9416C39.3944 65.9506 39.4849 65.955 39.5751 65.955C40.295 65.955 40.9846 65.6715 41.5 65.1559L43.6705 62.9839V76.7167C43.6705 77.4448 44.2604 78.035 44.9881 78.035C45.7157 78.035 46.3056 77.4448 46.3056 76.7167V62.9839L48.4762 65.1559C48.9914 65.6716 49.6809 65.9552 50.401 65.9552C50.4911 65.9552 50.5818 65.9508 50.6726 65.9418C51.4888 65.861 52.2176 65.4231 52.6724 64.7403L56.2304 59.4001L64.777 62.5099C66.4768 63.1284 67.619 64.76 67.619 66.5699V76.7169C67.619 77.4449 68.2089 78.0352 68.9365 78.0352C69.6641 78.0352 70.254 77.4449 70.254 76.7169V66.5699C70.254 64.7368 69.5262 63.0177 68.3053 61.7463L68.6308 61.6533C68.9591 61.5594 69.4071 61.4309 69.8568 61.2103L73.2207 64.5763V76.7169C73.2207 77.4449 73.8106 78.0352 74.5383 78.0352C75.2659 78.0352 75.8558 77.4449 75.8558 76.7169V64.5763L79.1963 61.2337C79.3739 61.324 79.5605 61.4003 79.7569 61.4564L85.1984 63.0121C86.4404 63.3671 87.3081 64.518 87.3081 65.8107V76.7169C87.3081 77.4449 87.898 78.0352 88.6256 78.0352C89.3532 78.0352 89.9431 77.4449 89.9431 76.7169V65.8107C89.9431 63.3466 88.2897 61.153 85.9224 60.4761ZM8.45237 58.1475C5.98789 57.2602 4.7517 56.0771 4.22399 55.4312C4.58376 54.49 4.81705 53.4121 4.97498 52.2743C5.70155 54.0175 6.91842 55.5057 8.45237 56.5674V58.1475ZM16 61.7155C14.8763 62.7839 13.1159 62.7837 11.9925 61.7153L10.7672 60.5503C10.9739 60.1627 11.0876 59.7232 11.0876 59.2628V57.8576C12.0067 58.145 12.9838 58.3001 13.9963 58.3001C15.0077 58.3001 15.9842 58.1443 16.9049 57.8585L16.9047 59.2627C16.9047 59.7232 17.0182 60.1628 17.2252 60.5506L16 61.7155ZM13.9967 55.6634C10.0624 55.6634 6.86185 52.4606 6.86185 48.524C6.86185 47.7959 6.27195 47.2056 5.54433 47.2056C5.47054 47.2056 5.39852 47.2132 5.32808 47.225C5.33194 47.1116 5.33563 46.998 5.33949 46.8857C5.36883 45.9792 5.39711 45.123 5.44929 44.3886C5.61758 42.0197 6.56356 39.8369 8.11298 38.2419C9.67626 36.6324 11.7657 35.7461 13.9963 35.7461C16.227 35.7461 18.3162 36.6324 19.8797 38.2419C21.4291 39.8369 22.3751 42.0197 22.5434 44.3886C22.5954 45.1228 22.6239 45.9789 22.6537 46.8852C22.6564 46.9631 22.659 47.042 22.6616 47.1204C21.2282 44.9105 19.0144 43.2819 16.1539 42.3622C13.5113 41.5126 11.2385 41.5652 11.1426 41.5676C10.7976 41.5773 10.4701 41.7218 10.2307 41.9704L7.85351 44.4373C7.34846 44.9614 7.36357 45.7961 7.88741 46.3014C8.41126 46.8068 9.24535 46.7915 9.7504 46.2675L11.7284 44.2149C13.4319 44.2982 18.9123 44.936 21.0437 49.6323C20.5074 53.0931 17.5347 55.6634 13.9967 55.6634ZM19.5396 58.1519L19.5398 56.5795C21.0725 55.5236 22.2911 54.0383 23.0182 52.2819C23.1762 53.417 23.4093 54.4925 23.7683 55.4315C23.2436 56.0713 22.0016 57.2649 19.5396 58.1519ZM32.2184 36.7639V33.4929C32.2184 33.2945 32.1736 33.0985 32.0874 32.9197C31.2396 31.163 30.8097 29.299 30.8097 27.3795V24.5603C30.8097 19.069 35.2744 14.6017 40.762 14.6017H59.1668V27.3796C59.1668 29.2992 58.7369 31.1631 57.8891 32.9199C57.8029 33.0987 57.7581 33.2947 57.7581 33.4931V37.2469C57.7581 40.8172 56.3237 44.1288 53.7192 46.5716C53.3941 46.8764 53.0566 47.1622 52.7077 47.4285C52.7 47.4338 52.6926 47.4396 52.6851 47.4451C50.2452 49.2987 47.2567 50.1996 44.1357 49.9972C37.4531 49.5643 32.2184 43.7515 32.2184 36.7639ZM39.6368 63.2912C39.6277 63.3004 39.6064 63.322 39.5634 63.3174C39.5205 63.3132 39.5037 63.288 39.4964 63.2771L35.3989 57.1269L36.7175 55.7405L42.9336 59.9921L39.6368 63.2912ZM44.9883 58.2036L37.8534 53.3235V50.8626C39.6995 51.8612 41.7666 52.4858 43.9651 52.6281C44.3124 52.6506 44.6576 52.6617 45.0018 52.6617C47.5211 52.6617 49.9457 52.0591 52.1231 50.9153V53.3235L44.9883 58.2036ZM50.48 63.2775C50.4728 63.2884 50.456 63.3135 50.4131 63.3178C50.3701 63.3232 50.349 63.3005 50.3397 63.2916L47.0429 59.9927L53.259 55.7409L54.5777 57.1273L50.48 63.2775ZM74.5383 62.1652L71.5483 59.1735C71.6005 58.9364 71.63 58.6768 71.6299 58.3904L71.6297 57.8341C72.4594 58.1065 73.3339 58.2683 74.2387 58.2953C74.3403 58.2985 74.4409 58.2999 74.5421 58.2999C75.542 58.2999 76.5181 58.1487 77.447 57.8603V58.3911C77.447 58.6541 77.48 58.9118 77.5422 59.1595L74.5383 62.1652ZM79.5067 53.6479C78.1103 55.0038 76.2656 55.72 74.318 55.6598C70.5052 55.5454 67.4034 52.185 67.4034 48.1693V45.7046C67.4034 45.4999 67.3558 45.2981 67.2643 45.1151L66.4504 43.4863C66.1523 42.8895 65.9947 42.2215 65.9947 41.5543V41.4757C65.9947 38.3162 68.5635 35.7459 71.7209 35.7459H83.082V41.2215C83.082 42.1064 82.8729 42.9925 82.4775 43.7841L81.8124 45.1151C81.7209 45.2982 81.6733 45.4999 81.6733 45.7046V48.5238C81.6733 50.4715 80.9038 52.2912 79.5067 53.6479Z" fill="#212121"/>
<path d="M82.9933 66.9395C82.2657 66.9395 81.6758 67.5297 81.6758 68.2578V76.7155C81.6758 77.4436 82.2657 78.0339 82.9933 78.0339C83.7209 78.0339 84.3108 77.4436 84.3108 76.7155V68.2578C84.3108 67.5299 83.7209 66.9395 82.9933 66.9395Z" fill="#212121"/>
<path d="M6.95034 68.6836C6.22271 68.6836 5.63281 69.2739 5.63281 70.002V76.717C5.63281 77.4451 6.22271 78.0353 6.95034 78.0353C7.67796 78.0353 8.26786 77.4451 8.26786 76.717V70.002C8.26786 69.274 7.67796 68.6836 6.95034 68.6836Z" fill="#212121"/>
<path d="M55.78 27.8565C50.7969 22.8703 40.3711 23.8235 36.1195 24.4648C34.7804 24.6668 33.8086 25.8007 33.8086 27.1611V30.1982C33.8086 30.9263 34.3985 31.5166 35.1261 31.5166C35.8537 31.5166 36.4436 30.9263 36.4436 30.1982V27.1609C36.4436 27.1161 36.4732 27.0778 36.5125 27.0718C38.2107 26.8157 41.5806 26.4205 45.072 26.6534C49.1806 26.9271 52.1565 27.9591 53.9168 29.7208C54.4314 30.2357 55.2656 30.2357 55.78 29.7208C56.2945 29.206 56.2945 28.3712 55.78 27.8565Z" fill="#212121"/>
<path d="M29.4933 69.7598C28.7657 69.7598 28.1758 70.35 28.1758 71.0781V76.7167C28.1758 77.4447 28.7657 78.035 29.4933 78.035C30.2209 78.035 30.8108 77.4447 30.8108 76.7167V71.0781C30.8108 70.3502 30.2209 69.7598 29.4933 69.7598Z" fill="#212121"/>
<path d="M60.4855 69.7598C59.7579 69.7598 59.168 70.35 59.168 71.0781V76.7167C59.168 77.4447 59.7579 78.035 60.4855 78.035C61.2131 78.035 61.803 77.4447 61.803 76.7167V71.0781C61.803 70.3502 61.2131 69.7598 60.4855 69.7598Z" fill="#212121"/>
</g>
<defs>
<clipPath id="clip0">
<rect width="89.9431" height="90" fill="white"/>
</clipPath>
</defs>
</svg>
