<svg width="70" height="70" viewBox="0 0 70 70" fill="none" xmlns="http://www.w3.org/2000/svg">
<g clip-path="url(#clip0)">
<path d="M62.6268 55.9202C63.3687 54.859 63.7663 53.5952 63.7655 52.3004V51.055C63.741 49.3876 63.0615 47.7968 61.8737 46.6264C60.6859 45.4559 59.0853 44.7998 57.4178 44.7998C55.7502 44.7998 54.1496 45.4559 52.9618 46.6264C51.7741 47.7968 51.0945 49.3876 51.0701 51.055V52.3004C51.0688 53.5951 51.4658 54.8589 52.2074 55.9202C51.0228 55.9555 49.8629 56.2676 48.8205 56.8316C47.7782 57.3956 46.8824 58.1958 46.2049 59.1682C45.528 58.1965 44.6331 57.3966 43.5917 56.8327C42.5504 56.2687 41.3915 55.9562 40.2078 55.9202C40.9498 54.859 41.3474 53.5952 41.3465 52.3004V51.055C41.3221 49.3876 40.6425 47.7968 39.4548 46.6264C38.267 45.4559 36.6664 44.7998 34.9988 44.7998C33.3313 44.7998 31.7307 45.4559 30.5429 46.6264C29.3551 47.7968 28.6756 49.3876 28.6511 51.055V52.3004C28.6534 53.5964 29.0548 54.8603 29.8008 55.9202C28.6129 55.9545 27.4497 56.2674 26.4049 56.8337C25.3602 57.4001 24.4631 58.2039 23.7859 59.1805C23.1098 58.2052 22.2142 57.4021 21.1712 56.8359C20.1282 56.2696 18.9669 55.956 17.7807 55.9202C18.5223 54.8589 18.9193 53.5951 18.918 52.3004V51.055C18.918 49.3717 18.2493 47.7573 17.059 46.567C15.8687 45.3767 14.2543 44.708 12.571 44.708C10.8877 44.708 9.27329 45.3767 8.08299 46.567C6.89269 47.7573 6.22399 49.3717 6.22399 51.055V52.3004C6.22268 53.5951 6.61976 54.8589 7.36134 55.9202C5.38966 55.9823 3.51935 56.8085 2.14567 58.2243C0.771996 59.6401 0.00257064 61.5345 0 63.5071L0 68.6074C0 68.97 0.144024 69.3177 0.400387 69.574C0.656751 69.8304 1.00446 69.9744 1.36701 69.9744H68.6238C68.9864 69.9744 69.3341 69.8304 69.5904 69.574C69.8468 69.3177 69.9908 68.97 69.9908 68.6074V63.5071C69.9882 61.534 69.2184 59.6392 67.8442 58.2234C66.4699 56.8075 64.5989 55.9816 62.6268 55.9202ZM53.8041 51.055C53.7947 50.5746 53.8813 50.0971 54.0587 49.6504C54.2361 49.2038 54.5008 48.7971 54.8373 48.454C55.1738 48.1109 55.5753 47.8383 56.0184 47.6523C56.4615 47.4662 56.9372 47.3704 57.4178 47.3704C57.8983 47.3704 58.3741 47.4662 58.8172 47.6523C59.2602 47.8383 59.6618 48.1109 59.9982 48.454C60.3347 48.7971 60.5994 49.2038 60.7768 49.6504C60.9542 50.0971 61.0408 50.5746 61.0315 51.055V52.3004C61.0408 52.7808 60.9542 53.2584 60.7768 53.705C60.5994 54.1516 60.3347 54.5583 59.9982 54.9014C59.6618 55.2445 59.2602 55.5171 58.8172 55.7031C58.3741 55.8892 57.8983 55.985 57.4178 55.985C56.9372 55.985 56.4615 55.8892 56.0184 55.7031C55.5753 55.5171 55.1738 55.2445 54.8373 54.9014C54.5008 54.5583 54.2361 54.1516 54.0587 53.705C53.8813 53.2584 53.7947 52.7808 53.8041 52.3004V51.055ZM31.3851 51.055C31.3758 50.5746 31.4624 50.0971 31.6398 49.6504C31.8172 49.2038 32.0819 48.7971 32.4184 48.454C32.7548 48.1109 33.1564 47.8383 33.5995 47.6523C34.0425 47.4662 34.5183 47.3704 34.9988 47.3704C35.4794 47.3704 35.9551 47.4662 36.3982 47.6523C36.8413 47.8383 37.2428 48.1109 37.5793 48.454C37.9158 48.7971 38.1805 49.2038 38.3579 49.6504C38.5353 50.0971 38.6219 50.5746 38.6125 51.055V52.3004C38.6219 52.7808 38.5353 53.2584 38.3579 53.705C38.1805 54.1516 37.9158 54.5583 37.5793 54.9014C37.2428 55.2445 36.8413 55.5171 36.3982 55.7031C35.9551 55.8892 35.4794 55.985 34.9988 55.985C34.5183 55.985 34.0425 55.8892 33.5995 55.7031C33.1564 55.5171 32.7548 55.2445 32.4184 54.9014C32.0819 54.5583 31.8172 54.1516 31.6398 53.705C31.4624 53.2584 31.3758 52.7808 31.3851 52.3004V51.055ZM8.95391 51.055C8.94456 50.5746 9.03112 50.0971 9.20853 49.6504C9.38594 49.2038 9.65063 48.7971 9.98711 48.454C10.3236 48.1109 10.7251 47.8383 11.1682 47.6523C11.6113 47.4662 12.087 47.3704 12.5676 47.3704C13.0482 47.3704 13.5239 47.4662 13.967 47.6523C14.4101 47.8383 14.8116 48.1109 15.1481 48.454C15.4846 48.7971 15.7492 49.2038 15.9267 49.6504C16.1041 50.0971 16.1906 50.5746 16.1813 51.055V52.3004C16.1906 52.7808 16.1041 53.2584 15.9267 53.705C15.7492 54.1516 15.4846 54.5583 15.1481 54.9014C14.8116 55.2445 14.4101 55.5171 13.967 55.7031C13.5239 55.8892 13.0482 55.985 12.5676 55.985C12.087 55.985 11.6113 55.8892 11.1682 55.7031C10.7251 55.5171 10.3236 55.2445 9.98711 54.9014C9.65063 54.5583 9.38594 54.1516 9.20853 53.705C9.03112 53.2584 8.94456 52.7808 8.95391 52.3004V51.055ZM22.4189 67.2404H2.73402V63.5071C2.73438 62.2183 3.24622 60.9824 4.15714 60.0707C5.06807 59.159 6.30359 58.6461 7.59236 58.6447H17.5538C18.8436 58.6447 20.0807 59.1569 20.993 60.0687C21.9053 60.9805 22.4182 62.2173 22.4189 63.5071V67.2404ZM25.1694 63.5071C25.1701 62.2192 25.6815 60.984 26.5914 60.0725C27.5014 59.161 28.7356 58.6476 30.0236 58.6447H39.985C41.2734 58.6461 42.5087 59.1586 43.4197 60.0696C44.3308 60.9807 44.8433 62.2159 44.8447 63.5044V67.2377H25.1598V63.5071H25.1694ZM67.2568 67.2404H47.5719V63.5071C47.5726 62.2173 48.0855 60.9805 48.9978 60.0687C49.9102 59.1569 51.1472 58.6447 52.4371 58.6447H62.3985C63.6871 58.6465 64.9224 59.1595 65.8333 60.0711C66.7441 60.9827 67.2561 62.2184 67.2568 63.5071V67.2404Z" fill="#212121"/>
<path d="M25.5626 36.7334C25.2463 36.7333 24.9398 36.8429 24.6953 37.0435C24.4508 37.2441 24.2834 37.5233 24.2216 37.8335C24.1599 38.1436 24.2076 38.4656 24.3566 38.7446C24.5056 39.0235 24.7468 39.2422 25.039 39.3633C25.3311 39.4843 25.6563 39.5004 25.9589 39.4086C26.2616 39.3169 26.5231 39.123 26.6988 38.8601C26.8746 38.5971 26.9537 38.2814 26.9228 37.9666C26.8918 37.6519 26.7527 37.3576 26.5291 37.1339C26.2728 36.8776 25.9251 36.7335 25.5626 36.7334Z" fill="#212121"/>
<path d="M8.74982 39.4668H20.096C20.4585 39.4668 20.8063 39.3228 21.0626 39.0664C21.319 38.8101 21.463 38.4624 21.463 38.0998C21.463 37.7373 21.319 37.3896 21.0626 37.1332C20.8063 36.8768 20.4585 36.7328 20.096 36.7328H10.1168V27.0558C10.1183 25.834 10.6042 24.6628 11.4681 23.7989C12.332 22.935 13.5033 22.449 14.725 22.4476H16.9847V28.8438C16.9849 29.1116 17.0638 29.3734 17.2116 29.5968C17.3593 29.8201 17.5694 29.9952 17.8158 30.1002C18.0622 30.2052 18.3339 30.2355 18.5974 30.1873C18.8608 30.1392 19.1043 30.0147 19.2977 29.8294L24.197 25.1187V29.2334C24.197 29.596 24.341 29.9437 24.5974 30.2C24.8538 30.4564 25.2015 30.6004 25.564 30.6004C25.9266 30.6004 26.2743 30.4564 26.5307 30.2C26.787 29.9437 26.931 29.596 26.931 29.2334V25.1187L31.8277 29.8226C32.0209 30.0053 32.2631 30.1276 32.5248 30.1747C32.7865 30.2218 33.0562 30.1915 33.3009 30.0877C33.5457 29.9838 33.7548 29.8108 33.9028 29.5899C34.0507 29.3689 34.131 29.1097 34.1338 28.8438V22.4476H36.3935C37.6152 22.449 38.7865 22.935 39.6504 23.7989C40.5142 24.6628 41.0002 25.834 41.0017 27.0558V36.7328H31.0225C30.6599 36.7328 30.3122 36.8768 30.0559 37.1332C29.7995 37.3896 29.6555 37.7373 29.6555 38.0998C29.6555 38.4624 29.7995 38.8101 30.0559 39.0664C30.3122 39.3228 30.6599 39.4668 31.0225 39.4668H42.3687C42.7312 39.4668 43.0789 39.3228 43.3353 39.0664C43.5917 38.8101 43.7357 38.4624 43.7357 38.0998V27.0558C43.7335 25.1095 42.9594 23.2436 41.5832 21.8674C40.207 20.4912 38.3411 19.7171 36.3948 19.7149H31.9069C33.4574 18.0904 34.322 15.9307 34.3211 13.685V8.76381C34.2923 6.45862 33.3564 4.25761 31.7161 2.63768C30.0758 1.01775 27.8632 0.109375 25.5579 0.109375C23.2525 0.109375 21.04 1.01775 19.3997 2.63768C17.7594 4.25761 16.8235 6.45862 16.7947 8.76381V13.685C16.7939 15.9304 17.658 18.0898 19.2074 19.7149H14.7223C12.7763 19.7175 10.9107 20.4917 9.53481 21.8679C8.1589 23.244 7.38498 25.1097 7.38281 27.0558V38.0998C7.38281 38.4624 7.52684 38.8101 7.7832 39.0664C8.03956 39.3228 8.38727 39.4668 8.74982 39.4668ZM19.7173 22.4476H23.0282L19.7173 25.6286V22.4476ZM31.4039 25.6286L28.093 22.4489H31.4012V25.6286H31.4039ZM19.5273 8.76381C19.5205 7.21439 20.1104 5.7218 21.1746 4.59566C22.2388 3.46953 23.6957 2.79628 25.243 2.71557C26.7904 2.63486 28.3094 3.15289 29.485 4.1622C30.6606 5.17151 31.4026 6.59463 31.557 8.13636L28.6999 6.45904C28.4213 6.29512 28.0936 6.23525 27.775 6.29006C27.4564 6.34487 27.1676 6.51081 26.9597 6.75841C26.326 7.51642 25.5335 8.12592 24.6382 8.5438C23.743 8.96168 22.7668 9.17772 21.7788 9.17665H19.5273V8.76655V8.76381ZM19.5273 13.685V11.9079H21.7774C24.1792 11.9117 26.4926 11.0023 28.2488 9.36393L31.5871 11.3256V13.685C31.5871 15.2843 30.9518 16.818 29.821 17.9488C28.6901 19.0796 27.1564 19.7149 25.5572 19.7149C23.958 19.7149 22.4242 19.0796 21.2934 17.9488C20.1626 16.818 19.5273 15.2843 19.5273 13.685Z" fill="#212121"/>
<path d="M44.1187 22.2358C44.3129 22.3591 44.5352 22.4314 44.7648 22.446C44.9945 22.4606 45.2241 22.4169 45.4324 22.3191L50.0652 20.1429H67.0407C67.8181 20.1421 68.5635 19.833 69.1133 19.2832C69.663 18.7335 69.9722 17.9881 69.9729 17.2106V2.93223C69.9722 2.15478 69.663 1.40937 69.1133 0.859631C68.5635 0.309887 67.8181 0.000723887 67.0407 0L46.4166 0C45.6393 0.00108492 44.8941 0.310364 44.3444 0.860029C43.7947 1.40969 43.4855 2.15489 43.4844 2.93223V21.082C43.4844 21.3122 43.5426 21.5386 43.6535 21.7403C43.7644 21.942 43.9244 22.1124 44.1187 22.2358ZM46.2184 2.93223C46.2184 2.87966 46.2393 2.82925 46.2764 2.79207C46.3136 2.7549 46.364 2.73402 46.4166 2.73402H67.0407C67.0934 2.73402 67.1439 2.75486 67.1813 2.79199C67.2187 2.82912 67.2399 2.87954 67.2402 2.93223V17.2106C67.2399 17.2635 67.2188 17.314 67.1814 17.3514C67.144 17.3887 67.0935 17.4099 67.0407 17.4102H49.7589C49.5576 17.4124 49.3592 17.4591 49.178 17.5469L46.2184 18.9303V2.93223Z" fill="#212121"/>
<path d="M50.2186 8.55238H63.2448C63.6073 8.55238 63.9551 8.40835 64.2114 8.15199C64.4678 7.89562 64.6118 7.54792 64.6118 7.18537C64.6118 6.82281 64.4678 6.47511 64.2114 6.21875C63.9551 5.96238 63.6073 5.81836 63.2448 5.81836H50.2186C49.856 5.81836 49.5083 5.96238 49.2519 6.21875C48.9956 6.47511 48.8516 6.82281 48.8516 7.18537C48.8516 7.54792 48.9956 7.89562 49.2519 8.15199C49.5083 8.40835 49.856 8.55238 50.2186 8.55238Z" fill="#212121"/>
<path d="M50.2186 14.0182H59.2053C59.5678 14.0182 59.9155 13.8742 60.1719 13.6178C60.4283 13.3614 60.5723 13.0137 60.5723 12.6512C60.5723 12.2886 60.4283 11.9409 60.1719 11.6846C59.9155 11.4282 59.5678 11.2842 59.2053 11.2842H50.2186C49.856 11.2842 49.5083 11.4282 49.2519 11.6846C48.9956 11.9409 48.8516 12.2886 48.8516 12.6512C48.8516 13.0137 48.9956 13.3614 49.2519 13.6178C49.5083 13.8742 49.856 14.0182 50.2186 14.0182Z" fill="#212121"/>
<path d="M62.7217 27.4512L50.707 39.4672" stroke="#212121" stroke-width="1.98216" stroke-miterlimit="10"/>
<path d="M63.1748 39.0107L51.1602 26.9961" stroke="#212121" stroke-width="1.98216" stroke-miterlimit="10"/>
<path d="M57.168 32.9903V19.7207" stroke="#212121" stroke-width="1.23031" stroke-miterlimit="10"/>
<path d="M57.168 45.4473V41.5186" stroke="#212121" stroke-width="1.23031" stroke-miterlimit="10"/>
<path d="M35 45.4473V41.5186" stroke="#212121" stroke-width="1.23031" stroke-miterlimit="10"/>
<path d="M12.5742 45.4473V41.5186" stroke="#212121" stroke-width="1.23031" stroke-miterlimit="10"/>
<path d="M57.7852 42.0586H44.5156" stroke="#212121" stroke-width="1.23031" stroke-miterlimit="10"/>
<path d="M44.6569 42.0586H30.5234" stroke="#212121" stroke-width="1.23031" stroke-miterlimit="10"/>
<path d="M31.3867 42.0586H18.1172" stroke="#212121" stroke-width="1.23031" stroke-miterlimit="10"/>
<path d="M20.651 42.0586H11.9609" stroke="#212121" stroke-width="1.23031" stroke-miterlimit="10"/>
<path d="M57.168 41.5186V34.1709" stroke="#212121" stroke-width="1.23031" stroke-miterlimit="10"/>
</g>
<defs>
<clipPath id="clip0">
<rect width="69.9908" height="69.9731" fill="white"/>
</clipPath>
</defs>
</svg>
