<svg width="69" height="69" viewBox="0 0 69 69" fill="none" xmlns="http://www.w3.org/2000/svg">
<g clip-path="url(#clip0)">
<path d="M68.6733 12.5691L56.4314 0.327265C56.1135 0.00882924 55.6359 -0.0857233 55.2185 0.0859928C54.8023 0.258252 54.5322 0.66472 54.5322 1.11412V7.79148H43.4033C39.8994 7.79148 36.7433 9.27824 34.5099 11.6453C32.2026 9.1826 29.0242 7.79148 25.597 7.79148H14.468V1.11412C14.468 0.66472 14.1974 0.258252 13.7812 0.0859928C13.3649 -0.0868101 12.8873 0.00882924 12.5683 0.327265L0.326451 12.5691C-0.108817 13.0044 -0.108817 13.7075 0.326451 14.1428L12.5683 26.3846C12.7808 26.5971 13.0655 26.7107 13.3551 26.7107C13.4986 26.7107 13.6431 26.683 13.7812 26.6259C14.1974 26.4537 14.468 26.0472 14.468 25.5978V18.9204H23.3712C25.2117 18.9204 26.7099 20.4186 26.7099 22.2591V25.6891C24.0532 27.2313 22.2583 30.1004 22.2583 33.3881V38.4586C20.9335 39.2307 20.0325 40.6507 20.0325 42.2912C20.0325 44.7463 22.029 46.7428 24.4841 46.7428H25.0682C25.7002 48.5224 26.8153 50.0711 28.2635 51.2286C21.8263 51.5807 16.6938 56.9126 16.6938 63.4362V67.8878C16.6938 68.5029 17.191 69.0007 17.8067 69.0007H51.1935C51.8087 69.0007 52.3064 68.5029 52.3064 67.8878V63.4362C52.3064 56.9126 47.1734 51.5807 40.7368 51.2286C42.1844 50.0728 43.2995 48.5224 43.9315 46.7428H44.5162C46.9707 46.7428 48.9678 44.7463 48.9678 42.2912C48.9678 40.6507 48.0662 39.2307 46.742 38.4586V33.3881C46.742 30.1015 44.9466 27.2313 42.2904 25.6891V22.2591C42.2904 20.4186 43.788 18.9204 45.6291 18.9204H54.5322V25.5978C54.5322 26.0472 54.8023 26.4537 55.2185 26.6259C55.3566 26.683 55.5011 26.7107 55.6451 26.7107C55.9342 26.7107 56.219 26.5971 56.4314 26.3846L68.6733 14.1428C69.1085 13.7075 69.1085 13.0044 68.6733 12.5691ZM23.3712 16.6946H13.3551C12.7395 16.6946 12.2422 17.1929 12.2422 17.8075V22.9112L2.68646 13.356L12.2422 3.80071V8.90438C12.2422 9.51842 12.7395 10.0173 13.3551 10.0173H25.597C28.5156 10.0173 31.2055 11.2606 33.1101 13.4315C31.8825 15.3388 31.1614 17.6016 31.1614 20.0333V24.4849C30.3909 24.4849 29.6486 24.593 28.9357 24.7778V22.2591C28.9357 19.191 26.4393 16.6946 23.3712 16.6946ZM24.4841 44.517C23.2565 44.517 22.2583 43.5188 22.2583 42.2912C22.2583 41.0637 23.2565 40.0654 24.4841 40.0654V43.4041C24.4841 43.7801 24.5085 44.1507 24.5493 44.517H24.4841ZM36.6357 53.4202L34.5001 56.0899L32.364 53.4202H36.6357ZM50.0807 63.4362V66.7749H18.9196V63.4362C18.9196 57.913 23.4119 53.4202 28.9357 53.4202H29.5128L33.6307 58.5673C33.8421 58.8308 34.1616 58.9846 34.5001 58.9846C34.8381 58.9846 35.1576 58.8308 35.369 58.5673L39.487 53.4202H40.0646C45.5878 53.4202 50.0807 57.913 50.0807 63.4362ZM34.5001 51.1944C30.2051 51.1944 26.7099 47.6986 26.7099 43.4041V40.0654H30.0486C32.4118 40.0654 34.53 39.0025 35.9597 37.3343C36.6346 38.9368 38.2192 40.0654 40.0646 40.0654H42.2904V43.4041C42.2904 47.6986 38.7947 51.1944 34.5001 51.1944ZM44.5162 44.517H44.4504C44.4912 44.1507 44.5162 43.7801 44.5162 43.4041V40.0654C45.7432 40.0654 46.742 41.0637 46.742 42.2912C46.742 43.5188 45.7432 44.517 44.5162 44.517ZM44.5162 33.3881V37.8396H40.0646C38.8371 37.8396 37.8388 36.8414 37.8388 35.6138V31.1623H35.613V32.2752C35.613 35.3432 33.1166 37.8396 30.0486 37.8396H24.4841V33.3881C24.4841 29.7054 27.4788 26.7107 31.1614 26.7107H37.8388C41.5209 26.7107 44.5162 29.7054 44.5162 33.3881ZM56.758 22.9112V17.8075C56.758 17.1929 56.2603 16.6946 55.6451 16.6946H45.6291C42.5605 16.6946 40.0646 19.191 40.0646 22.2591V24.7778C39.3511 24.593 38.6088 24.4849 37.8388 24.4849H33.3872V20.0333C33.3872 14.5112 37.8796 10.0173 43.4033 10.0173H55.6451C56.2603 10.0173 56.758 9.51842 56.758 8.90438V3.80071L66.3133 13.356L56.758 22.9112Z" fill="#212121"/>
<path d="M52.3055 31.1621C50.4644 31.1621 48.9668 32.6603 48.9668 34.5008C48.9668 36.3413 50.4644 37.8395 52.3055 37.8395C54.146 37.8395 55.6442 36.3413 55.6442 34.5008C55.6442 32.6603 54.146 31.1621 52.3055 31.1621ZM52.3055 35.6137C51.6909 35.6137 51.1926 35.1138 51.1926 34.5008C51.1926 33.8873 51.6909 33.3879 52.3055 33.3879C52.9196 33.3879 53.4184 33.8873 53.4184 34.5008C53.4184 35.1138 52.9196 35.6137 52.3055 35.6137Z" fill="#212121"/>
<path d="M62.3247 26.71C59.8695 26.71 57.873 28.7064 57.873 31.1616C57.873 33.6167 59.8695 35.6132 62.3247 35.6132C64.7792 35.6132 66.7763 33.6167 66.7763 31.1616C66.7763 28.7064 64.7792 26.71 62.3247 26.71ZM62.3247 33.3874C61.0971 33.3874 60.0989 32.3891 60.0989 31.1616C60.0989 29.934 61.0971 28.9358 62.3247 28.9358C63.5517 28.9358 64.5505 29.934 64.5505 31.1616C64.5505 32.3891 63.5517 33.3874 62.3247 33.3874Z" fill="#212121"/>
<path d="M20.0348 34.5008C20.0348 32.6603 18.5367 31.1621 16.6961 31.1621C14.8551 31.1621 13.3574 32.6603 13.3574 34.5008C13.3574 36.3413 14.8551 37.8395 16.6961 37.8395C18.5367 37.8395 20.0348 36.3413 20.0348 34.5008ZM15.5832 34.5008C15.5832 33.8873 16.0815 33.3879 16.6961 33.3879C17.3102 33.3879 17.809 33.8873 17.809 34.5008C17.809 35.1138 17.3102 35.6137 16.6961 35.6137C16.0815 35.6137 15.5832 35.1138 15.5832 34.5008Z" fill="#212121"/>
<path d="M6.67817 26.71C4.22305 26.71 2.22656 28.7064 2.22656 31.1616C2.22656 33.6167 4.22305 35.6132 6.67817 35.6132C9.13276 35.6132 11.1298 33.6167 11.1298 31.1616C11.1298 28.7064 9.13276 26.71 6.67817 26.71ZM6.67817 33.3874C5.45061 33.3874 4.45237 32.3891 4.45237 31.1616C4.45237 29.934 5.45061 28.9358 6.67817 28.9358C7.90519 28.9358 8.90398 29.934 8.90398 31.1616C8.90398 32.3891 7.90519 33.3874 6.67817 33.3874Z" fill="#212121"/>
</g>
<defs>
<clipPath id="clip0">
<rect width="69" height="69" fill="white"/>
</clipPath>
</defs>
</svg>
