<svg width="24" height="24" viewBox="0 0 24 24" fill="none" xmlns="http://www.w3.org/2000/svg">
<path d="M21.082 11.4692L23.0427 6.76364C23.1938 6.40116 23.1539 5.98964 22.936 5.66288C22.7182 5.33616 22.3537 5.14106 21.9609 5.14106H18.1641V3.03169C18.1641 2.12705 17.4281 1.39106 16.5234 1.39106H4.95984C4.66537 0.580547 3.88753 0 2.97656 0C1.81345 0 0.867188 0.946266 0.867188 2.10938V21.8906C0.867188 23.0537 1.81345 24 2.97656 24C4.13967 24 5.08594 23.0537 5.08594 21.8906V14.0473H12.5859V16.1567C12.5859 17.0613 13.3219 17.7973 14.2266 17.7973H21.9609C22.3536 17.7973 22.7182 17.6022 22.936 17.2755C23.1538 16.9487 23.1938 16.5372 23.0427 16.1747L21.082 11.4692ZM5.08594 2.79731H16.5234C16.6527 2.79731 16.7578 2.90245 16.7578 3.03169V12.4067C16.7578 12.5359 16.6527 12.6411 16.5234 12.6411H5.08594V2.79731ZM19.6713 11.7396L21.6094 16.3911H15.0556C15.0556 16.3911 17.7487 13.5812 17.9107 13.2808C18.0531 13.0171 18.1641 12.7279 18.1641 12.4067V6.54731H21.6094L19.6713 11.1988C19.5991 11.3718 19.5991 11.5665 19.6713 11.7396ZM15.3195 14.0473L13.9922 15.4695V14.0473H15.3195ZM3.67969 21.8906C3.67969 22.2783 3.36427 22.5938 2.97656 22.5938C2.58886 22.5938 2.27344 22.2783 2.27344 21.8906V2.10938C2.27344 1.72167 2.58886 1.40625 2.97656 1.40625C3.36427 1.40625 3.67969 1.72167 3.67969 2.10938V21.8906Z" fill="#212121"/>
<path d="M13.505 6.53429C13.7796 6.2597 13.7796 5.81452 13.505 5.53993C13.2304 5.26534 12.7852 5.26534 12.5106 5.53993L9.64502 8.40549L8.81749 7.57796C8.54295 7.30337 8.09773 7.30337 7.82313 7.57796C7.54854 7.85255 7.54854 8.29773 7.82313 8.57232L9.14787 9.89705C9.28516 10.0344 9.46512 10.103 9.64502 10.103C9.82493 10.103 10.0049 10.0344 10.1422 9.89705L13.505 6.53429Z" fill="#00C8D2"/>
</svg>
