<svg width="71" height="71" viewBox="0 0 71 71" fill="none" xmlns="http://www.w3.org/2000/svg">
<g clip-path="url(#clip0)">
<path d="M5.91667 71.0009H59.1667C59.8202 71.0009 60.35 70.4711 60.35 69.8176V39.0509H57.9833V68.6342H5.91667C3.95619 68.6342 2.36667 67.0447 2.36667 65.0842C2.36667 63.1238 3.95619 61.5342 5.91667 61.5342H8.28333C8.93682 61.5342 9.46667 61.0044 9.46667 60.3509V24.8509H28.4V22.4842H9.46667V14.2009C9.46667 13.5474 8.93682 13.0176 8.28333 13.0176H5.91667C2.65037 13.0216 0.0040446 15.6679 0 18.9342V65.0842C0.0040446 68.3505 2.65037 70.9969 5.91667 71.0009ZM2.36667 23.6676V18.9342C2.36667 16.9738 3.95619 15.3842 5.91667 15.3842H7.1V59.1676H5.91667C4.63626 59.1658 3.38995 59.5813 2.36667 60.3509V23.6676Z" fill="#212121"/>
<path d="M27.2193 28.4004H13.0193C12.3658 28.4004 11.8359 28.9302 11.8359 29.5837V39.0504C11.8359 39.7039 12.3658 40.2337 13.0193 40.2337H27.2193C27.8728 40.2337 28.4026 39.7039 28.4026 39.0504V35.5004H33.1359V33.1337H28.4026V29.5837C28.4026 28.9302 27.8728 28.4004 27.2193 28.4004ZM26.0359 37.8671H14.2026V30.7671H26.0359V37.8671Z" fill="#212121"/>
<path d="M39.0526 61.5329H53.2526C53.9061 61.5329 54.4359 61.0031 54.4359 60.3496V50.8829C54.4359 50.2295 53.9061 49.6996 53.2526 49.6996H47.3359V42.5996H44.9693V49.6996H39.0526C38.3991 49.6996 37.8693 50.2295 37.8693 50.8829V54.4329H28.4026V50.8829C28.4026 50.2295 27.8728 49.6996 27.2193 49.6996H13.0193C12.3658 49.6996 11.8359 50.2295 11.8359 50.8829V60.3496C11.8359 61.0031 12.3658 61.5329 13.0193 61.5329H27.2193C27.8728 61.5329 28.4026 61.0031 28.4026 60.3496V56.7996H37.8693V60.3496C37.8693 61.0031 38.3991 61.5329 39.0526 61.5329ZM40.2359 52.0663H52.0693V59.1663H40.2359V52.0663ZM26.0359 59.1663H14.2026V52.0663H26.0359V59.1663Z" fill="#212121"/>
<path d="M50.8844 9.4668C45.0024 9.4668 40.2344 14.2348 40.2344 20.1168C40.2344 25.9988 45.0024 30.7668 50.8844 30.7668C56.7664 30.7668 61.5344 25.9988 61.5344 20.1168C61.528 14.2377 56.7635 9.47315 50.8844 9.4668ZM50.8844 28.4001C46.3094 28.4001 42.601 24.6918 42.601 20.1168C42.601 15.5418 46.3094 11.8335 50.8844 11.8335C55.4594 11.8335 59.1677 15.5418 59.1677 20.1168C59.1625 24.6895 55.4571 28.3949 50.8844 28.4001Z" fill="#212121"/>
<path d="M69.8156 24.85C70.4691 24.85 70.999 24.3202 70.999 23.6667V16.5667C70.999 15.9132 70.4691 15.3833 69.8156 15.3833H65.5047C65.2522 14.6068 64.939 13.851 64.5686 13.123L67.6217 10.0809C67.8442 9.85899 67.9696 9.55738 67.9696 9.24306C67.9696 8.92873 67.8442 8.62712 67.6217 8.40525L62.5972 3.37608C62.3753 3.15421 62.0743 3.0294 61.7605 3.0294C61.4468 3.02998 61.1457 3.15479 60.9239 3.37724L57.876 6.43033C57.1479 6.05996 56.3922 5.74737 55.6156 5.4943V1.18333C55.6156 0.529842 55.0858 0 54.4323 0H47.3323C46.6788 0 46.149 0.529842 46.149 1.18333V5.4943C45.3724 5.74737 44.6166 6.05996 43.8886 6.43033L40.8453 3.37724C40.6235 3.15479 40.3224 3.02998 40.0087 3.0294C39.6949 3.0294 39.3939 3.15421 39.172 3.37608L34.1417 8.40178C33.9193 8.62366 33.7939 8.92527 33.7939 9.23959C33.7939 9.55391 33.9193 9.85553 34.1417 10.0774L37.1948 13.1195C36.8244 13.8487 36.5118 14.6056 36.2599 15.3833H31.949C31.2955 15.3833 30.7656 15.9132 30.7656 16.5667V23.6667C30.7656 24.3202 31.2955 24.85 31.949 24.85H36.2599C36.5124 25.6266 36.8256 26.3823 37.196 27.1103L34.1429 30.1525C33.9198 30.3743 33.7944 30.6765 33.7944 30.9909C33.7944 31.3058 33.9198 31.6074 34.1429 31.8292L39.1674 36.8457C39.6296 37.3074 40.3785 37.3074 40.8407 36.8457L43.884 33.803C44.6137 34.1734 45.3712 34.486 46.149 34.739V39.05C46.149 39.7035 46.6788 40.2333 47.3323 40.2333H54.4323C55.0858 40.2333 55.6156 39.7035 55.6156 39.05V34.739C56.3928 34.486 57.1485 34.1734 57.8771 33.803L60.9204 36.8457C61.3826 37.3068 62.1303 37.3068 62.5926 36.8457L67.6217 31.8281C67.8447 31.6062 67.9701 31.3046 67.9701 30.9897C67.9701 30.6748 67.8447 30.3732 67.6217 30.1513L64.5686 27.1092C64.939 26.3817 65.2522 25.626 65.5047 24.85H69.8156ZM63.4777 23.3651C63.1663 24.5432 62.6977 25.6739 62.0835 26.7267C61.8125 27.1918 61.8894 27.7812 62.2707 28.1608L65.1106 30.9914L61.7582 34.3369L58.9287 31.5039C58.5491 31.1237 57.9603 31.0475 57.4958 31.3179C56.4436 31.9321 55.3123 32.4007 54.1341 32.711C53.613 32.8467 53.2495 33.3171 53.249 33.855V37.8667H48.5156V33.855C48.5156 33.3176 48.1533 32.8479 47.6339 32.711C46.4558 32.4007 45.3244 31.9321 44.2723 31.3179C43.8077 31.0475 43.2189 31.1237 42.8393 31.5039L40.0075 34.3357L36.6551 30.9914L39.495 28.1608C39.8764 27.7812 39.9532 27.1918 39.6822 26.7267C39.068 25.6739 38.5994 24.5432 38.288 23.3651C38.1511 22.8456 37.6813 22.4833 37.144 22.4833H33.1323V17.75H37.144C37.6807 17.7494 38.1499 17.3877 38.2868 16.8683C38.5983 15.6901 39.0669 14.5594 39.6811 13.5066C39.9521 13.0415 39.8752 12.4522 39.4939 12.0725L36.654 9.24075L40.0075 5.8872L42.8393 8.72708C43.2189 9.10843 43.8083 9.18528 44.2734 8.91429C45.3256 8.30009 46.4569 7.83149 47.6351 7.52122C48.1539 7.3837 48.515 6.91453 48.5156 6.37833V2.36667H53.249V6.37833C53.249 6.91568 53.6112 7.38543 54.1307 7.52237C55.3088 7.83265 56.4401 8.30124 57.4923 8.91545C57.958 9.18759 58.5485 9.11074 58.9287 8.72824L61.7605 5.88835L65.1141 9.2419L62.2742 12.0737C61.8928 12.4533 61.816 13.0427 62.0876 13.5078C62.7012 14.5605 63.1698 15.6913 63.4812 16.8694C63.6181 17.3871 64.0856 17.7483 64.6206 17.75H68.6323V22.4833H64.6206C64.0839 22.4839 63.6147 22.8456 63.4777 23.3651Z" fill="#212121"/>
<path d="M50.8818 15.3828C48.2678 15.3828 46.1484 17.5022 46.1484 20.1161C46.1484 22.7301 48.2678 24.8495 50.8818 24.8495C53.4957 24.8495 55.6151 22.7301 55.6151 20.1161C55.6151 17.5022 53.4957 15.3828 50.8818 15.3828ZM50.8818 22.4828C49.5748 22.4828 48.5151 21.4231 48.5151 20.1161C48.5151 18.8092 49.5748 17.7495 50.8818 17.7495C52.1888 17.7495 53.2484 18.8092 53.2484 20.1161C53.2484 21.4231 52.1888 22.4828 50.8818 22.4828Z" fill="#212121"/>
</g>
<defs>
<clipPath id="clip0">
<rect width="71" height="71" fill="white"/>
</clipPath>
</defs>
</svg>
