<svg width="110" height="110" viewBox="0 0 110 110" fill="none" xmlns="http://www.w3.org/2000/svg">
<g clip-path="url(#clip0)">
<rect x="76.2344" y="10.0059" width="17.4507" height="13" transform="rotate(-7.29625 76.2344 10.0059)" fill="#00C8D2"/>
<rect x="41" y="15.2168" width="17.4507" height="13" transform="rotate(-7.29625 41 15.2168)" fill="#00C8D2"/>
<rect x="25" y="28.2168" width="17.4507" height="13" transform="rotate(-7.29625 25 28.2168)" fill="#00C8D2"/>
<rect x="59" y="23.2168" width="17.4507" height="13" transform="rotate(-7.29625 59 23.2168)" fill="#00C8D2"/>
<circle cx="70" cy="75" r="30" fill="#F4FBFB"/>
<rect x="77.2441" y="45.123" width="20.9296" height="9.85487" transform="rotate(-19.8397 77.2441 45.123)" fill="white"/>
<path d="M44 43.2168L61.3094 41.0006L63 48.5005L45.651 56.1115L44 43.2168Z" fill="#00C8D2"/>
<rect x="81" y="37.2168" width="17.4507" height="13.8843" transform="rotate(-7.29625 81 37.2168)" fill="#00C8D2"/>
<path d="M69.7556 83.3082C70.4784 83.6177 71.2406 83.7726 72.0038 83.7726C72.7237 83.7726 73.4445 83.6347 74.1329 83.3582C75.55 82.7893 76.662 81.702 77.264 80.2969C77.8669 78.8897 77.8855 77.3333 77.3169 75.9143C77.3164 75.9132 77.316 75.9122 77.3156 75.9111C77.0891 75.3495 76.381 74.4226 74.0633 71.5263C73.2748 70.5411 72.4592 69.5221 72.1602 69.098L68.4674 63.8871C68.4002 63.7922 68.3226 63.7045 68.2365 63.6261C67.6182 63.0623 66.7818 62.8969 66.053 63.1945C65.3208 63.4933 64.8359 64.1976 64.7878 65.0318C64.7816 65.1416 64.7863 65.2516 64.802 65.3603L65.7232 71.6735C65.7961 72.1788 65.9018 73.3916 66.0139 74.6755C66.3413 78.4282 66.4705 79.604 66.6956 80.1699C67.2637 81.5918 68.3504 82.7062 69.7556 83.3082ZM69.5133 70.9738C69.8669 71.475 70.6389 72.4394 71.5324 73.5562C72.4728 74.7312 74.033 76.6809 74.3284 77.1778C74.5522 77.7757 74.5368 78.4269 74.2837 79.0175C74.0224 79.627 73.5403 80.0986 72.9257 80.3455C72.3119 80.5919 71.6394 80.5839 71.0314 80.324C70.4404 80.0709 69.9793 79.6079 69.7288 79.0192C69.5982 78.4492 69.3773 75.9186 69.2443 74.3936C69.1231 73.0053 69.0185 71.8063 68.9326 71.2081L68.739 69.8815L69.5133 70.9738Z" fill="#212121"/>
<path d="M92.8094 52.9141C95.1679 52.386 97.3796 51.3927 99.3989 49.9535L99.548 49.8474C100.962 48.8389 101.355 48.2502 101.061 46.5319C101.031 46.3566 100.994 46.1445 100.96 45.8891L99.2085 33.4473L97.2173 19.3045V19.2938L95.3927 6.32626C95.3819 6.25257 95.3731 6.18554 95.3645 6.12065C95.2953 5.58827 95.1677 4.59934 94.1689 4.17288C93.1183 3.72493 92.193 4.41307 91.7519 4.73985C89.6894 6.25686 87.3915 7.20261 84.9182 7.54893C82.125 7.94274 79.2497 7.52509 76.61 6.34345C73.4081 4.90657 69.9189 4.40212 66.5248 4.88487C63.135 5.35452 59.9181 6.80235 57.2244 9.07024C55.0106 10.94 52.3644 12.1369 49.5691 12.5286C46.7866 12.9245 43.9135 12.5069 41.2609 11.3209C38.0504 9.886 34.5633 9.38198 31.1757 9.86452C30.512 9.95755 29.3899 10.1546 28.1599 10.3991C28.1425 10.1155 28.1167 9.83208 28.0757 9.54848C27.2262 3.49333 21.6117 -0.741886 15.5585 0.10868C12.6226 0.522039 10.026 2.05194 8.24474 4.42167C6.46541 6.7871 5.71324 9.70661 6.12617 12.639C6.5391 15.5757 8.06749 18.1749 10.4349 19.9581C10.8046 20.2367 11.1883 20.4898 11.583 20.7176L14.4952 41.2953L16.3568 54.5516C16.4707 55.3626 17.1651 55.9489 17.9604 55.9489C18.0356 55.9489 18.1117 55.9436 18.1881 55.9328C19.075 55.8082 19.6927 54.9873 19.5681 54.0996L17.7062 40.8416L15.0396 21.9978C15.7063 22.1233 16.3858 22.189 17.072 22.189C17.593 22.189 18.1205 22.1523 18.646 22.0786C19.8669 21.9065 21.0279 21.537 22.0994 20.9988L33.5078 102.139C33.6395 103.078 33.3954 104.016 32.8203 104.781C32.2454 105.545 31.4124 106.038 30.4751 106.17C28.5264 106.442 26.7204 105.082 26.4467 103.135L21.7309 69.5039L20.6934 61.5196C20.5778 60.6308 19.7644 60.0026 18.8765 60.1195C17.9883 60.2351 17.3623 61.0495 17.4777 61.9386L18.5175 69.9391L23.2357 103.587C23.7135 106.987 26.6367 109.452 29.9745 109.452C30.2886 109.452 30.6063 109.43 30.926 109.385C32.7219 109.133 34.3145 108.191 35.4111 106.733C36.507 105.277 36.9715 103.485 36.7195 101.688L33.9115 81.6067L30.6426 58.3999C32.7111 56.8485 35.0974 55.8484 37.5995 55.4973C40.3798 55.1035 43.2529 55.5212 45.9099 56.705C46.0332 56.7613 46.1584 56.8154 46.2839 56.8672C41.6942 62.481 38.9378 69.6508 38.9378 77.4526C38.9378 78.3509 39.662 79.0758 40.5592 79.0758C41.4542 79.0758 42.1806 78.3509 42.1806 77.4526C42.1806 69.9625 45.0041 63.1174 49.6434 57.9298C50.5556 56.9084 51.5394 55.9496 52.5878 55.0644C55.3832 52.699 58.626 50.8488 62.1694 49.6583C65.1599 48.6563 68.3082 48.1477 71.4612 48.1477C77.6335 48.1477 83.3668 50.0695 88.0949 53.344C95.7306 58.6396 100.742 67.4716 100.742 77.4526C100.742 93.6102 87.6061 106.753 71.4612 106.753C58.0661 106.753 46.3984 97.6939 43.0864 84.724C42.866 83.8563 41.9817 83.3303 41.1148 83.5534C40.2479 83.7764 39.7247 84.6591 39.9452 85.5271C43.622 99.9367 56.5824 110 71.4608 110C89.3936 110 103.984 95.4007 103.984 77.4533C103.984 67.6734 99.6517 58.8871 92.8094 52.9141ZM23.3672 15.814C21.4209 18.4007 17.9664 19.5475 14.8587 18.6173C13.9757 18.353 13.1215 17.9188 12.3848 17.3634C10.7116 16.1019 9.63048 14.2643 9.33873 12.1846C9.0446 10.1114 9.57656 8.04673 10.8347 6.37395C12.0952 4.69882 13.9327 3.61472 16.0081 3.32468C16.3779 3.27268 16.7431 3.24669 17.1043 3.24669C20.9502 3.24669 24.3163 6.08606 24.8655 10.0009C25.1572 12.0763 24.6277 14.1388 23.3672 15.814ZM85.3704 10.7649C87.8327 10.4186 90.2283 9.54655 92.3836 8.22204L93.8688 18.781C91.7977 20.3392 89.4088 21.3391 86.9053 21.6852C84.3974 22.0423 81.8249 21.7415 79.41 20.8153L77.9248 10.2585C80.3568 10.9359 82.8864 11.1134 85.3704 10.7649ZM66.977 8.10087C69.4849 7.7438 72.0553 8.04458 74.4701 8.97077L75.9532 19.5297C73.5212 18.8501 70.9894 18.6727 68.5054 19.0212C66.0278 19.3696 63.6454 20.2395 61.4923 21.5683L60.0049 11.0051C62.0781 9.44901 64.4691 8.4472 66.977 8.10087ZM50.0233 15.7424C52.5051 15.394 54.8897 14.5241 57.0386 13.1995L58.5238 23.7606C56.4591 25.3167 54.0703 26.3188 51.5624 26.6692C49.0524 27.0241 46.4777 26.719 44.0672 25.7993L42.5798 15.2382C45.0163 15.9177 47.548 16.0952 50.0233 15.7424ZM25.0838 18.7939C25.0988 18.7786 25.1098 18.7636 25.1227 18.7485C25.4168 18.4389 25.6978 18.1122 25.9593 17.766C26.8672 16.5563 27.5072 15.2015 27.8617 13.7753C29.3708 13.455 30.8474 13.1888 31.6298 13.0784C34.1311 12.7234 36.7038 13.0264 39.1251 13.9506L40.6103 24.5096C38.1783 23.83 35.6487 23.6547 33.169 24.0075C30.6936 24.3495 28.3154 25.213 26.1666 26.5353L25.0838 18.7939ZM26.6685 30.1146C28.7331 28.565 31.1177 27.5674 33.621 27.2211C36.1289 26.864 38.6993 27.167 41.1141 28.091L42.5993 38.6499C40.1695 37.9725 37.6399 37.7951 35.1559 38.1435C32.6783 38.4899 30.298 39.3576 28.147 40.6821L26.6685 30.1146ZM39.6549 52.1067C38.8162 52.1067 37.9772 52.1651 37.147 52.2841C34.6692 52.632 32.2883 53.4978 30.1378 54.8208L28.6502 44.2601C30.7187 42.7092 33.1047 41.7076 35.6077 41.3572C38.1177 41.0044 40.6924 41.3073 43.1029 42.2294L44.5903 52.7905C42.9712 52.3383 41.3109 52.1067 39.6549 52.1067ZM46.0562 39.9356L44.571 29.3788C47.0008 30.0562 49.5304 30.2336 52.0123 29.8852C54.4963 29.5367 56.8787 28.6668 59.0297 27.3423L60.5149 37.9012C58.4481 39.4595 56.0593 40.4591 53.5493 40.8076C51.0416 41.1625 48.4689 40.8617 46.0562 39.9356ZM48.6332 54.286C48.4364 54.2212 48.2398 54.1496 48.0452 54.0761L46.56 43.5172C48.992 44.1989 51.5216 44.3742 53.9992 44.0215C56.481 43.6775 58.8656 42.8095 61.0187 41.4829L61.7105 46.3955C56.7318 47.9645 52.263 50.7044 48.6332 54.286ZM61.9959 25.1479C64.0648 23.5917 66.4536 22.5876 68.9572 22.2372C71.4672 21.8844 74.0419 22.1873 76.4568 23.1071L77.942 33.6703C75.5033 32.9886 72.9718 32.8111 70.4964 33.1639C68.0166 33.5124 65.6342 34.3823 63.4811 35.7089L61.9959 25.1479ZM71.4608 44.9023C69.2039 44.9023 66.9987 45.1339 64.8692 45.5754L63.9849 39.2908C66.056 37.7325 68.4448 36.7305 70.9505 36.378C73.4518 36.023 76.0245 36.326 78.4458 37.25L79.6672 45.952C77.0448 45.268 74.295 44.9023 71.4608 44.9023ZM79.9136 24.397C82.3456 25.0765 84.8752 25.254 87.3549 24.9012C89.8325 24.557 92.2171 23.6893 94.3724 22.3605L95.8597 32.9216C93.7801 34.482 91.3888 35.4818 88.8898 35.828C86.3907 36.1829 83.818 35.8821 81.3967 34.9581L79.9136 24.397ZM90.8788 49.9707C90.2886 50.0551 89.6942 50.1026 89.0952 50.1136C87.2187 48.8973 85.2123 47.8693 83.098 47.0578L81.9003 38.5376C84.3368 39.2171 86.8662 39.3946 89.3394 39.0418C91.8149 38.6998 94.2016 37.832 96.3635 36.5011L97.7471 46.3437C97.7882 46.6273 97.8271 46.8632 97.8617 47.0621C97.7968 47.1098 97.7297 47.1573 97.6649 47.2029L97.5158 47.309C95.5096 48.7392 93.2786 49.6332 90.8788 49.9707Z" fill="#212121"/>
<path d="M71.4607 101.925C84.9451 101.925 95.9155 90.9479 95.9155 77.455C95.9155 63.9588 84.9451 52.9785 71.4607 52.9785C57.9762 52.9785 47.0059 63.9585 47.0059 77.455C47.0059 90.9479 57.9762 101.925 71.4607 101.925ZM71.4607 98.6788C60.3101 98.6788 51.1414 90.0255 50.3102 79.0779H51.6119C52.5074 79.0779 53.2333 78.3513 53.2333 77.4548C53.2333 76.5583 52.5074 75.8317 51.6119 75.8317H50.3102C50.6408 71.4748 52.2921 67.482 54.8618 64.252L55.7251 65.1187C56.0418 65.4367 56.4573 65.5956 56.8732 65.5956C57.2874 65.5956 57.7016 65.4377 58.0181 65.1219C58.6521 64.489 58.6536 63.4612 58.0213 62.8265L57.0706 61.8722C60.4828 58.7136 64.9298 56.6592 69.8392 56.286V57.5826C69.8392 58.4792 70.5652 59.2058 71.4607 59.2058C72.3561 59.2058 73.0821 58.4792 73.0821 57.5826V56.286C77.9908 56.659 82.437 58.7127 85.849 61.8705L84.8955 62.8248C84.2623 63.4586 84.2621 64.4864 84.8955 65.1202C85.2122 65.4373 85.627 65.5956 86.0421 65.5956C86.4572 65.5956 86.8721 65.4371 87.1885 65.1204L88.058 64.2503C90.6288 67.4805 92.2805 71.474 92.6112 75.8319H91.3094C90.414 75.8319 89.688 76.5585 89.688 77.455C89.688 78.3516 90.414 79.0782 91.3094 79.0782H92.6112C91.7797 90.0255 82.6113 98.6788 71.4607 98.6788Z" fill="#212121"/>
<path d="M76.1778 88.2559H68.4203C67.5248 88.2559 66.7988 88.9825 66.7988 89.879C66.7988 90.7755 67.5248 91.5022 68.4203 91.5022H76.1778C77.0733 91.5022 77.7993 90.7755 77.7993 89.879C77.7993 88.9825 77.0733 88.2559 76.1778 88.2559Z" fill="#212121"/>
</g>
<defs>
<clipPath id="clip0">
<rect width="110" height="110" fill="white"/>
</clipPath>
</defs>
</svg>
