<svg width="98" height="99" viewBox="0 0 98 99" fill="none" xmlns="http://www.w3.org/2000/svg">
<g clip-path="url(#clip0)">
<path d="M15 68.5L20.5 57.5L24.5 61.5L19 67.5L16.5 69.5L15 68.5Z" fill="white"/>
<path d="M34.9997 39.5005L64.4992 60.5006L45.0498 73.6881L25.0001 53.0615L34.9997 39.5005Z" fill="#F4FBFB"/>
<path d="M23 74.25L28.7895 66L33 69L27.2105 73.5L24.5789 75L23 74.25Z" fill="white"/>
<path d="M64 79.5C66 74.7 63.8333 65.1667 62.5 61L49 70C50.3333 72.5 53 77.7 53 78.5V87C53 89 55 88.8333 56 88.5C57.8333 87.5 62 84.3 64 79.5Z" fill="#F4FBFB"/>
<circle cx="60.5" cy="38.5" r="13.5" fill="#00C8D2"/>
<path d="M94.4867 3.8234C92.1999 1.37942 88.8196 0.27871 85.5319 0.908841C74.6521 3.35523 59.2042 8.75325 47.4324 20.5275C43.0601 24.9296 38.9739 29.6072 35.1988 34.5314C30.1803 31.2333 23.854 30.6346 18.3061 32.9335C12.7582 35.2324 8.70912 40.1301 7.49398 46.0108C7.3707 46.6191 7.59793 47.2452 8.08302 47.632C8.56891 48.018 9.22966 48.0994 9.79452 47.8431C14.921 45.5603 20.8935 46.3476 25.2529 49.881C24.6042 51.1783 24.0152 52.4305 23.5567 53.5788C23.3101 54.192 23.4527 54.8922 23.9193 55.3596L42.9401 74.3803C43.4034 74.8437 44.0964 74.9895 44.7064 74.7518C45.8611 74.303 47.1221 73.7107 48.4775 73.0306C52.2736 77.4061 53.1873 83.5865 50.8207 88.8734C50.5887 89.3842 50.6322 89.9773 50.936 90.4487C51.2397 90.9201 51.7619 91.2045 52.3219 91.2053C52.4331 91.2061 52.5435 91.1949 52.6523 91.1723C56.1204 90.4672 59.3025 88.7517 61.7981 86.2424C67.9801 80.0096 68.8431 70.2563 63.8512 63.0348C68.7488 59.2846 73.3991 55.2218 77.7745 50.8729C89.5472 39.0995 94.9452 23.6564 97.4029 12.775C98.033 9.48813 96.9323 6.10783 94.4867 3.8234ZM15.8613 43.2388C14.4456 43.2396 13.0354 43.4056 11.6583 43.7336C13.4013 39.7739 16.784 36.7707 20.9225 35.5104C25.0611 34.2494 29.5437 34.8553 33.1988 37.1704C32.8378 37.6651 32.4962 38.1607 32.1481 38.6555C31.9829 38.8932 31.8048 39.1325 31.6396 39.3686C30.945 40.3686 30.2794 41.3589 29.6412 42.3387C29.5155 42.5289 29.4035 42.7134 29.2827 42.9036C28.7782 43.6893 28.2964 44.4628 27.8371 45.2251C27.659 45.5208 27.4873 45.8125 27.3157 46.105C27.1626 46.3677 26.9853 46.636 26.8467 46.8955C23.6767 44.5216 19.8218 43.238 15.8613 43.2388ZM59.4629 83.904C58.1591 85.2094 56.6233 86.2586 54.9327 86.9967C56.2212 81.5511 54.9496 75.8147 51.4807 71.4231C51.7393 71.2748 52.0085 71.1064 52.2712 70.9517C52.5629 70.7865 52.8537 70.6084 53.1487 70.4295C53.9045 69.9743 54.67 69.4972 55.4444 68.9976C55.6507 68.8639 55.8521 68.7414 56.06 68.6044C57.0302 67.9711 58.0108 67.3063 59.0028 66.6109C59.2501 66.4465 59.4975 66.2547 59.7497 66.0766C60.2453 65.7285 60.7288 65.3853 61.2219 65.0235C65.2251 70.9283 64.4878 78.8412 59.4629 83.904ZM75.4394 48.5345C70.7827 53.1718 65.8061 57.4764 60.5475 61.4175C59.151 62.4707 57.7651 63.4546 56.3904 64.4014C54.5749 65.656 52.7764 66.8292 51.0528 67.8574C50.0464 68.4578 49.0633 69.0121 48.1108 69.5254C46.7901 70.2257 45.596 70.7994 44.4969 71.27L27.0369 53.8084C27.5317 52.6843 28.1062 51.4813 28.771 50.221C31.1505 45.8859 33.8475 41.7328 36.8394 37.7957L36.8757 37.7481L36.9022 37.7119C40.8418 32.471 45.1383 27.5089 49.7611 22.8595C56.3001 16.5203 64.0607 11.5776 72.5707 8.33182L89.9678 25.7225C86.7229 34.2333 81.7793 41.9947 75.4394 48.5345ZM94.1894 12.0433C93.4037 15.5235 92.4207 18.9562 91.245 22.3244L75.9752 7.06269C79.3442 5.88784 82.7777 4.90558 86.2579 4.12074C88.4392 3.76055 90.6552 4.52283 92.1531 6.14892C93.7816 7.64528 94.5471 9.86121 94.1894 12.0433Z" fill="#212121"/>
<path d="M49.768 27.5297C43.9679 33.3298 43.9679 42.7334 49.768 48.5336C55.5682 54.3345 64.9726 54.3345 70.7727 48.5336C76.5728 42.7334 76.5728 33.3298 70.7727 27.5297C64.9677 21.7401 55.573 21.7401 49.768 27.5297ZM68.4472 46.2008C64.5503 50.0968 58.4432 50.6971 53.8615 47.6351C49.2789 44.5731 47.4989 38.7004 49.6085 33.6094C51.7181 28.5176 57.1298 25.6256 62.5351 26.7014C67.9403 27.7771 71.8323 32.5208 71.8323 38.0316C71.8307 41.0953 70.6131 44.0332 68.4472 46.2008Z" fill="#212121"/>
<path d="M60.4947 44.6293C59.606 44.6623 58.7196 44.514 57.8904 44.1917C57.3368 43.9629 56.7019 44.0515 56.2329 44.4246C55.7631 44.7977 55.5335 45.3956 55.6318 45.987C55.7301 46.5785 56.141 47.07 56.7059 47.2715C57.8413 47.709 59.0483 47.933 60.2651 47.9314H60.6051C61.5165 47.9008 62.2304 47.1377 62.1998 46.2271C62.1482 45.3247 61.398 44.622 60.4947 44.6293Z" fill="#F4FBFB"/>
<path d="M64.9373 31.0323C64.2934 31.6761 64.2934 32.7212 64.9373 33.3651C67.5142 35.9428 67.5142 40.1217 64.9373 42.6994C64.5086 43.1136 64.3361 43.7276 64.4876 44.3045C64.6383 44.8815 65.0887 45.3319 65.6657 45.4826C66.2426 45.6341 66.8567 45.4617 67.2708 45.033C71.1362 41.166 71.1362 34.8985 67.2708 31.0323C66.6262 30.3877 65.5819 30.3877 64.9373 31.0323Z" fill="#F4FBFB"/>
<path d="M34.5976 52.0355C33.9497 51.4102 32.9207 51.419 32.2841 52.0556C31.6475 52.6922 31.6387 53.722 32.264 54.369L43.9327 66.0369C44.5805 66.6622 45.6095 66.6534 46.2461 66.0168C46.8827 65.3802 46.8916 64.3504 46.2663 63.7034L34.5976 52.0355Z" fill="#212121"/>
<path d="M80.3076 24.9947L73.3077 17.994C72.8959 17.5548 72.277 17.3751 71.6936 17.5242C71.1111 17.6741 70.655 18.1293 70.5051 18.7119C70.3552 19.2953 70.5349 19.9142 70.9741 20.3259L77.974 27.3267C78.6219 27.952 79.6509 27.9431 80.2874 27.3065C80.924 26.67 80.9329 25.6401 80.3076 24.9931V24.9947Z" fill="#212121"/>
<path d="M35.0816 69.5902C35.0961 69.1349 34.922 68.6933 34.5997 68.371L29.9325 63.7023C29.6102 63.3799 29.1686 63.2051 28.7126 63.2196C28.2573 63.2349 27.8278 63.4372 27.5264 63.7796L10.5653 83.0864L0.645145 95.7124C0.118961 96.3772 0.182619 97.3329 0.791799 97.9219C1.40098 98.5118 2.35746 98.544 3.00532 97.996L15.2566 87.7036L15.2848 87.6803L34.5223 70.7771C34.864 70.4758 35.0671 70.0463 35.0816 69.5902ZM13.1196 85.1888L13.0818 85.2218L28.8415 67.2816L31.0204 69.4597L13.1196 85.1888Z" fill="#212121"/>
<path d="M8.54218 80.2309C8.98698 80.2317 9.41405 80.0536 9.72508 79.7353L26.4477 62.5195C27.0722 61.8733 27.065 60.8467 26.4308 60.2093L21.762 55.5422C21.3954 55.1755 20.8773 55.0023 20.364 55.0748C19.8499 55.1481 19.4003 55.4576 19.1497 55.912L7.10303 77.7918C6.82584 78.301 6.83631 78.9191 7.13123 79.4187C7.42615 79.9191 7.96201 80.2269 8.54218 80.2309ZM20.9804 59.4221L22.9474 61.3874L15.9071 68.6323L20.9804 59.4221Z" fill="#212121"/>
<path d="M38.0982 71.8715C37.4536 71.2277 36.4084 71.2277 35.7646 71.8715L18.8623 88.7755C18.4183 89.2195 18.2644 89.877 18.4666 90.4717L18.5303 90.6619C18.689 91.13 19.0492 91.5023 19.5117 91.6764C19.9743 91.8504 20.4908 91.8085 20.9187 91.5611L42.4245 79.135C42.8685 78.8779 43.1674 78.4299 43.2343 77.9214C43.3012 77.4138 43.1288 76.9029 42.7662 76.5403L38.0982 71.8715ZM29.531 82.7756L36.9266 75.3719L38.9064 77.3526L29.531 82.7756Z" fill="#212121"/>
<path d="M87.1075 11.1949C86.4532 10.6188 85.4637 10.651 84.848 11.2683C84.2332 11.8863 84.2042 12.8758 84.7828 13.5277L88.2743 17.0265C88.9221 17.6518 89.9511 17.6429 90.5877 17.0063C91.2243 16.3697 91.2332 15.3407 90.6079 14.6929L87.1075 11.1949Z" fill="#212121"/>
</g>
<defs>
<clipPath id="clip0">
<rect y="0.734375" width="97.6531" height="97.6531" fill="white"/>
</clipPath>
</defs>
</svg>
