<svg width="111" height="111" viewBox="0 0 111 111" fill="none" xmlns="http://www.w3.org/2000/svg">
<path d="M36.8398 28L38.8398 31L36.8398 34.5L37.8398 45L38.8398 48L36.8398 51.5L38.3398 54L43.8398 58L46.3398 57L49.3398 58L50.3398 60L51.8398 62H59.8398L62.3398 58L64.8398 57L68.3398 58L74.8398 52.5L72.8398 48.5L74.8398 45L77.8398 44L78.3398 39.5L77.8398 35L75.8398 34.5L72.3398 31.5L74.3398 28.5L73.8398 26.5C71.8398 24.6667 67.7398 20.9 67.3398 20.5C66.9398 20.1 64.1732 21 62.8398 21.5L60.8398 18C59.8398 17.8333 57.7398 17.5 57.3398 17.5H51.8398L49.3398 20.5L47.3398 22L44.3398 20.5L36.8398 28Z" fill="#00C8D2"/>
<rect x="35.8398" y="35" width="31" height="9" fill="white"/>
<circle cx="56.3398" cy="39.5" r="11.5" fill="white"/>
<path d="M103.925 36.1948L109.074 36.2023L109.076 34.486C109.083 29.7543 105.239 25.899 100.507 25.8921L98.2898 25.8888C95.458 25.8847 92.8049 26.8591 90.7034 28.5671C86.5747 12.8949 72.4471 1.82301 55.9194 1.79876C39.3916 1.77451 25.2316 12.8049 21.057 28.4649C18.9605 26.7507 16.3102 25.7685 13.4784 25.7644L11.261 25.7611C6.5292 25.7542 2.67394 29.5982 2.667 34.3299L2.66448 36.0462L7.81331 36.0538C8.76069 36.0551 9.52846 36.8252 9.52707 37.7725L9.52203 41.2051C9.52064 42.1525 8.75062 42.9202 7.80324 42.9189L2.65441 42.9113L2.65189 44.6276C2.64495 49.3593 6.48891 53.2146 11.2207 53.2215L13.4381 53.2248C16.5634 53.2294 19.4554 52.0271 21.6433 49.9759C24.5851 59.2172 30.5966 65.4802 35.5372 70.6071C39.2198 74.4329 42.4398 77.7947 43.502 81.3867C42.6395 82.0102 42.07 83.0168 42.0683 84.1598L42.0532 94.4575C42.0504 96.3505 43.5877 97.8923 45.4807 97.895C45.4724 103.574 50.0841 108.199 55.7632 108.208C61.4424 108.216 66.0677 103.604 66.076 97.9253C67.9691 97.928 69.5108 96.3908 69.5136 94.4978L69.5287 84.2001C69.5304 83.0571 68.9638 82.0488 68.1031 81.4228C69.1759 77.8339 72.4057 74.4816 76.0996 70.6666C81.0551 65.5542 87.085 59.3089 90.054 50.0763C92.2358 52.1339 95.1242 53.3446 98.2495 53.3492L100.467 53.3525C105.199 53.3594 109.054 49.5155 109.061 44.7837L109.063 43.0674L103.915 43.0599C102.967 43.0585 102.199 42.2885 102.201 41.3411L102.206 37.9085C102.207 36.9611 102.977 36.1934 103.925 36.1948ZM55.9143 5.23131C71.7075 5.25448 85.0609 16.4299 87.9113 31.8789C87.7874 32.0915 87.6464 32.2921 87.5345 32.5133L87.4226 32.738L76.3612 32.7218C75.721 32.7208 75.1484 32.3304 74.8833 31.683C74.6353 31.0819 74.7685 30.4042 75.2222 29.9517L77.7265 27.4514L68.0335 17.7299L65.5258 20.2285C65.072 20.6792 64.3922 20.8087 63.749 20.5434C63.1469 20.2954 62.7582 19.7216 62.7591 19.0797L62.7643 15.539L49.0341 15.5189L49.0289 19.0596C49.028 19.6997 48.6376 20.2724 47.9901 20.5375C47.3873 20.7872 46.7096 20.6506 46.2589 20.1985L43.7585 17.6943L34.037 27.3873L36.5357 29.895C36.9881 30.3487 37.1176 31.0269 36.8506 31.6718C36.6026 32.2738 36.0288 32.6626 35.3869 32.6617L24.3255 32.6454L24.2142 32.4204C24.103 32.1971 23.9626 31.9979 23.8393 31.7849C26.735 16.3443 40.1212 5.20814 55.9143 5.23131ZM76.3461 43.0194C74.3072 43.0164 72.4861 44.2375 71.6904 46.1671C70.9067 48.0539 71.3257 50.2033 72.7602 51.6402L72.8373 51.7175L67.9765 56.564L67.8994 56.4884C66.4667 55.0498 64.3186 54.621 62.3935 55.4162C60.4958 56.1909 59.2695 58.0101 59.2665 60.049L59.2663 60.1571L52.4012 60.1471L52.4014 60.0389C52.4044 58 51.1833 56.179 49.2537 55.3832C47.3703 54.6013 45.2192 55.0186 43.7806 56.453L43.7033 56.5301L38.8568 51.6694L38.9324 51.5923C40.2954 50.2333 40.7377 48.2396 40.1088 46.4005L44.0047 46.4062C46.4408 50.601 50.9542 53.2815 55.8455 53.2887C63.416 53.2998 69.5848 47.1492 69.5959 39.5787C69.607 32.0082 63.4563 25.8394 55.8858 25.8283C50.9962 25.8212 46.4733 28.4885 44.0249 32.676L40.1324 32.6703C40.7683 30.8537 40.3354 28.8433 38.9712 27.4752L38.8941 27.3978L43.7548 22.5513L43.832 22.6269C45.2664 24.0673 47.4145 24.4978 49.3379 23.6991C51.2321 22.9227 52.4585 21.1035 52.4615 19.0646L52.4616 18.9565L59.3267 18.9665L59.3266 19.0747C59.3236 21.1136 60.5446 22.9347 62.4743 23.7304C64.3559 24.5106 66.507 24.095 67.9473 22.6606L68.0247 22.5835L72.8712 27.4442L72.7956 27.5214C71.3552 28.9558 70.9298 31.1039 71.7234 33.0273C72.4981 34.9249 74.3172 36.1513 76.3562 36.1543L76.4643 36.1545L76.4542 43.0196L76.3461 43.0194ZM54.1124 63.5821L54.0873 80.7449L50.3115 80.7393L45.5799 59.5055L46.2039 58.8834C46.6559 58.4327 47.3375 58.3015 47.9807 58.5685C48.581 58.8182 48.9698 59.392 48.9688 60.0339L48.9636 63.5746L54.1124 63.5821ZM66.0962 84.1951L66.0928 87.6276L45.4958 87.5974L45.5009 84.1649L66.0962 84.1951ZM57.5198 80.7499L57.545 63.5872L62.6938 63.5947L62.699 60.0541C62.7 59.4139 63.0904 58.8412 63.7378 58.5761C64.3372 58.3265 65.0166 58.4613 65.469 58.9151L66.0911 59.5373L61.2956 80.7555L57.5198 80.7499ZM48.1907 46.4107L63.5068 46.4331C61.6175 48.5311 58.8884 49.8589 55.8471 49.8545C52.8986 49.8501 50.1167 48.5554 48.1907 46.4107ZM63.5286 32.7029L48.2126 32.6805C50.1448 30.5414 52.9305 29.2548 55.8808 29.2592C58.9186 29.2636 61.6438 30.5995 63.5286 32.7029ZM13.4431 49.7922L11.2257 49.789C8.98769 49.7857 7.0813 48.3481 6.37541 46.3493L7.7982 46.3514C10.6369 46.3556 12.9504 44.0489 12.9546 41.2101L12.9596 37.7776C12.9638 34.9389 10.6571 32.6254 7.81834 32.6212L6.39555 32.6191C7.10731 30.6224 9.01791 29.1904 11.2559 29.1937L13.4734 29.1969C16.7429 29.2017 19.6819 31.0236 21.1416 33.952L22.1991 36.0749L65.566 36.1385C65.9471 37.2152 66.1634 38.3671 66.1616 39.5719C66.1599 40.7767 65.9385 41.928 65.5559 43.0036L22.1891 42.94L21.1253 45.0597C19.657 47.9838 16.7126 49.797 13.4431 49.7922ZM24.2503 46.4854L24.3053 46.3756L35.3667 46.3919C36.0069 46.3928 36.5796 46.7832 36.8446 47.4307C37.0926 48.0317 36.9595 48.7094 36.5057 49.1619L34.0014 51.6623L42.1315 59.8162L46.58 79.7762C45.1563 75.6859 41.813 72.1798 38.0086 68.2285C32.6329 62.6462 26.5768 56.3111 24.2503 46.4854ZM55.7683 104.775C51.9822 104.77 48.9077 101.686 48.9133 97.9001L62.6435 97.9202C62.6379 101.706 59.5544 104.781 55.7683 104.775ZM45.4857 94.4625L45.4908 91.0299L66.0878 91.0602L66.0845 94.4927L45.4857 94.4625ZM73.6351 68.2808C69.8192 72.2209 66.4656 75.7172 65.0299 79.8033L69.537 59.8564L77.6909 51.7264L75.1923 49.2186C74.7398 48.7649 74.6104 48.0868 74.8774 47.4418C75.1254 46.8398 75.6992 46.451 76.3411 46.452L87.4025 46.4682L87.4572 46.5781C85.1018 56.3969 79.0272 62.7142 73.6351 68.2808ZM103.91 46.4924L105.332 46.4945C104.621 48.4912 102.71 49.9232 100.472 49.9199L98.2546 49.9167C94.9851 49.9119 92.046 48.09 90.5864 45.1616L89.5288 43.0388L79.8868 43.0246L79.8969 36.1595L89.5389 36.1737L90.6027 34.0539C92.0709 31.1298 95.0153 29.3166 98.2848 29.3214L100.502 29.3246C102.74 29.3279 104.647 30.7655 105.353 32.7643L103.93 32.7622C101.091 32.7581 98.7775 35.0648 98.7734 37.9035L98.7683 41.336C98.7642 44.1748 101.071 46.4882 103.91 46.4924Z" fill="#212121"/>
</svg>
