<svg width="70" height="71" viewBox="0 0 70 71" fill="none" xmlns="http://www.w3.org/2000/svg">
<path d="M68.9746 62.0798H64.5202V24.7468C64.5202 22.3684 62.5853 20.4336 60.207 20.4336H47.056C46.4897 20.4336 46.0306 20.8927 46.0306 21.459C46.0306 22.0253 46.4897 22.4844 47.056 22.4844H60.207C61.4545 22.4844 62.4694 23.4994 62.4694 24.7468V62.0799H58.9597C59.0126 61.6927 59.0404 61.3031 59.0404 60.9134C59.0404 56.1179 55.1388 52.2163 50.3433 52.2163C49.6985 52.2163 49.0547 52.29 48.42 52.4359C47.3137 50.3042 45.1099 48.9284 42.6717 48.9284C41.8763 48.9284 41.1037 49.0734 40.3763 49.3552C40.0776 46.6531 37.7804 44.5445 35 44.5445C32.2196 44.5445 29.9224 46.6531 29.6237 49.3552C28.8963 49.0734 28.1237 48.9284 27.3283 48.9284C24.8901 48.9284 22.6862 50.3042 21.58 52.4359C20.9452 52.2899 20.3015 52.2163 19.6567 52.2163C14.8611 52.2163 10.9596 56.1179 10.9596 60.9134C10.9596 61.3032 10.9874 61.6927 11.0403 62.0799H7.53061V24.7468C7.53061 23.4992 8.54547 22.4844 9.79303 22.4844H22.9444C23.5107 22.4844 23.9698 22.0253 23.9698 21.459C23.9698 20.8927 23.5107 20.4336 22.9444 20.4336H9.79303C7.41467 20.4336 5.47982 22.3686 5.47982 24.7468V62.0799H1.02539C0.459102 62.0799 0 62.539 0 63.1053V65.2972C0 67.0712 1.44334 68.5144 3.21727 68.5144H66.7827C68.5568 68.5144 70 67.0711 70 65.2972V63.1053C70 62.5389 69.5409 62.0798 68.9746 62.0798ZM67.9492 65.2972C67.9492 65.9404 67.4259 66.4637 66.7827 66.4637H3.21727C2.574 66.4637 2.05078 65.9403 2.05078 65.2972V64.1307H15.2724C15.8387 64.1307 16.2978 63.6716 16.2978 63.1053C16.2978 62.539 15.8387 62.0799 15.2724 62.0799H13.1153C13.0457 61.6934 13.0103 61.3032 13.0103 60.9134C13.0103 57.2487 15.9919 54.2671 19.6566 54.2671C20.3865 54.2671 21.1174 54.3921 21.8291 54.6384C22.0868 54.7277 22.3692 54.7106 22.6144 54.5911C22.8594 54.4715 23.0467 54.2593 23.135 54.0013C23.7531 52.1938 25.4383 50.9793 27.3284 50.9793C28.3649 50.9793 29.3493 51.3461 30.1753 52.0402C30.5241 52.3332 31.0242 52.3611 31.4033 52.1086C31.7825 51.8561 31.9495 51.3838 31.8136 50.9492C31.6963 50.5738 31.6416 50.2576 31.6416 49.9539C31.6416 48.1021 33.1483 46.5955 35 46.5955C36.8517 46.5955 38.3584 48.1022 38.3584 49.9539C38.3584 50.2576 38.3037 50.5738 38.1864 50.9492C38.0505 51.384 38.2177 51.8562 38.5967 52.1086C38.9758 52.361 39.4759 52.3332 39.8247 52.0402C40.6507 51.3463 41.6352 50.9793 42.6716 50.9793C44.5617 50.9793 46.2469 52.1938 46.865 54.0013C46.9533 54.2593 47.1406 54.4715 47.3856 54.5911C47.6308 54.7108 47.9134 54.7279 48.1709 54.6384C48.8826 54.3921 49.6133 54.2671 50.3434 54.2671C54.0083 54.2671 56.9897 57.2487 56.9897 60.9134C56.9897 61.3032 56.9542 61.6934 56.8847 62.0799H19.657C19.0907 62.0799 18.6316 62.539 18.6316 63.1053C18.6316 63.6716 19.0907 64.1307 19.657 64.1307H67.9492V65.2972Z" fill="#212121"/>
<path d="M21.8239 33.0397C21.1793 33.8132 20.8242 34.7939 20.8242 35.801V38.9944C20.8242 39.3589 21.0178 39.6961 21.3325 39.88C21.4922 39.9732 21.6709 40.0198 21.8496 40.0198C22.0234 40.0198 22.1971 39.9758 22.3536 39.8875L29.6557 35.7672C29.9339 36.2752 30.229 36.7751 30.5405 37.2658L29.6226 40.9376C29.5459 41.244 29.6148 41.5684 29.8091 41.8174C30.0034 42.0664 30.3016 42.2118 30.6174 42.2118H39.385C39.7008 42.2118 39.9989 42.0664 40.1933 41.8174C40.3876 41.5686 40.4565 41.244 40.3798 40.9376L39.4619 37.2658C39.7734 36.7751 40.0685 36.2754 40.3467 35.7672L47.6488 39.8875C47.8054 39.9758 47.979 40.0198 48.1528 40.0198C48.3315 40.0198 48.5102 39.9731 48.6699 39.88C48.9846 39.6962 49.1782 39.3591 49.1782 38.9944V35.801C49.1782 34.7939 48.8231 33.8132 48.1785 33.0397L43.3108 27.2003C43.5671 25.6771 43.6984 24.1241 43.6984 22.5551C43.6984 18.8157 42.9744 15.2011 41.5467 11.812C40.1696 8.54335 38.2095 5.64354 35.7207 3.19313C35.3216 2.80021 34.6811 2.80021 34.282 3.19313C31.7932 5.64341 29.833 8.54321 28.456 11.812C27.0282 15.2013 26.3043 18.8157 26.3043 22.5551C26.3043 24.1216 26.4352 25.6723 26.6907 27.1932L21.8239 33.0397ZM22.875 37.2384V35.801C22.875 35.2727 23.0612 34.7583 23.3993 34.3526L27.2428 29.7405C27.6268 31.1771 28.126 32.5782 28.7379 33.9304L22.875 37.2384ZM31.9306 40.1609L32.5138 37.828H37.4883L38.0716 40.1609H31.9306ZM46.6027 34.3526C46.9408 34.7583 47.127 35.2727 47.127 35.801V37.2384L41.2641 33.9302C41.8759 32.5781 42.3752 31.1771 42.7592 29.7404L46.6027 34.3526ZM35.001 5.39458C36.723 7.24562 38.1432 9.36804 39.2226 11.6661H30.7794C31.8588 9.36804 33.279 7.24562 35.001 5.39458ZM29.9249 13.7168H40.077C41.1022 16.512 41.6472 19.5087 41.6472 22.555C41.6472 27.2701 40.3787 31.829 37.9733 35.777H32.0286C29.6232 31.829 28.3547 27.2701 28.3547 22.555C28.3547 19.5087 28.8998 16.5121 29.9249 13.7168Z" fill="#212121"/>
<path d="M39.3139 21.4597C39.3139 19.0813 37.3791 17.1465 35.0007 17.1465C32.6223 17.1465 30.6875 19.0815 30.6875 21.4597C30.6875 23.8379 32.6223 25.7729 35.0007 25.7729C37.3791 25.7729 39.3139 23.838 39.3139 21.4597ZM32.7383 21.4597C32.7383 20.2121 33.7531 19.1973 35.0007 19.1973C36.2483 19.1973 37.2631 20.2123 37.2631 21.4597C37.2631 22.7071 36.2483 23.7221 35.0007 23.7221C33.7531 23.7221 32.7383 22.7072 32.7383 21.4597Z" fill="#00C8D2"/>
</svg>
