<svg width="58" height="59" viewBox="0 0 58 59" fill="none" xmlns="http://www.w3.org/2000/svg">
<path d="M20 10.207L14 14.707L15.5 17.207L22 12.207L20 10.207Z" fill="#00C8D2"/>
<path d="M50 9.70703L56 14.207L54.5 16.707L48 11.707L50 9.70703Z" fill="#00C8D2"/>
<path d="M27.5 3.70703V7.70703L29 8.20703H38.5H41.5L43 7.70703V5.20703V4.20703L42 3.20703H38H31.5H28.5L27.5 3.70703Z" fill="#00C8D2"/>
<path d="M51.5117 18.4236L52.6977 17.0439L53.8536 18.0377C54.0092 18.1716 54.2073 18.2444 54.4112 18.2444C54.4326 18.2444 54.4541 18.2436 54.4755 18.242C54.7016 18.2249 54.9118 18.1188 55.0597 17.9467L56.8959 15.8109C57.2038 15.4527 57.1631 14.9128 56.8049 14.6049L50.4895 9.17534C50.3174 9.02745 50.0938 8.9531 49.8676 8.971C49.6415 8.98799 49.4313 9.09427 49.2834 9.26623L47.4471 11.402C47.1392 11.7602 47.18 12.3002 47.5381 12.6081L48.694 13.6018L47.4171 15.087C44.8017 13.4164 41.8254 12.2631 38.6333 11.7733V9.18914H41.5787C42.9535 9.18914 44.0718 8.07072 44.0718 6.69595V4.70609C44.0718 3.33132 42.9534 2.21289 41.5787 2.21289H28.7292C27.3545 2.21289 26.236 3.33132 26.236 4.70609V6.69595C26.236 8.07072 27.3545 9.18914 28.7292 9.18914H31.6748V11.7733C28.4197 12.2728 25.3895 13.4628 22.737 15.187L21.3742 13.6018L22.5301 12.6081C22.7021 12.4602 22.8082 12.25 22.8253 12.0239C22.8423 11.7977 22.7689 11.574 22.621 11.4019L20.7847 9.26611C20.4767 8.90805 19.9369 8.86723 19.5786 9.17523L13.2633 14.6048C13.0913 14.7527 12.9852 14.9628 12.9681 15.1889C12.9511 15.4151 13.0245 15.6388 13.1724 15.8109L15.0087 17.9467C15.1778 18.1434 15.417 18.2443 15.6575 18.2443C15.8549 18.2443 16.0533 18.1763 16.2147 18.0376L17.3705 17.0439L18.669 18.5541C17.5453 19.726 16.5454 21.0175 15.6896 22.4066C15.6607 22.4036 15.6314 22.4021 15.6016 22.4021H10.2007C9.72842 22.4021 9.3455 22.7851 9.3455 23.2574C9.3455 23.7297 9.72842 24.1126 10.2007 24.1126H14.7368C14.2865 25.0066 13.8933 25.9339 13.5618 26.89H4.9206C4.44828 26.89 4.06536 27.2729 4.06536 27.7452C4.06536 28.2176 4.44828 28.6005 4.9206 28.6005H13.0426C12.7338 29.786 12.5195 31.0089 12.4051 32.2606H0.85524C0.38292 32.2606 0 32.6435 0 33.1158C0 33.5881 0.38292 33.971 0.85524 33.971H12.3131C12.3109 34.0989 12.3082 34.2265 12.3082 34.3549C12.3082 35.4673 12.3897 36.5608 12.5441 37.6311H4.12237C3.65005 37.6311 3.26713 38.014 3.26713 38.4864C3.26713 38.9587 3.65005 39.3416 4.12237 39.3416H12.8579C13.07 40.2908 13.3408 41.218 13.6674 42.1189H9.40251C8.93019 42.1189 8.54727 42.5018 8.54727 42.9741C8.54727 43.4464 8.93019 43.8293 9.40251 43.8293H14.3675C17.9743 51.7111 25.9348 57.2007 35.1541 57.2007C39.9694 57.2007 44.5748 55.7201 48.4726 52.9191C48.8561 52.6434 48.9437 52.109 48.6681 51.7255C48.3921 51.3418 47.8579 51.2545 47.4744 51.5302C43.8693 54.121 39.6089 55.4904 35.1541 55.4904C23.5 55.4904 14.0186 46.0091 14.0186 34.355C14.0186 22.7008 23.5 13.2195 35.1541 13.2195C40.7956 13.2195 45.928 15.4414 49.7222 19.056C49.7299 19.0642 49.7386 19.0717 49.7467 19.0797C53.776 22.9306 56.2895 28.3547 56.2895 34.355C56.2895 40.0073 54.0864 45.3196 50.0859 49.313C49.7516 49.6468 49.7512 50.1882 50.0849 50.5226C50.4186 50.8568 50.9601 50.8574 51.2943 50.5236C55.6186 46.2069 58 40.4648 58 34.3549C58 28.1643 55.524 22.5422 51.5117 18.4236ZM50.023 11.0298L55.0414 15.3443L54.3203 16.183L49.3019 11.8686L50.023 11.0298ZM49.9912 14.717L51.4007 15.9288L50.2718 17.242C49.8077 16.8315 49.3276 16.4385 48.8311 16.0662L49.9912 14.717ZM31.3718 7.47866V3.92337H32.753V7.47866H31.3718ZM34.4634 3.92337H35.8446V7.47866H34.4634V3.92337ZM37.5551 7.47866V3.92337H38.9364V7.47866H37.5551ZM42.3615 4.70609V6.69595C42.3615 7.12756 42.0104 7.47866 41.5789 7.47866H40.6469V3.92337H41.5789C42.0104 3.92337 42.3615 4.27448 42.3615 4.70609ZM27.9466 6.69595V4.70609C27.9466 4.27448 28.2977 3.92337 28.7293 3.92337H29.6613V7.47866H28.7293C28.2977 7.47866 27.9466 7.12756 27.9466 6.69595ZM15.7481 16.1831L15.0269 15.3444L20.0452 11.03L20.7664 11.8687L19.6107 12.8623C19.6107 12.8623 19.6105 12.8625 19.6104 12.8625L16.9039 15.1894C16.9038 15.1895 16.9038 15.1895 16.9037 15.1896L15.7481 16.1831ZM18.6932 15.9068L20.0771 14.717L21.3324 16.1771C20.839 16.5532 20.3611 16.9486 19.9003 17.3627L18.6675 15.9289L18.6932 15.9068ZM33.3853 11.5767V9.18914H36.9229V11.5769C36.339 11.5319 35.7492 11.5089 35.154 11.5089C34.5589 11.5089 33.9691 11.5319 33.3853 11.5767Z" fill="#212121"/>
<path d="M27.9911 18.7731C27.7722 18.3545 27.2554 18.1926 26.837 18.4113C21.6373 21.1291 18.0811 26.2207 17.3239 32.031C16.0428 41.8624 22.999 50.9032 32.8304 52.1843C33.6158 52.2867 34.3947 52.3364 35.1664 52.3363C44.0551 52.3355 51.8047 45.7238 52.9836 36.6779C53.6042 31.9153 52.333 27.1962 49.4041 23.3897C46.4753 19.5833 42.2396 17.1452 37.4769 16.5245C35.1534 16.2216 32.8362 16.3677 30.5891 16.9582C30.1322 17.0783 29.8593 17.5459 29.9792 18.0027C30.0993 18.4595 30.5672 18.7323 31.0237 18.6126C32.1 18.3298 33.1946 18.1609 34.2984 18.1042V20.3512C34.2984 20.8235 34.6812 21.2064 35.1537 21.2064C35.6261 21.2064 36.0089 20.8235 36.0089 20.3512V18.1063C36.4241 18.1287 36.8398 18.1663 37.2561 18.2205C40.5867 18.6545 43.6322 20.0717 46.0675 22.2829L44.5186 23.8317C44.1845 24.1657 44.1845 24.7071 44.5185 25.0411C44.6856 25.2082 44.9044 25.2916 45.1234 25.2916C45.3422 25.2916 45.5611 25.2082 45.7281 25.0411L47.2725 23.4967C47.5412 23.7975 47.8001 24.1096 48.0486 24.4325C50.0936 27.0903 51.2444 30.2398 51.4058 33.5196H49.2844C48.812 33.5196 48.4291 33.9025 48.4291 34.3749C48.4291 34.8472 48.812 35.2301 49.2844 35.2301H51.4012C51.3786 35.6381 51.3408 36.0471 51.2875 36.4565C50.8469 39.8375 49.3915 42.842 47.2689 45.2049L45.8037 43.7397C45.4696 43.4057 44.9281 43.4057 44.5941 43.7397C44.2601 44.0737 44.2601 44.6153 44.5941 44.9492L46.0609 46.416C43.3671 48.8483 39.879 50.3747 36.1157 50.5961V48.5054C36.1157 48.033 35.7329 47.6501 35.2605 47.6501C34.7881 47.6501 34.4053 48.033 34.4053 48.5054V50.6066C33.9563 50.5857 33.5049 50.547 33.0515 50.4878C29.7077 50.0521 26.7317 48.6242 24.3807 46.5395L25.8955 45.0247C26.2295 44.6907 26.2295 44.1492 25.8955 43.8152C25.5615 43.4812 25.02 43.4812 24.6861 43.8152L23.1626 45.3386C20.6938 42.6392 19.1409 39.1281 18.913 35.3367H21.1299C21.6022 35.3367 21.9851 34.9538 21.9851 34.4815C21.9851 34.0092 21.6022 33.6262 21.1299 33.6262H18.9004C18.9212 33.1706 18.9601 32.7122 19.0201 32.2518C19.4482 28.9664 20.8655 25.9349 23.0166 23.5227L24.6106 25.1165C24.7775 25.2835 24.9965 25.367 25.2153 25.367C25.4341 25.367 25.6531 25.2835 25.82 25.1165C26.154 24.7825 26.154 24.2409 25.82 23.9071L24.2217 22.3088C25.2405 21.383 26.382 20.5788 27.6292 19.9269C28.0479 19.7084 28.2099 19.1916 27.9911 18.7731Z" fill="#212121"/>
<path d="M35.1529 26.5098C34.6805 26.5098 34.2977 26.8927 34.2977 27.365V32.4451C33.5684 32.7731 33.0586 33.5048 33.0586 34.3549C33.0586 35.5097 33.9981 36.4493 35.1529 36.4493C35.4695 36.4493 35.7687 36.3766 36.038 36.2503L41.7438 41.9561C41.9109 42.1231 42.1297 42.2066 42.3487 42.2066C42.5675 42.2066 42.7864 42.1231 42.9535 41.9561C43.2875 41.6221 43.2875 41.0806 42.9535 40.7467L37.1593 34.9524C37.2159 34.7628 37.2472 34.5626 37.2472 34.3549C37.2472 33.5049 36.7374 32.7731 36.0083 32.4452V27.3651C36.0081 26.8927 35.6252 26.5098 35.1529 26.5098ZM34.7691 34.3548C34.7691 34.1432 34.9413 33.971 35.1529 33.971C35.3644 33.971 35.5366 34.1432 35.5366 34.3548C35.5366 34.5665 35.3644 34.7387 35.1529 34.7387C34.9411 34.7387 34.7691 34.5665 34.7691 34.3548Z" fill="#212121"/>
</svg>
