<svg width="60" height="61" viewBox="0 0 60 61" fill="none" xmlns="http://www.w3.org/2000/svg">
<g clip-path="url(#clip0)">
<path d="M24 42.707L22.5 46.207H37.5L36.5 42.707H24Z" fill="#00C8D2"/>
<path d="M40.5 34.707L39 38.207H54L53 34.707H40.5Z" fill="#00C8D2"/>
<path d="M7.5 34.707L6 38.207H21L20 34.707H7.5Z" fill="#00C8D2"/>
<path d="M59.0445 44.5944H58.2408L56.4935 38.1494C56.3807 37.733 56.0027 37.4439 55.5714 37.4439H54.7774L54.2736 34.6138C54.2261 34.3463 54.0695 34.1222 53.8553 33.982C51.5555 27.5679 51.6039 23.2123 51.7488 21.5449H52.9816C54.1975 21.5449 55.1869 20.5557 55.1869 19.3398V18.1395C55.1869 16.9238 54.1976 15.9346 52.9816 15.9346H52.8982C53.3052 15.0342 53.5209 14.0502 53.5209 13.0507C53.5209 9.51769 50.8879 6.59 47.4814 6.12242V4.15086C47.4814 3.62305 47.0537 3.19531 46.5259 3.19531C45.9981 3.19531 45.5704 3.62305 45.5704 4.15086V6.12266C42.1639 6.59023 39.5309 9.51805 39.5309 13.0509C39.5309 14.0503 39.7466 15.0343 40.1536 15.9349H40.0702C38.8541 15.9349 37.8648 16.9239 37.8648 18.1398V19.34C37.8648 20.5559 38.8541 21.5451 40.0702 21.5451H41.3066C41.4564 23.2 41.5096 27.5282 39.1944 33.9835C38.9811 34.1239 38.8254 34.3473 38.778 34.614L38.2743 37.4442H37.4802C37.0487 37.4442 36.6708 37.7334 36.5578 38.1498L36.3402 38.9526C35.0504 34.2443 35.104 31.0209 35.2239 29.6405H36.4567C37.6725 29.6405 38.6618 28.6514 38.6618 27.4354V26.2352C38.6618 25.0194 37.6726 24.0301 36.4567 24.0301H36.373C36.78 23.1298 36.9957 22.1457 36.9957 21.1462C36.9957 17.6132 34.3627 14.6855 30.9563 14.218V12.2461C30.9563 11.7182 30.5285 11.2905 30.0007 11.2905C29.473 11.2905 29.0452 11.7182 29.0452 12.2461V14.218C25.6388 14.6855 23.0057 17.6132 23.0057 21.1462C23.0057 22.1456 23.2214 23.1296 23.6283 24.0301H23.5446C22.3288 24.0301 21.3395 25.0193 21.3395 26.2352V27.4354C21.3395 28.6514 22.3287 29.6405 23.5446 29.6405H24.7775C24.8974 31.0209 24.951 34.2443 23.6607 38.953L23.443 38.1498C23.3302 37.7334 22.9522 37.4443 22.5207 37.4443H21.7271L21.2231 34.6141C21.1754 34.3468 21.0191 34.123 20.8051 33.9826C18.5052 27.5683 18.5536 23.2127 18.6986 21.5454H19.9311C21.147 21.5454 22.1364 20.5562 22.1364 19.3402V18.14C22.1364 16.9243 21.1472 15.935 19.9311 15.935H19.8477C20.2548 15.0344 20.4705 14.0504 20.4705 13.051C20.4705 9.51805 17.8373 6.59035 14.4309 6.12277V4.15086C14.4309 3.62305 14.0031 3.19531 13.4754 3.19531C12.9477 3.19531 12.5198 3.62305 12.5198 4.15086V6.12266C9.11355 6.59023 6.48047 9.51805 6.48047 13.0509C6.48047 14.0504 6.69621 15.0343 7.10309 15.9349H7.01953C5.80348 15.9349 4.8143 16.9241 4.8143 18.1399V19.34C4.8143 20.5558 5.80359 21.5451 7.01953 21.5451H8.25598C8.40586 23.2 8.45918 27.5282 6.14379 33.9836C5.93062 34.1239 5.77512 34.3474 5.72754 34.614L5.22363 37.4442H4.42945C3.99797 37.4442 3.62004 37.7334 3.50719 38.1498L1.76039 44.5946H0.955547C0.427852 44.5946 0 45.0225 0 45.5502V49.1683C0 49.6961 0.427852 50.1239 0.955547 50.1239H18.9804L18.2849 52.6897H17.4812C16.9535 52.6897 16.5257 53.1174 16.5257 53.6452V57.2634C16.5257 57.7912 16.9535 58.2189 17.4812 58.2189H42.519C43.0468 58.2189 43.4746 57.7912 43.4746 57.2634V53.6452C43.4746 53.1174 43.0468 52.6897 42.519 52.6897H41.7152L41.0196 50.1237H59.0446C59.5724 50.1237 60.0001 49.696 60.0001 49.1682V45.55C60 45.0222 59.5723 44.5944 59.0445 44.5944ZM40.0693 19.6339C39.9074 19.6339 39.7755 19.5021 39.7755 19.34V18.1398C39.7755 17.9779 39.9074 17.8461 40.0697 17.8461H41.3538H41.8632H48.2264C48.7542 17.8461 49.182 17.4184 49.182 16.8905C49.182 16.3627 48.7542 15.935 48.2264 15.935H42.3383C41.7574 15.091 41.4415 14.0825 41.4415 13.051C41.4415 10.2478 43.7222 7.96707 46.5254 7.96707C49.3287 7.96707 51.6094 10.2478 51.6094 13.051C51.6094 14.2282 51.1978 15.3759 50.4503 16.2827C50.215 16.568 50.1656 16.9637 50.3234 17.2981C50.4811 17.6327 50.8179 17.8461 51.1876 17.8461H52.9812C53.1432 17.8461 53.2752 17.9778 53.2752 18.1398V19.34C53.2752 19.502 53.1434 19.6339 52.9812 19.6339H42.1341C42.1331 19.6339 42.1323 19.6339 42.1314 19.6339H40.0693ZM43.2247 21.545H49.8264C49.674 23.4657 49.7026 27.7058 51.7765 33.8258H41.2746C43.3481 27.7058 43.377 23.4657 43.2247 21.545ZM40.5189 35.7369H52.5323L52.8362 37.4439H40.215L40.5189 35.7369ZM37.4643 42.1098L38.2106 39.3552H39.0742H53.9768C53.9776 39.3552 53.9786 39.3552 53.9794 39.3552H54.8402L56.2607 44.5944H38.4052H38.0839L37.7483 42.7089C37.7099 42.4925 37.5997 42.3045 37.4457 42.1661C37.4521 42.1476 37.459 42.1291 37.4643 42.1098ZM23.5436 27.7291C23.3817 27.7291 23.2499 27.5973 23.2499 27.4352V26.235C23.2499 26.073 23.3817 25.9411 23.5438 25.9411H24.8284H25.3378H31.7009C32.2287 25.9411 32.6564 25.5133 32.6564 24.9855C32.6564 24.4577 32.2287 24.03 31.7009 24.03H25.8129C25.2319 23.1861 24.9159 22.1776 24.9159 21.1461C24.9159 18.3429 27.1966 16.0621 29.9999 16.0621C32.8031 16.0621 35.0838 18.3429 35.0838 21.1461C35.0838 22.3232 34.6723 23.471 33.9246 24.3777C33.6893 24.6629 33.64 25.0585 33.7977 25.3931C33.9554 25.7277 34.292 25.9411 34.662 25.9411H36.4559C36.6179 25.9411 36.7498 26.0729 36.7498 26.235V27.4352C36.7498 27.5971 36.6179 27.7291 36.4559 27.7291H34.3936C34.3927 27.7291 34.392 27.7291 34.3912 27.7291H23.5436ZM26.6992 29.6403H33.3011C33.1487 31.561 33.1772 35.8011 35.2508 41.9209H24.7491C26.8228 35.801 26.8515 31.561 26.6992 29.6403ZM23.9932 43.8321H36.0069L36.3108 45.5393H23.6893L23.9932 43.8321ZM37.4515 47.4505C37.4523 47.4505 37.4532 47.4505 37.4541 47.4505H38.3147L39.7351 52.6897H20.2649L21.6851 47.4505H22.5485H37.4515ZM7.01859 19.634C6.85641 19.634 6.72445 19.5022 6.72445 19.3401V18.1399C6.72445 17.9779 6.85641 17.8461 7.01848 17.8461H8.30273H8.81215H15.1752C15.7029 17.8461 16.1307 17.4184 16.1307 16.8905C16.1307 16.3627 15.7029 15.935 15.1752 15.935H9.28769C8.7068 15.0911 8.39086 14.0825 8.39086 13.051C8.39086 10.2478 10.6714 7.96707 13.4747 7.96707C16.278 7.96707 18.5588 10.2478 18.5588 13.051C18.5588 14.2279 18.147 15.3757 17.3994 16.2828C17.1642 16.5682 17.1149 16.9637 17.2726 17.2982C17.4304 17.6327 17.767 17.8461 18.1369 17.8461H19.9304C20.0925 17.8461 20.2245 17.9778 20.2245 18.1399V19.34C20.2245 19.502 20.0926 19.6339 19.9304 19.6339H17.8682C17.8673 19.6339 17.8666 19.6339 17.8658 19.6339H9.0859C9.08355 19.6339 9.08133 19.6339 9.07898 19.6339H7.01859V19.634ZM10.1736 21.5451H16.7755C16.6232 23.4659 16.6518 27.7059 18.7255 33.8259H8.22375C10.2971 27.7058 10.3259 23.4658 10.1736 21.5451ZM7.46777 35.737H19.4813L19.7852 37.4441H7.16391L7.46777 35.737ZM5.15965 39.3553H6.0232H20.9259C20.9269 39.3553 20.9276 39.3553 20.9285 39.3553H21.789L22.5396 42.1242C22.5436 42.1388 22.549 42.1529 22.5537 42.1673C22.4002 42.3056 22.2905 42.4932 22.2519 42.7092L21.9163 44.5947H3.73945L5.15965 39.3553ZM1.91121 48.2129V46.5058H2.49059H19.9614L19.4986 48.2129H1.91121ZM41.5634 54.601V56.3081H18.4368V54.601H19.0159H40.9843C40.9849 54.6009 40.9857 54.6009 40.987 54.601H41.5634ZM58.0888 48.2128H40.5014L40.0385 46.5057H57.5098H58.0889V48.2128H58.0888Z" fill="#212121"/>
</g>
<defs>
<clipPath id="clip0">
<rect y="0.707031" width="60" height="60" fill="white"/>
</clipPath>
</defs>
</svg>
