<svg width="24" height="24" viewBox="0 0 24 24" fill="none" xmlns="http://www.w3.org/2000/svg">
<path d="M21.8906 0C21.5502 0 2.44849 0 2.10938 0C0.946289 0 0 0.946289 0 2.10938V3.18073C0 4.91602 0.596924 6.61798 1.68109 7.97296C2.5827 9.09998 3.86517 9.98273 5.2923 10.4584L6.03754 10.7067C6.90308 12.117 8.26062 13.2034 9.89062 13.7194V14.8125C9.89062 15.2001 9.57513 15.5156 9.1875 15.5156C8.02441 15.5156 7.07812 16.4619 7.07812 17.625V18.3281H6.375C5.98663 18.3281 5.67188 18.6429 5.67188 19.0312V22.5938H4.96875C4.58038 22.5938 4.26562 22.9085 4.26562 23.2969C4.26562 23.6852 4.58038 24 4.96875 24H19.0312C19.4196 24 19.7344 23.6852 19.7344 23.2969C19.7344 22.9085 19.4196 22.5938 19.0312 22.5938H18.3281V19.0312C18.3281 18.6429 18.0134 18.3281 17.625 18.3281H16.9219V17.625C16.9219 16.4619 15.9756 15.5156 14.8125 15.5156C14.4249 15.5156 14.1094 15.2001 14.1094 14.8125V13.7194C15.7375 13.2039 17.0938 12.1196 17.9595 10.7115L18.7454 10.4614C18.7484 10.4604 18.7515 10.4594 18.7544 10.4584C20.1605 9.98969 21.3931 9.13019 22.3189 7.97296C23.4031 6.61798 24 4.91602 24 3.18073V2.10938C24 0.946289 23.0537 0 21.8906 0ZM2.77917 7.09442C1.89386 5.98773 1.40625 4.59796 1.40625 3.18073V2.10938C1.40625 1.72174 1.72174 1.40625 2.10938 1.40625H4.33942L5.05499 7.84644C5.09692 8.22308 5.16998 8.59094 5.26996 8.948C4.28668 8.53473 3.41455 7.88855 2.77917 7.09442ZM7.07812 22.5938V19.7344H16.9219V22.5938H7.07812ZM13.2486 12.4977C12.9293 12.5711 12.7031 12.8553 12.7031 13.1829V14.8125C12.7031 15.9756 13.6494 16.9219 14.8125 16.9219C15.2001 16.9219 15.5156 17.2374 15.5156 17.625V18.3281H8.48438V17.625C8.48438 17.2374 8.79987 16.9219 9.1875 16.9219C10.3506 16.9219 11.2969 15.9756 11.2969 14.8125V13.1829C11.2969 12.8553 11.0707 12.5711 10.7514 12.4977C8.44043 11.9659 6.71301 10.0344 6.45264 7.69116L5.75427 1.40625H18.2457L17.5474 7.69116C17.287 10.0344 15.5596 11.9659 13.2486 12.4977ZM22.5938 3.18073C22.5938 4.59796 22.1061 5.98773 21.2208 7.09442C20.5571 7.92426 19.7001 8.56622 18.7238 8.96979C18.8271 8.60577 18.9022 8.23077 18.945 7.84644L19.6606 1.40625H21.8906C22.2783 1.40625 22.5938 1.72174 22.5938 2.10938V3.18073Z" fill="#212121"/>
<path d="M14.9112 4.81458L13.3312 4.59045L12.6275 3.19849C12.508 2.96173 12.2652 2.8125 12 2.8125C11.7349 2.8125 11.4921 2.96173 11.3725 3.19849L10.6688 4.59045L9.08864 4.81458C8.82186 4.85248 8.60012 5.03961 8.5179 5.29633C8.43569 5.55304 8.50746 5.83429 8.70265 6.01996L9.83608 7.09863L9.56929 8.61713C9.52315 8.88007 9.62972 9.14648 9.8445 9.30487C10.0598 9.46344 10.3458 9.48596 10.5828 9.36438L12 8.6369L13.4171 9.36438C13.6546 9.48633 13.9406 9.46326 14.1554 9.30487C14.3703 9.1463 14.4769 8.88007 14.4307 8.61713L14.164 7.09863L15.2972 6.01996C15.4926 5.83411 15.5643 5.55304 15.4821 5.29633C15.3999 5.03961 15.1782 4.85248 14.9112 4.81458ZM12.9216 6.33966C12.7509 6.50208 12.6729 6.73883 12.7138 6.97083L12.8009 7.46741L12.321 7.22113C12.1196 7.11768 11.8805 7.11768 11.6789 7.22113L11.1989 7.46741L11.2863 6.97083C11.3269 6.73883 11.2489 6.50208 11.0784 6.33966L10.7245 6.00293L11.2297 5.93115C11.4573 5.89893 11.6547 5.75739 11.7583 5.55231L12 5.07422L12.2415 5.55212C12.3454 5.75739 12.5427 5.89893 12.7703 5.93115L13.2755 6.00275L12.9216 6.33966Z" fill="#00C8D2"/>
</svg>
