<svg width="76" height="76" viewBox="0 0 76 76" fill="none" xmlns="http://www.w3.org/2000/svg">
<path d="M70.411 23.7019H70.3629C70.3553 20.6509 68.6407 20.1644 66.0477 19.4291L65.9955 19.4141C65.1687 19.1775 64.3366 18.9786 63.4756 18.8093C63.4872 18.5988 63.4936 18.3831 63.4936 18.1616C63.4895 15.2196 62.4893 12.6828 60.6019 10.8256C58.6322 8.88718 55.7719 7.80405 52.7342 7.84116C49.7063 7.79652 46.8401 8.8866 44.871 10.8244C42.9831 12.6822 41.9829 15.2196 41.9788 18.1616C41.9788 18.5275 41.9956 18.8771 42.0269 19.2134C40.3912 19.5845 39.0414 20.0299 37.9977 20.543C35.3536 19.2436 30.7979 18.386 24.7444 18.0567C24.1286 18.0248 23.5969 18.4968 23.5633 19.1155C23.5297 19.7341 24.004 20.2629 24.6227 20.2966C31.8178 20.6885 35.28 21.7433 36.8763 22.493V64.0294C33.8745 62.8778 29.1935 62.0725 24.2498 61.9014C20.5209 61.7715 13.7125 61.9171 7.88052 64.1048V23.7222C7.88052 22.7116 8.09564 22.5417 8.22437 22.4396C8.59662 22.1451 9.41998 21.9114 10.5594 21.5879L10.6156 21.5716C13.0857 20.8706 15.5801 20.5036 19.2256 20.3053C19.8442 20.2716 20.318 19.7428 20.2843 19.1242C20.2507 18.5055 19.7184 18.0288 19.1032 18.0648C15.2804 18.273 12.6439 18.6638 10.0027 19.4135L9.94647 19.4297C7.35693 20.165 5.64468 20.652 5.63715 23.7019H5.58496C2.50546 23.7019 0 26.2086 0 29.2892V68.3358C0 71.9006 2.56519 75.5118 7.46826 75.5165L37.9965 75.5548H37.9977H37.9988L50.2873 75.542C50.9065 75.5414 51.4081 75.0387 51.4075 74.4189C51.4069 73.7996 50.9048 73.2986 50.2861 73.2986C50.2855 73.2986 50.2849 73.2986 50.2849 73.2986L39.1197 73.3096V69.8904H66.9273C68.8217 69.8904 70.3629 68.3231 70.3629 66.3969V25.9453H70.4104C72.2554 25.9453 73.7566 27.4454 73.7566 29.2892V68.3358C73.7566 70.7108 72.1203 73.2696 68.5288 73.2731L55.4837 73.2899C54.8639 73.2905 54.3623 73.7938 54.3635 74.4131C54.3641 75.0323 54.8662 75.5333 55.4855 75.5333H55.4866L68.5312 75.5165C73.4348 75.5118 76 71.9006 76 68.3358V29.2892C76 26.2086 73.4928 23.7019 70.411 23.7019ZM46.4441 12.4242C47.9923 10.9009 50.2826 10.044 52.7173 10.0845H52.751C55.1869 10.0428 57.4801 10.9015 59.0283 12.4248C60.4784 13.8517 61.2467 15.8365 61.2502 18.1645C61.2537 21.0805 59.9763 22.6194 58.4977 24.4012C57.2082 25.9546 55.7667 27.6918 55.4495 30.4089H53.8556V22.6362H55.6159C56.2352 22.6362 56.7373 22.1341 56.7373 21.5148C56.7373 20.895 56.2352 20.3928 55.6159 20.3928H49.7387C49.1189 20.3928 48.6168 20.895 48.6168 21.5148C48.6168 22.1341 49.1189 22.6362 49.7387 22.6362H51.6122V30.4089H50.0229C49.7057 27.6918 48.2642 25.9546 46.9747 24.4012C45.4955 22.6194 44.2187 21.0805 44.2222 18.1645C44.2257 15.8359 44.994 13.8511 46.4441 12.4242ZM49.2343 32.6523H56.2381C57.1392 32.6523 57.8721 33.3846 57.8721 34.2845C57.8721 35.1821 57.1392 35.9127 56.2381 35.9127H49.2343C48.3332 35.9127 47.6003 35.1821 47.6003 34.2845C47.6003 33.3846 48.3332 32.6523 49.2343 32.6523ZM45.2485 25.834C46.4807 27.3184 47.562 28.6247 47.7951 30.6866C46.3682 31.2589 45.3569 32.6557 45.3569 34.2845C45.3569 36.4194 47.0964 38.156 49.2343 38.156H56.2381C58.3759 38.156 60.1154 36.4194 60.1154 34.2845C60.1154 32.6557 59.1042 31.2589 57.6772 30.6866C57.9103 28.6247 58.9917 27.3178 60.2239 25.8334C61.314 24.5207 62.5067 23.0821 63.1051 21.0237C63.8809 21.1779 64.6335 21.3577 65.3803 21.5716L65.4354 21.5873C66.5771 21.9108 67.4016 22.1451 67.7756 22.4402C67.9044 22.5417 68.1195 22.7116 68.1195 23.7222V64.1048C62.2852 61.9171 55.4774 61.7721 51.7473 61.9014C46.8042 62.0725 42.122 62.8784 39.1197 64.0294V22.4936C39.8218 22.1631 40.8899 21.7746 42.4885 21.4087C43.117 23.2642 44.2274 24.6042 45.2485 25.834ZM36.8763 66.4635V67.647H9.06802C8.45108 67.647 7.94315 67.1489 7.88632 66.5151C17.17 62.6332 31.8926 64.1094 36.8763 66.4635ZM2.24338 68.3358V29.2892C2.24338 27.4454 3.74283 25.9453 5.58496 25.9453H5.63715V66.3974C5.63715 68.3236 7.17661 69.8904 9.0686 69.8904H36.8763V73.3096L7.47058 73.2731C3.87967 73.2696 2.24338 70.7108 2.24338 68.3358ZM66.9273 67.647H39.1197V66.4641C44.1051 64.1106 58.8305 62.6349 68.1137 66.5151C68.0545 67.1396 67.5356 67.647 66.9273 67.647Z" fill="#212121"/>
<path d="M32.5409 45.5558C30.7794 44.5336 27.2864 43.8152 23.4242 43.6812C20.8491 43.5925 15.9455 43.7108 12.0403 45.5071C11.4773 45.7657 11.2308 46.4319 11.4894 46.995C11.6785 47.4061 12.0849 47.6479 12.5094 47.6479C12.6665 47.6479 12.8254 47.6148 12.9773 47.5452C18.8441 44.8473 28.7117 45.9275 31.4143 47.4959C31.95 47.8073 32.6366 47.6252 32.9479 47.0889C33.2587 46.5537 33.0767 45.8672 32.5409 45.5558Z" fill="#00C8D2"/>
<path d="M32.5409 53.7884C30.7794 52.7662 27.2864 52.0478 23.4242 51.9138C20.8491 51.8245 15.9455 51.9434 12.0403 53.7397C11.4773 53.9983 11.2308 54.6646 11.4894 55.2276C11.6785 55.6387 12.0849 55.8805 12.5094 55.8805C12.6665 55.8805 12.8254 55.8474 12.9773 55.7778C18.8441 53.0799 28.7117 54.1601 31.4143 55.7285C31.95 56.0393 32.6366 55.8578 32.9479 55.3215C33.2587 54.7863 33.0767 54.0998 32.5409 53.7884Z" fill="#00C8D2"/>
<path d="M32.5408 37.3211C30.7787 36.2982 27.2852 35.5793 23.424 35.4453C20.8478 35.3554 15.9436 35.4737 12.0396 37.2724C11.4766 37.5316 11.2307 38.1978 11.4899 38.7608C11.6789 39.1713 12.0854 39.4131 12.5093 39.4131C12.6664 39.4131 12.8258 39.3801 12.9783 39.3105C18.841 36.6096 28.7098 37.691 31.4142 39.2612C31.9499 39.572 32.6364 39.3899 32.9478 38.8542C33.2586 38.3184 33.0765 37.6319 32.5408 37.3211Z" fill="#00C8D2"/>
<path d="M44.5881 47.4958C47.2884 45.9256 57.1531 44.8448 63.0198 47.545C63.1718 47.6152 63.3312 47.6477 63.4883 47.6477C63.9128 47.6477 64.3187 47.4059 64.5083 46.9948C64.7669 46.4323 64.5205 45.7661 63.958 45.5069C60.0551 43.7106 55.1509 43.5917 52.5759 43.6816C48.7124 43.815 45.2195 44.5334 43.4609 45.5562C42.9251 45.8676 42.743 46.5541 43.0544 47.0899C43.3658 47.6256 44.0523 47.8071 44.5881 47.4958Z" fill="#00C8D2"/>
<path d="M63.9576 53.7397C60.0547 51.9434 55.1505 51.8245 52.5754 51.9138C48.712 52.0478 45.2197 52.7662 43.4605 53.789C42.9247 54.1004 42.7432 54.7869 43.0546 55.3227C43.3659 55.8584 44.0525 56.0399 44.5882 55.7285C47.2885 54.1584 57.1526 53.0775 63.02 55.7778C63.1719 55.848 63.3314 55.881 63.4879 55.881C63.9129 55.881 64.3188 55.6387 64.5078 55.2276C64.767 54.6651 64.5206 53.9989 63.9576 53.7397Z" fill="#00C8D2"/>
<path d="M52.7425 5.63193C53.3623 5.63193 53.8645 5.12979 53.8645 4.51053V1.56729C53.8645 0.947449 53.3623 0.445312 52.7425 0.445312C52.1232 0.445312 51.6211 0.947449 51.6211 1.56729V4.51053C51.6211 5.12979 52.1232 5.63193 52.7425 5.63193Z" fill="#393A40"/>
<path d="M42.4039 7.92866C42.623 8.14726 42.9101 8.25685 43.1971 8.25685C43.4841 8.25685 43.7711 8.14726 43.9903 7.92808C44.4286 7.48973 44.4281 6.77943 43.9897 6.34166L41.9035 4.25599C41.4651 3.81822 40.7548 3.81822 40.317 4.25657C39.8787 4.69435 39.8787 5.40464 40.317 5.843L42.4039 7.92866Z" fill="#393A40"/>
<path d="M62.2858 8.25685C62.5734 8.25685 62.8604 8.14726 63.0796 7.9275L65.1618 5.84184C65.5996 5.40348 65.599 4.69319 65.1606 4.25541C64.7223 3.81822 64.012 3.81822 63.5742 4.25715L61.492 6.34224C61.0543 6.78059 61.0548 7.49089 61.4932 7.92866C61.7124 8.14726 61.9994 8.25685 62.2858 8.25685Z" fill="#393A40"/>
<path d="M11.4894 30.5241C11.6785 30.9352 12.0849 31.1776 12.5094 31.1776C12.6665 31.1776 12.8254 31.1446 12.9773 31.075C18.8383 28.3793 28.7088 29.459 31.4154 31.0263C31.9512 31.3371 32.6377 31.1538 32.9485 30.6181C33.2587 30.0817 33.0761 29.3952 32.5397 29.085C30.7776 28.0645 27.2847 27.3467 23.4242 27.2127C20.8485 27.1234 15.9443 27.2411 12.0403 29.0363C11.4773 29.2955 11.2308 29.9617 11.4894 30.5241Z" fill="#00C8D2"/>
</svg>
