<svg width="69" height="71" viewBox="0 0 69 71" fill="none" xmlns="http://www.w3.org/2000/svg">
<g clip-path="url(#clip0)">
<circle cx="16.6107" cy="12.4896" r="3.83333" fill="#00C8D2"/>
<circle cx="36.4162" cy="62.3225" r="6.38889" fill="#00C8D2"/>
<circle cx="61.3342" cy="8.65647" r="6.38889" fill="#00C8D2"/>
<path d="M61.4727 0.990234C57.3214 0.990234 53.9455 4.36835 53.9455 8.52227C53.9455 9.82154 54.2754 11.0442 54.8563 12.1125L42.5253 24.4513C40.8254 23.1269 38.6977 22.331 36.3818 22.331C34.0659 22.331 31.9382 23.1269 30.2371 24.45L20.6159 14.8228C21.0575 14.0759 21.3273 13.2172 21.3273 12.2883C21.3273 9.51901 19.0766 7.26693 16.3091 7.26693C13.5416 7.26693 11.2909 9.51901 11.2909 12.2883C11.2909 15.0576 13.5416 17.3096 16.3091 17.3096C17.2375 17.3096 18.0956 17.0397 18.842 16.5979L28.4631 26.2251C27.1408 27.9273 26.3455 30.0564 26.3455 32.3737C26.3455 34.6911 27.1408 36.8201 28.4631 38.5211L12.5756 54.42C11.2382 53.2061 9.47056 52.4591 7.52727 52.4591C3.37598 52.4591 0 55.8372 0 59.9912C0 64.1451 3.37598 67.5232 7.52727 67.5232C11.6786 67.5232 15.0545 64.1451 15.0545 59.9912C15.0545 58.6919 14.7246 57.4692 14.1437 56.4009L30.2383 40.2962C31.6258 41.3757 33.2994 42.0988 35.1285 42.3285V55.0828C31.5744 55.6828 28.8558 58.776 28.8558 62.5018C28.8558 66.6558 32.2318 70.0339 36.3831 70.0339C40.5344 70.0339 43.9103 66.6558 43.9103 62.5018C43.9103 58.7772 41.1917 55.6841 37.6376 55.0828V42.3285C39.4667 42.0988 41.1403 41.3757 42.5278 40.2962L52.1489 49.9233C51.7061 50.6715 51.4364 51.5302 51.4364 52.4591C51.4364 55.2284 53.687 57.4805 56.4545 57.4805C59.2221 57.4805 61.4727 55.2284 61.4727 52.4591C61.4727 49.6899 59.2221 47.4378 56.4545 47.4378C55.5262 47.4378 54.6681 47.7077 53.9216 48.1496L44.3005 38.5224C45.6228 36.8201 46.4182 34.6911 46.4182 32.3737C46.4182 30.0564 45.6228 27.9273 44.3005 26.2263L56.4257 14.0935C57.7618 15.3074 59.5294 16.0543 61.4727 16.0543C65.624 16.0543 69 12.6762 69 8.52227C69 4.36835 65.624 0.990234 61.4727 0.990234ZM13.8 12.2883C13.8 10.9036 14.9253 9.77761 16.3091 9.77761C17.6929 9.77761 18.8182 10.9036 18.8182 12.2883C18.8182 13.6729 17.6929 14.799 16.3091 14.799C14.9253 14.799 13.8 13.6729 13.8 12.2883ZM7.52727 65.0125C4.75975 65.0125 2.50909 62.7604 2.50909 59.9912C2.50909 57.2219 4.75975 54.9698 7.52727 54.9698C10.2948 54.9698 12.5455 57.2219 12.5455 59.9912C12.5455 62.7604 10.2948 65.0125 7.52727 65.0125ZM41.4 62.5018C41.4 65.2711 39.1493 67.5232 36.3818 67.5232C33.6143 67.5232 31.3636 65.2711 31.3636 62.5018C31.3636 59.7326 33.6143 57.4805 36.3818 57.4805C39.1493 57.4805 41.4 59.7326 41.4 62.5018ZM36.3818 39.9057C32.2305 39.9057 28.8545 36.5276 28.8545 32.3737C28.8545 28.2198 32.2305 24.8417 36.3818 24.8417C40.5331 24.8417 43.9091 28.2198 43.9091 32.3737C43.9091 36.5276 40.5331 39.9057 36.3818 39.9057ZM58.9636 52.4591C58.9636 53.8438 57.8383 54.9698 56.4545 54.9698C55.0708 54.9698 53.9455 53.8438 53.9455 52.4591C53.9455 51.0745 55.0708 49.9485 56.4545 49.9485C57.8383 49.9485 58.9636 51.0745 58.9636 52.4591ZM61.4727 13.5436C58.7052 13.5436 56.4545 11.2915 56.4545 8.52227C56.4545 5.75299 58.7052 3.50091 61.4727 3.50091C64.2403 3.50091 66.4909 5.75299 66.4909 8.52227C66.4909 11.2915 64.2403 13.5436 61.4727 13.5436Z" fill="#212121"/>
</g>
<defs>
<clipPath id="clip0">
<rect y="0.990234" width="69" height="69.0436" fill="white"/>
</clipPath>
</defs>
</svg>
