<svg width="61" height="70" viewBox="0 0 61 70" fill="none" xmlns="http://www.w3.org/2000/svg">
<g clip-path="url(#clip0)">
<path d="M54.5807 49.4989C55.227 48.5735 55.5731 47.4717 55.572 46.3429V45.2575C55.572 43.7901 54.989 42.3828 53.9514 41.3452C52.9138 40.3075 51.5065 39.7246 50.0391 39.7246C48.5716 39.7246 47.1643 40.3075 46.1267 41.3452C45.0891 42.3828 44.5062 43.7901 44.5062 45.2575V46.3429C44.505 47.4717 44.8511 48.5735 45.4974 49.4989C44.4655 49.5302 43.4552 49.8026 42.5474 50.2944C41.6396 50.7862 40.8595 51.4836 40.2695 52.3309C39.6796 51.4836 38.8995 50.7862 37.9917 50.2944C37.0839 49.8026 36.0736 49.5302 35.0416 49.4989C35.688 48.5735 36.034 47.4717 36.0329 46.3429V45.2575C36.0329 43.7901 35.45 42.3828 34.4123 41.3452C33.3747 40.3075 31.9674 39.7246 30.5 39.7246C29.0326 39.7246 27.6253 40.3075 26.5877 41.3452C25.55 42.3828 24.9671 43.7901 24.9671 45.2575V46.3429C24.966 47.4717 25.312 48.5735 25.9584 49.4989C24.9264 49.5302 23.9161 49.8026 23.0083 50.2944C22.1005 50.7862 21.3204 51.4836 20.7305 52.3309C20.1405 51.4836 19.3604 50.7862 18.4526 50.2944C17.5448 49.8026 16.5345 49.5302 15.5026 49.4989C16.1489 48.5735 16.495 47.4717 16.4938 46.3429V45.2575C16.4938 43.7901 15.9109 42.3828 14.8733 41.3452C13.8357 40.3075 12.4284 39.7246 10.9609 39.7246C9.49352 39.7246 8.08621 40.3075 7.04859 41.3452C6.01097 42.3828 5.42805 43.7901 5.42805 45.2575V46.3429C5.42689 47.4717 5.77295 48.5735 6.4193 49.4989C4.70016 49.5524 3.0692 50.2724 1.87125 51.5066C0.673302 52.7407 0.00226047 54.3924 0 56.1124L0 60.5587C0 60.8747 0.125523 61.1778 0.348955 61.4012C0.572387 61.6246 0.875426 61.7501 1.19141 61.7501H59.8086C60.1246 61.7501 60.4276 61.6246 60.651 61.4012C60.8745 61.1778 61 60.8747 61 60.5587V56.1124C60.9977 54.3924 60.3267 52.7407 59.1287 51.5066C57.9308 50.2724 56.2998 49.5524 54.5807 49.4989ZM7.81086 45.2575C7.81086 44.422 8.14274 43.6208 8.7335 43.0301C9.32425 42.4393 10.1255 42.1074 10.9609 42.1074C11.7964 42.1074 12.5976 42.4393 13.1884 43.0301C13.7791 43.6208 14.111 44.422 14.111 45.2575V46.3429C14.111 46.7565 14.0295 47.1662 13.8712 47.5484C13.7129 47.9305 13.4809 48.2778 13.1884 48.5703C12.8959 48.8628 12.5486 49.0949 12.1664 49.2532C11.7842 49.4115 11.3746 49.4929 10.9609 49.4929C10.5473 49.4929 10.1376 49.4115 9.75546 49.2532C9.37327 49.0949 9.02601 48.8628 8.7335 48.5703C8.44098 48.2778 8.20895 47.9305 8.05064 47.5484C7.89234 47.1662 7.81086 46.7565 7.81086 46.3429V45.2575ZM19.5391 59.3673H2.38281V56.1124C2.38439 54.9894 2.83129 53.9128 3.62551 53.1188C4.41973 52.3248 5.49642 51.8782 6.61945 51.877H9.76953V56.6426C9.76953 56.9586 9.89505 57.2616 10.1185 57.485C10.3419 57.7085 10.645 57.834 10.9609 57.834C11.2769 57.834 11.58 57.7085 11.8034 57.485C12.0268 57.2616 12.1523 56.9586 12.1523 56.6426V51.877H15.3024C16.4255 51.8782 17.5021 52.3248 18.2964 53.1188C19.0906 53.9128 19.5375 54.9894 19.5391 56.1124V59.3673ZM27.3499 45.2575C27.3499 44.422 27.6818 43.6208 28.2726 43.0301C28.8633 42.4393 29.6645 42.1074 30.5 42.1074C31.3355 42.1074 32.1367 42.4393 32.7274 43.0301C33.3182 43.6208 33.6501 44.422 33.6501 45.2575V46.3429C33.6501 47.1783 33.3182 47.9796 32.7274 48.5703C32.1367 49.1611 31.3355 49.4929 30.5 49.4929C29.6645 49.4929 28.8633 49.1611 28.2726 48.5703C27.6818 47.9796 27.3499 47.1783 27.3499 46.3429V45.2575ZM39.0781 59.3673H21.9219V56.1124C21.9235 54.9894 22.3704 53.9128 23.1646 53.1188C23.9588 52.3248 25.0355 51.8782 26.1585 51.877H29.3241V56.6426C29.3241 56.9586 29.4496 57.2616 29.673 57.485C29.8965 57.7085 30.1995 57.834 30.5155 57.834C30.8315 57.834 31.1345 57.7085 31.3579 57.485C31.5814 57.2616 31.7069 56.9586 31.7069 56.6426V51.877H34.8415C35.9645 51.8782 37.0412 52.3248 37.8354 53.1188C38.6296 53.9128 39.0765 54.9894 39.0781 56.1124V59.3673ZM46.889 45.2575C46.889 44.422 47.2209 43.6208 47.8116 43.0301C48.4024 42.4393 49.2036 42.1074 50.0391 42.1074C50.8745 42.1074 51.6757 42.4393 52.2665 43.0301C52.8573 43.6208 53.1891 44.422 53.1891 45.2575V46.3429C53.1891 47.1783 52.8573 47.9796 52.2665 48.5703C51.6757 49.1611 50.8745 49.4929 50.0391 49.4929C49.2036 49.4929 48.4024 49.1611 47.8116 48.5703C47.2209 47.9796 46.889 47.1783 46.889 46.3429V45.2575ZM58.6172 59.3673H41.4609V56.1124C41.4625 54.9894 41.9094 53.9128 42.7036 53.1188C43.4979 52.3248 44.5745 51.8782 45.6976 51.877H48.8774V56.6426C48.8774 56.9586 49.003 57.2616 49.2264 57.485C49.4498 57.7085 49.7529 57.834 50.0688 57.834C50.3848 57.834 50.6879 57.7085 50.9113 57.485C51.1347 57.2616 51.2603 56.9586 51.2603 56.6426V51.877H54.3805C55.5036 51.8782 56.5803 52.3248 57.3745 53.1188C58.1687 53.9128 58.6156 54.9894 58.6172 56.1124V59.3673Z" fill="#212121"/>
<path d="M31.3423 23.8557C31.1474 23.6608 30.8909 23.5395 30.6166 23.5126C30.3423 23.4856 30.0671 23.5546 29.8379 23.7077C29.6088 23.8609 29.4398 24.0888 29.3598 24.3526C29.2799 24.6164 29.2938 24.8997 29.3994 25.1544C29.5049 25.409 29.6955 25.6192 29.9386 25.7491C30.1817 25.879 30.4623 25.9205 30.7327 25.8667C31.003 25.8129 31.2463 25.667 31.4211 25.4539C31.5959 25.2408 31.6915 24.9736 31.6914 24.698C31.6903 24.3822 31.5649 24.0796 31.3423 23.8557Z" fill="#212121"/>
<path d="M36.2879 16.4772H35.797C36.9538 15.1827 37.593 13.5072 37.5924 11.7712V7.83951C37.5924 6.90812 37.409 5.98585 37.0526 5.12535C36.6961 4.26486 36.1737 3.48299 35.5151 2.8244C34.8565 2.1658 34.0747 1.64338 33.2142 1.28695C32.3537 0.930522 31.4314 0.74707 30.5 0.74707C29.5686 0.74707 28.6463 0.930522 27.7858 1.28695C26.9253 1.64338 26.1435 2.1658 25.4849 2.8244C24.8263 3.48299 24.3039 4.26486 23.9474 5.12535C23.591 5.98585 23.4076 6.90812 23.4076 7.83951V11.7712C23.407 13.5072 24.0462 15.1827 25.203 16.4772H24.7121C22.3748 16.48 20.1339 17.4098 18.4811 19.0626C16.8284 20.7154 15.8986 22.9562 15.8957 25.2936V28.8678C15.8957 29.1838 16.0213 29.4869 16.2447 29.7103C16.4681 29.9337 16.7712 30.0592 17.0871 30.0592H29.3086V32.9186H10.9609C10.645 32.9186 10.3419 33.0441 10.1185 33.2676C9.89505 33.491 9.76953 33.794 9.76953 34.11V36.8574C9.76953 37.1734 9.89505 37.4764 10.1185 37.6999C10.3419 37.9233 10.645 38.0488 10.9609 38.0488C11.2769 38.0488 11.58 37.9233 11.8034 37.6999C12.0268 37.4764 12.1523 37.1734 12.1523 36.8574V35.3014H29.3086V36.8574C29.3086 37.1734 29.4341 37.4764 29.6575 37.6999C29.881 37.9233 30.184 38.0488 30.5 38.0488C30.816 38.0488 31.119 37.9233 31.3425 37.6999C31.5659 37.4764 31.6914 37.1734 31.6914 36.8574V35.3014H35.7517C36.0677 35.3014 36.3707 35.1759 36.5942 34.9525C36.8176 34.729 36.9431 34.426 36.9431 34.11C36.9431 33.794 36.8176 33.491 36.5942 33.2676C36.3707 33.0441 36.0677 32.9186 35.7517 32.9186H31.6914V30.0592H43.9129C44.2288 30.0592 44.5319 29.9337 44.7553 29.7103C44.9787 29.4869 45.1043 29.1838 45.1043 28.8678V25.2936C45.1014 22.9562 44.1716 20.7154 42.5189 19.0626C40.8661 17.4098 38.6252 16.48 36.2879 16.4772ZM30.5 3.13346C31.6293 3.13475 32.7206 3.54115 33.5756 4.2788C34.4307 5.01645 34.9927 6.03639 35.1596 7.15326L33.0568 5.91777C32.8138 5.77505 32.5281 5.72306 32.2504 5.77105C31.9728 5.81904 31.7211 5.96389 31.5401 6.17988C31.0446 6.77269 30.425 7.24949 29.7251 7.57661C29.0251 7.90373 28.2619 8.07319 27.4893 8.07303H25.7904V7.84309C25.7919 6.5945 26.2886 5.3975 27.1715 4.51462C28.0544 3.63173 29.2514 3.13503 30.5 3.13346ZM25.7904 10.4558H27.4846C29.4001 10.4577 31.2468 9.74139 32.66 8.44832L35.2096 9.94592V11.7712C35.2096 13.0202 34.7134 14.2181 33.8302 15.1014C32.947 15.9846 31.7491 16.4808 30.5 16.4808C29.2509 16.4808 28.053 15.9846 27.1698 15.1014C26.2866 14.2181 25.7904 13.0202 25.7904 11.7712V10.4606V10.4558ZM42.7214 27.6764H18.2786V25.2936C18.2804 23.5879 18.9589 21.9526 20.165 20.7465C21.3711 19.5403 23.0064 18.8619 24.7121 18.86H29.3086V20.1706C29.3086 20.4865 29.4341 20.7896 29.6575 21.013C29.881 21.2365 30.184 21.362 30.5 21.362C30.816 21.362 31.119 21.2365 31.3425 21.013C31.5659 20.7896 31.6914 20.4865 31.6914 20.1706V18.86H36.2879C37.9936 18.8619 39.6289 19.5403 40.835 20.7465C42.0411 21.9526 42.7196 23.5879 42.7214 25.2936V27.6764Z" fill="#212121"/>
<path d="M40.8814 33.2678C40.6864 33.0729 40.43 32.9516 40.1557 32.9247C39.8813 32.8977 39.6062 32.9667 39.377 33.1198C39.1478 33.273 38.9789 33.5009 38.8989 33.7647C38.8189 34.0285 38.8329 34.3118 38.9384 34.5665C39.044 34.8211 39.2345 35.0313 39.4776 35.1612C39.7208 35.2911 40.0014 35.3326 40.2717 35.2788C40.5421 35.225 40.7854 35.0791 40.9602 34.866C41.135 34.6529 41.2305 34.3857 41.2305 34.1101C41.2294 33.7944 41.104 33.4917 40.8814 33.2678Z" fill="#212121"/>
<path d="M50.0662 32.9189H43.9102C43.5942 32.9189 43.2911 33.0445 43.0677 33.2679C42.8443 33.4913 42.7188 33.7944 42.7188 34.1104C42.7188 34.4263 42.8443 34.7294 43.0677 34.9528C43.2911 35.1762 43.5942 35.3018 43.9102 35.3018H48.8747V36.8577C48.8747 37.1737 49.0003 37.4768 49.2237 37.7002C49.4471 37.9236 49.7502 38.0491 50.0662 38.0491C50.3821 38.0491 50.6852 37.9236 50.9086 37.7002C51.132 37.4768 51.2576 37.1737 51.2576 36.8577V34.1104C51.2576 33.7944 51.132 33.4913 50.9086 33.2679C50.6852 33.0445 50.3821 32.9189 50.0662 32.9189Z" fill="#212121"/>
<path d="M29.322 61.751V64.6104H25.2617C24.9457 64.6104 24.6427 64.7359 24.4193 64.9593C24.1958 65.1827 24.0703 65.4858 24.0703 65.8018C24.0703 66.1177 24.1958 66.4208 24.4193 66.6442C24.6427 66.8676 24.9457 66.9932 25.2617 66.9932H29.322V68.5491C29.322 68.8651 29.4476 69.1682 29.671 69.3916C29.8944 69.615 30.1975 69.7405 30.5134 69.7405C30.8294 69.7405 31.1325 69.615 31.3559 69.3916C31.5793 69.1682 31.7048 68.8651 31.7048 68.5491V66.9932H48.8611V68.5491C48.8611 68.8651 48.9866 69.1682 49.2101 69.3916C49.4335 69.615 49.7365 69.7405 50.0525 69.7405C50.3685 69.7405 50.6715 69.615 50.895 69.3916C51.1184 69.1682 51.2439 68.8651 51.2439 68.5491V65.8018C51.2439 65.4858 51.1184 65.1827 50.895 64.9593C50.6715 64.7359 50.3685 64.6104 50.0525 64.6104H31.7048V61.751" fill="#212121"/>
<path d="M19.7852 65.8015C19.7851 66.0771 19.8806 66.3443 20.0554 66.5574C20.2303 66.7705 20.4736 66.9164 20.7439 66.9702C21.0142 67.0241 21.2949 66.9825 21.538 66.8526C21.7811 66.7227 21.9717 66.5125 22.0772 66.2579C22.1827 66.0033 22.1967 65.7199 22.1167 65.4561C22.0368 65.1923 21.8678 64.9644 21.6386 64.8113C21.4095 64.6581 21.1343 64.5891 20.86 64.6161C20.5857 64.643 20.3292 64.7643 20.1342 64.9592C19.9117 65.1831 19.7863 65.4858 19.7852 65.8015Z" fill="#212121"/>
<path d="M9.75391 65.8018V68.5491C9.75391 68.8651 9.87943 69.1682 10.1029 69.3916C10.3263 69.615 10.6293 69.7405 10.9453 69.7405C11.2613 69.7405 11.5643 69.615 11.7878 69.3916C12.0112 69.1682 12.1367 68.8651 12.1367 68.5491V66.9932H17.1025C17.4185 66.9932 17.7215 66.8676 17.945 66.6442C18.1684 66.4208 18.2939 66.1177 18.2939 65.8018C18.2939 65.4858 18.1684 65.1827 17.945 64.9593C17.7215 64.7359 17.4185 64.6104 17.1025 64.6104H10.9453C10.6293 64.6104 10.3263 64.7359 10.1029 64.9593C9.87943 65.1827 9.75391 65.4858 9.75391 65.8018Z" fill="#212121"/>
</g>
<defs>
<clipPath id="clip0">
<rect y="0.75" width="61" height="68.9896" fill="white"/>
</clipPath>
</defs>
</svg>
