<svg width="65" height="66" viewBox="0 0 65 66" fill="none" xmlns="http://www.w3.org/2000/svg">
<path d="M63.2489 56.9356C64.453 55.2334 65.0679 53.1836 64.991 51.0748C64.9032 48.656 63.9114 46.38 62.1985 44.6674L57.9505 40.419C58.8253 37.2027 59.0827 33.8896 58.7132 30.5607C58.6552 30.0385 58.1846 29.6626 57.6619 29.7196C57.1392 29.7776 56.7628 30.2483 56.8208 30.771C57.1228 33.4914 56.9725 36.2003 56.3784 38.8463L55.0157 37.4834C54.3169 36.7846 53.3871 36.3997 52.3982 36.3997C51.4069 36.3997 50.477 36.7846 49.7798 37.4839C48.3377 38.9276 48.3377 41.2765 49.7803 42.7193L53.3578 46.2957C52.3585 47.919 51.1649 49.4312 49.8006 50.7965C43.8476 56.7501 35.296 59.1987 27.1462 57.3795L28.5109 56.0146C29.2097 55.3153 29.5945 54.3863 29.5945 53.3979C29.5945 52.4069 29.2092 51.477 28.5104 50.7797C27.0678 49.3374 24.7196 49.3374 23.275 50.7797L19.693 54.3615C18.0595 53.3582 16.543 52.1624 15.1787 50.7965C13.742 49.3597 12.4913 47.7553 11.4588 46.0293C11.4489 46.009 11.4415 45.9877 11.4296 45.9683C11.0264 45.2849 10.6584 44.5866 10.3341 43.8888C9.86446 42.8884 9.4588 41.8429 9.13 40.7821C9.11512 40.7344 9.09578 40.6893 9.07446 40.6457C8.1461 37.6019 7.82029 34.4471 8.10792 31.2655C8.15553 30.7418 7.76921 30.279 7.24552 30.2314C6.72332 30.1833 6.25914 30.5702 6.21153 31.0939C5.91349 34.3831 6.22492 37.6466 7.13443 40.8034L3.0342 44.904C1.33023 46.6076 0.338891 48.8707 0.242187 51.2756C0.157882 53.3721 0.757941 55.4135 1.94318 57.1136L1.84796 57.2089C1.13186 57.925 0.737608 58.8768 0.737608 59.889C0.737608 60.9013 1.13186 61.8531 1.84796 62.5692L3.61343 64.3349C4.35185 65.0738 5.32236 65.4433 6.29286 65.4433C7.26337 65.4433 8.23339 65.0738 8.9723 64.3349L9.0576 64.2496C10.6738 65.3942 12.5875 65.9998 14.5543 65.9998C15.139 65.9998 15.7287 65.9462 16.3158 65.8376C16.8331 65.7419 17.1748 65.245 17.079 64.7282C16.9833 64.2109 16.4854 63.8701 15.9697 63.9649C14.0257 64.3244 12.0584 63.9277 10.4308 62.8767L12.4363 60.871C12.9282 60.3791 13.2679 59.776 13.4326 59.1178C14.839 60.0944 16.7899 59.958 18.0421 58.7052L20.5088 56.2388C20.5103 56.2373 20.5118 56.2358 20.5138 56.2338L24.6209 52.1267C25.3227 51.4259 26.4638 51.4259 27.165 52.1272C27.5037 52.465 27.6902 52.9163 27.6902 53.3979C27.6902 53.8775 27.5032 54.3288 27.164 54.668L24.6249 57.2074C24.6209 57.2108 24.618 57.2143 24.6145 57.2178L19.9807 61.8516C19.7287 62.1035 19.4585 62.3391 19.1768 62.5524C18.7572 62.8693 18.6744 63.4664 18.9918 63.886C19.1788 64.1335 19.4634 64.2639 19.7515 64.2639C19.9519 64.2639 20.1537 64.2009 20.3253 64.071C20.6764 63.8057 21.0136 63.5121 21.3271 63.1981L25.5736 58.9522C27.8583 59.5711 30.1812 59.8737 32.4872 59.8737C34.9653 59.8737 37.422 59.5225 39.7866 58.8421L43.9042 62.9615C45.6081 64.6652 47.871 65.6566 50.2762 65.7528C50.4056 65.7583 50.5346 65.7608 50.6635 65.7608C52.6229 65.7608 54.5193 65.1631 56.1141 64.0512L56.2103 64.1474C56.9487 64.8859 57.9193 65.2554 58.8898 65.2554C59.8603 65.2554 60.8303 64.8859 61.5692 64.1474L63.3347 62.3818C64.0508 61.6656 64.445 60.7138 64.445 59.7016C64.445 58.6893 64.0508 57.7376 63.3347 57.0219L63.2489 56.9356ZM2.14452 51.3525C2.22189 49.4267 3.01585 47.6149 4.38011 46.2505L7.80541 42.8254C8.25669 44.0202 8.79526 45.1822 9.41615 46.2991L7.52571 48.1893C6.84383 48.8702 6.46842 49.7768 6.46842 50.7415C6.46842 51.4671 6.68067 52.1599 7.07641 52.7487C6.42924 52.9084 5.81629 53.2407 5.31145 53.745L3.31588 55.7408C2.49365 54.4404 2.08154 52.9153 2.14452 51.3525ZM11.0899 59.5245L8.32215 62.292C8.32215 62.2925 8.32166 62.2925 8.32116 62.293L7.62589 62.9883C6.89094 63.7233 5.69479 63.7233 4.95934 62.9883L3.19388 61.2227C2.83781 60.8666 2.64143 60.3929 2.64143 59.889C2.64143 59.3856 2.83781 58.912 3.19388 58.5559L3.87478 57.8749C3.87725 57.8725 3.87973 57.8705 3.88172 57.868L6.65786 55.0921C7.02533 54.7246 7.50786 54.5406 7.99088 54.5406C8.47143 54.5406 8.95147 54.7231 9.31845 55.0871L11.0051 56.7729L11.0899 56.8577C11.4459 57.2138 11.6418 57.6875 11.6418 58.1909C11.6423 58.6948 11.4459 59.1684 11.0899 59.5245ZM16.6957 57.3586C16.3739 57.681 15.9454 57.8586 15.4901 57.8586C15.0349 57.8586 14.6064 57.681 14.2846 57.3586L12.4457 55.5201C12.4457 55.5201 12.4363 55.5112 12.4363 55.5107L11.614 54.6884L10.6708 53.7455C10.6688 53.7436 10.6664 53.7416 10.6644 53.7396L8.87213 51.9477C8.54978 51.6258 8.37224 51.1973 8.37224 50.7415C8.37224 50.2862 8.54978 49.8582 8.87213 49.5363L10.4348 47.9735C11.3016 49.2893 12.288 50.5307 13.382 51.6789L12.8925 52.1684C12.5206 52.5404 12.5206 53.1429 12.8925 53.5149C13.0785 53.7009 13.3225 53.7937 13.566 53.7937C13.8095 53.7937 14.0535 53.7009 14.2394 53.5149L14.7448 53.0095C15.8566 54.0218 17.0508 54.9359 18.3129 55.7418L16.6957 57.3586ZM51.1272 38.8294C51.4649 38.4907 51.9162 38.3042 52.3977 38.3042C52.8788 38.3042 53.33 38.4912 53.6693 38.8299L60.8521 46.014C63.412 48.5741 63.7854 52.5904 61.8767 55.5632L59.8712 53.5576C59.3693 53.0562 58.7608 52.7253 58.1181 52.5642C58.5372 51.964 58.7638 51.2513 58.7638 50.5039C58.7638 49.5398 58.3884 48.6336 57.7065 47.9517L51.1267 41.3727C50.426 40.6719 50.426 39.5312 51.1272 38.8294ZM50.6724 52.6058L51.1683 53.1018C51.3543 53.2873 51.5983 53.3805 51.8418 53.3805C52.0853 53.3805 52.3293 53.2873 52.5153 53.1013C52.8867 52.7293 52.8867 52.1267 52.5148 51.7547L52.002 51.2419C53.0166 50.128 53.9316 48.9347 54.737 47.6754L56.3601 49.2982C56.6824 49.6201 56.8595 50.0481 56.8595 50.5039C56.8595 50.9592 56.6824 51.3872 56.3601 51.7096L54.5168 53.5531C54.5153 53.5546 54.5133 53.5561 54.5118 53.5576L52.7463 55.3232C52.7444 55.3247 52.7429 55.3267 52.7414 55.3282L50.9482 57.1221C50.2831 57.7867 49.2015 57.7867 48.536 57.1221L46.9625 55.5479C48.2722 54.6884 49.515 53.7069 50.6724 52.6058ZM50.3521 63.8503C48.4264 63.7729 46.6148 62.9789 45.2506 61.615L41.8154 58.179C42.4531 57.9389 43.0824 57.6741 43.6979 57.3859C44.2325 57.1364 44.7671 56.8637 45.2932 56.5725L47.1896 58.4686C48.4269 59.7055 50.3451 59.8548 51.7466 58.9179C51.9102 59.5806 52.2509 60.1886 52.7459 60.6836L54.7404 62.6778C53.4396 63.5002 51.9137 63.9123 50.3521 63.8503ZM61.9883 61.0347L60.2223 62.8003C59.4878 63.5354 58.2917 63.5359 57.5562 62.8003L54.0928 59.3365C53.7362 58.9804 53.5403 58.5068 53.5403 58.0034C53.5403 57.501 53.7357 57.0283 54.0903 56.6727L55.8607 54.9021C56.2282 54.5361 56.7097 54.3531 57.1912 54.3531C57.6738 54.3531 58.1568 54.5366 58.5243 54.9041L61.3083 57.6885C61.3088 57.6885 61.3093 57.6889 61.3093 57.6894L61.9883 58.3679C62.3448 58.724 62.5407 59.1977 62.5407 59.7016C62.5407 60.2055 62.3443 60.6786 61.9883 61.0347Z" fill="#212121"/>
<path d="M9.98271 29.5051C10.6815 30.2039 11.6108 30.5888 12.5992 30.5888C13.5905 30.5888 14.5204 30.2039 15.2176 29.5046C16.6597 28.0609 16.6597 25.712 15.2171 24.2693L11.6237 20.676C12.554 19.1633 13.6545 17.7488 14.9052 16.4579C14.932 16.436 14.9583 16.4132 14.9835 16.3879C15.0148 16.3567 15.0426 16.3229 15.0688 16.2882C15.106 16.2505 15.1437 16.2123 15.1814 16.1742C16.6027 14.7532 18.1862 13.5163 19.8887 12.4926C19.9373 12.4738 19.9849 12.451 20.031 12.4237C20.7084 12.0235 21.4062 11.655 22.1074 11.3281C23.1111 10.8579 24.1565 10.4527 25.2153 10.1244C25.2708 10.1071 25.3234 10.0837 25.374 10.057C29.4524 8.82102 33.7376 8.66777 37.8731 9.59919L36.493 10.9795C35.7932 11.6788 35.4079 12.6082 35.4079 13.5961C35.4079 14.5861 35.7937 15.516 36.493 16.2138C37.9361 17.6571 40.2842 17.6571 41.7269 16.2138L45.3158 12.6251C46.9385 13.6244 48.4455 14.8152 49.8029 16.1742C51.3343 17.7067 52.6529 19.4252 53.7226 21.2816C54.1407 22.0087 55.3309 24.5232 55.8466 26.1088C55.86 26.1792 55.8818 26.2477 55.9111 26.3136C55.9116 26.3151 55.9121 26.3161 55.9121 26.3171C56.1035 26.9494 56.4824 26.882 56.7814 26.882H56.7824C57.0259 26.8815 57.2689 26.7887 57.4549 26.6033L61.9692 22.09C63.6732 20.3859 64.6645 18.1233 64.7607 15.7179C64.845 13.6219 64.245 11.5801 63.0597 9.8799L63.1549 9.78468C63.8706 9.069 64.2648 8.11725 64.2648 7.1045C64.2648 6.09224 63.8706 5.14049 63.1549 4.42481L61.3895 2.65919C59.9116 1.18171 57.5079 1.18171 56.0301 2.65919L55.9448 2.74449C54.2428 1.54029 52.1947 0.924805 50.0831 1.00267C47.664 1.09095 45.3882 2.08288 43.6753 3.79593L39.4442 8.02748C34.7592 6.75038 29.8556 6.7846 25.1895 8.12568L21.0927 4.02755C19.3888 2.32391 17.1259 1.33249 14.7207 1.23627C12.6269 1.15146 10.5833 1.75207 8.88277 2.93742L8.78755 2.8417C7.30972 1.36423 4.90601 1.36472 3.42818 2.8417L1.66321 4.60733C0.947104 5.323 0.55285 6.27475 0.55285 7.28701C0.55285 8.29977 0.947104 9.25152 1.66321 9.96719L1.749 10.053C0.544419 11.7556 -0.0700218 13.8054 0.00634939 15.9143C0.0941268 18.3331 1.08596 20.6086 2.79886 22.3216L9.98271 29.5051ZM52.5269 11.4432C52.5398 11.4561 52.5527 11.47 52.5661 11.4829L56.1303 15.0458C56.4526 15.3682 56.6302 15.7967 56.6302 16.252C56.6302 16.7078 56.4531 17.1358 56.1303 17.4577L54.5647 19.0235C53.6998 17.7072 52.7144 16.4653 51.6209 15.3147L52.1104 14.8256C52.4823 14.4537 52.4823 13.8506 52.1104 13.4791C51.7384 13.1071 51.1354 13.1071 50.764 13.4791L50.2606 13.9825C49.1493 12.9683 47.9566 12.0527 46.696 11.2458L48.3067 9.6349C48.9717 8.96981 50.0543 8.96981 50.7193 9.6349L52.5269 11.4432ZM62.8584 15.6415C62.7815 17.5673 61.9876 19.3786 60.6233 20.743L57.1727 24.1924C56.6837 22.8959 55.9661 21.4418 55.5768 20.7048L57.4762 18.8047C58.1586 18.1233 58.534 17.2172 58.534 16.2525C58.534 15.5269 58.3217 14.8346 57.926 14.2454C58.5732 14.0857 59.1866 13.7534 59.6915 13.2485L61.6865 11.2532C62.5093 12.5541 62.9214 14.0787 62.8584 15.6415ZM58.71 3.45421C59.1931 3.45421 59.6756 3.63822 60.0431 4.00572L61.809 5.77135C62.1651 6.12745 62.361 6.6006 62.361 7.1045C62.361 7.60839 62.1651 8.08204 61.809 8.43814L61.1162 9.131C61.1142 9.13298 61.1118 9.13497 61.1103 9.13695L58.345 11.9019C57.6101 12.637 56.4139 12.637 55.679 11.9019L53.9135 10.1363C53.1781 9.4008 53.1781 8.20454 53.913 7.46952L57.377 4.00572C57.7445 3.63772 58.227 3.45421 58.71 3.45421ZM45.0222 5.14197C47.5827 2.58132 51.5991 2.20786 54.5726 4.11731L52.5666 6.12299C52.0648 6.6249 51.7335 7.23394 51.5728 7.87721C50.1664 6.89917 48.2135 7.03506 46.9603 8.28836L40.3814 14.8673C39.6807 15.5681 38.5406 15.5681 37.8389 14.8668C37.4992 14.5281 37.3127 14.0767 37.3127 13.5961C37.3127 13.117 37.4997 12.6657 37.8399 12.3255L45.0222 5.14197ZM8.63828 17.6903C8.31594 17.3684 8.13889 16.9404 8.13889 16.4846C8.13889 16.0293 8.31594 15.6013 8.63828 15.2789L14.0507 9.86701C14.7157 9.20192 15.7973 9.20192 16.4624 9.86701L18.0176 11.4218C16.7019 12.2873 15.4596 13.2733 14.3096 14.3674L13.829 13.8868C13.4571 13.5153 12.8546 13.5153 12.4826 13.8868C12.1112 14.2588 12.1112 14.8618 12.4826 15.2338L12.9776 15.7283C11.9634 16.8407 11.0494 18.036 10.2441 19.2962L8.63828 17.6903ZM14.6448 3.13878C16.5705 3.21566 18.3826 4.00969 19.7468 5.37408L23.1677 8.79573C21.9715 9.24705 20.8091 9.78567 19.6933 10.4046L17.8088 8.51997C16.572 7.28304 14.6528 7.13376 13.2513 8.07162C13.0877 7.40852 12.747 6.80047 12.2515 6.3055L10.2565 4.31074C11.5577 3.48794 13.0832 3.07579 14.6448 3.13878ZM3.00962 5.95386L4.77509 4.18824C5.14256 3.82073 5.62509 3.63722 6.10811 3.63722C6.59114 3.63722 7.07366 3.82073 7.44163 4.18824L8.13146 4.87862C8.13493 4.88159 8.1384 4.88556 8.14187 4.88854L10.9056 7.65204C11.2617 8.00864 11.4576 8.48178 11.4576 8.98568C11.4576 9.48958 11.2617 9.96273 10.9056 10.3188L9.13965 12.0845C8.40471 12.8195 7.20855 12.82 6.47311 12.0845L3.00962 8.62065C2.65306 8.26455 2.45717 7.79091 2.45717 7.28701C2.45717 6.78361 2.65306 6.30996 3.00962 5.95386ZM3.1217 11.4258L5.12669 13.431C5.62856 13.9329 6.23755 14.2637 6.88026 14.4249C6.46121 15.025 6.23457 15.7372 6.23457 16.4846C6.23457 17.4488 6.61048 18.3554 7.29187 19.0369L13.8707 25.6158C14.5714 26.3166 14.5714 27.4573 13.8702 28.1591C13.532 28.4978 13.0807 28.6843 12.5992 28.6843C12.1196 28.6843 11.6683 28.4978 11.3291 28.1586L4.14527 20.9746C1.58485 18.4144 1.21192 14.3986 3.1217 11.4258Z" fill="#212121"/>
<path d="M19.6728 36.8524L14.9995 40.995C14.262 41.6487 14.1936 42.7806 14.8473 43.5181L17.4222 46.4232C17.4252 46.4261 17.4277 46.4296 17.4301 46.4331C17.4326 46.4356 17.4346 46.4375 17.4371 46.4395L19.9069 49.226C20.259 49.6238 20.751 49.8267 21.245 49.8267C21.6665 49.8267 22.0896 49.6789 22.4293 49.3778L27.1026 45.2347C27.8406 44.5815 27.9085 43.4492 27.2548 42.7116L22.1957 37.0042C21.542 36.2666 20.4103 36.1987 19.6728 36.8524ZM20.8482 38.3553L22.6842 40.4261L18.2147 44.4466L16.35 42.3426L20.8482 38.3553ZM21.2539 47.8749L19.4784 45.8716L23.9474 41.8516L25.7521 43.8871L21.2539 47.8749Z" fill="#212121"/>
<path d="M42.9364 17.9504L36.2328 23.8924C35.8464 24.2351 35.6168 24.7078 35.5856 25.2232C35.5548 25.7385 35.7259 26.235 36.0686 26.6214L40.9348 32.111C41.277 32.4974 41.7496 32.7271 42.2649 32.7583C42.3046 32.7608 42.3443 32.7618 42.3835 32.7618C42.8561 32.7618 43.3069 32.5912 43.663 32.2752L50.3667 26.3327C50.753 25.9905 50.9826 25.5178 51.0139 25.0024C51.0451 24.4866 50.8735 23.9901 50.5308 23.6037L45.6651 18.1146C44.9579 17.317 43.7339 17.2436 42.9364 17.9504ZM49.1129 24.8879C49.1124 24.8998 49.107 24.9047 49.1035 24.9072V24.9077L42.3998 30.8497C42.3963 30.8527 42.3924 30.8586 42.3795 30.8572C42.3676 30.8567 42.3626 30.8507 42.3596 30.8477L37.4939 25.3581C37.491 25.3551 37.486 25.3491 37.4865 25.3377C37.4875 25.3258 37.493 25.3209 37.4959 25.3179L44.1996 19.3759C44.2051 19.3709 44.212 19.3684 44.2184 19.3684C44.2269 19.3684 44.2343 19.3714 44.2398 19.3779L49.106 24.8675C49.1089 24.8705 49.1139 24.8765 49.1129 24.8879Z" fill="#212121"/>
</svg>
