<svg width="69" height="69" viewBox="0 0 69 69" fill="none" xmlns="http://www.w3.org/2000/svg">
<g clip-path="url(#clip0)">
<path d="M46.0841 44.2517C44.4492 44.2517 43.1192 43.1006 43.1192 41.6856C43.1192 40.2706 44.4492 39.1194 46.0841 39.1194C47.7189 39.1194 49.0489 40.2706 49.0489 41.6856C49.0489 42.4298 49.6524 43.0333 50.3966 43.0333C51.1408 43.0333 51.7443 42.4298 51.7443 41.6856C51.7443 39.216 49.9042 37.1395 47.4317 36.5759V35.875C47.4317 35.1308 46.8282 34.5273 46.0841 34.5273C45.3399 34.5273 44.7364 35.1308 44.7364 35.875V36.5759C42.2639 37.1395 40.4238 39.216 40.4238 41.6856C40.4238 44.5868 42.963 46.9471 46.0841 46.9471C47.7189 46.9471 49.0489 48.0983 49.0489 49.5133C49.0489 50.9284 47.7189 52.0796 46.0841 52.0796C44.4492 52.0796 43.1192 50.9284 43.1192 49.5133C43.1192 48.7691 42.5157 48.1657 41.7715 48.1657C41.0273 48.1657 40.4238 48.7691 40.4238 49.5133C40.4238 51.9829 42.2639 54.0594 44.7364 54.623V55.2052C44.7364 55.9494 45.3399 56.5529 46.0841 56.5529C46.8282 56.5529 47.4317 55.9494 47.4317 55.2052V54.623C49.9042 54.0594 51.7443 51.9829 51.7443 49.5133C51.7443 46.6121 49.2051 44.2517 46.0841 44.2517Z" fill="#212121"/>
<path d="M60.8448 36.235C59.0843 33.4918 56.6041 31.2968 53.6722 29.8874C53.0012 29.5647 52.196 29.8472 51.8736 30.5181C51.5511 31.1889 51.8335 31.994 52.5043 32.3165C57.6135 34.7725 60.9146 40.0202 60.9146 45.6856C60.9146 48.1098 60.3171 50.5139 59.1868 52.6384C58.8372 53.2954 59.0864 54.1115 59.7435 54.4611C59.9451 54.5684 60.1618 54.6193 60.3753 54.6193C60.8575 54.6193 61.3239 54.3597 61.5662 53.9044C62.9032 51.3918 63.61 48.5497 63.61 45.6856C63.61 42.3218 62.6538 39.0538 60.8448 36.235Z" fill="#212121"/>
<path d="M48.202 28.1661L48.1113 28.166C47.3672 28.166 46.7637 28.7694 46.7637 29.5137C46.7637 30.258 47.3672 30.8614 48.1113 30.8614L48.1894 30.8615C48.1915 30.8615 48.1936 30.8615 48.1958 30.8615C48.9372 30.8615 49.5399 30.2623 49.5434 29.5202C49.5468 28.7758 48.9462 28.1697 48.202 28.1661Z" fill="#212121"/>
<path d="M39.6758 59.0547C34.5668 56.5986 31.2657 51.3509 31.2657 45.6856C31.2657 43.2615 31.8632 40.8573 32.9935 38.7329C33.3431 38.0759 33.0939 37.2597 32.4368 36.9101C31.7799 36.5606 30.9635 36.8097 30.6141 37.4669C29.277 39.9796 28.5703 42.8216 28.5703 45.6856C28.5703 49.0494 29.5265 52.3173 31.3355 55.1362C33.0959 57.8794 35.5762 60.0745 38.5081 61.484C38.6963 61.5746 38.8952 61.6173 39.0911 61.6173C39.5929 61.6173 40.0746 61.3358 40.3067 60.8533C40.6289 60.1824 40.3467 59.3772 39.6758 59.0547Z" fill="#212121"/>
<path d="M44.0705 60.51L43.9924 60.5098C43.2447 60.5084 42.6421 61.1067 42.6387 61.8511C42.6352 62.5954 43.236 63.2016 43.9802 63.2051L44.0705 63.2054C44.8146 63.2054 45.4181 62.6019 45.4181 61.8577C45.4181 61.1135 44.8146 60.51 44.0705 60.51Z" fill="#212121"/>
<path d="M52.2101 23.6069C52.046 23.2161 51.8451 22.8478 51.6113 22.5061H55.1198C58.5381 22.5061 61.3191 19.7251 61.3191 16.3068C61.3191 12.8886 58.5381 10.1075 55.1198 10.1075H44.3277C45.0138 9.10999 45.4166 7.90315 45.4166 6.60359C45.4166 3.18535 42.6355 0.404297 39.2173 0.404297H6.1993C2.78106 0.404297 0 3.18535 0 6.60359C0 10.0218 2.78106 12.8029 6.1993 12.8029H16.9915C16.3054 13.8004 15.9025 15.0073 15.9025 16.3068C15.9025 17.6064 16.3052 18.8132 16.9915 19.8108H13.4767C10.0585 19.8108 7.27743 22.5918 7.27743 26.0101C7.27743 27.9732 8.19574 29.7251 9.6244 30.8617C8.19574 31.9983 7.27743 33.7502 7.27743 35.7133C7.27743 37.6765 8.19574 39.4283 9.6244 40.5649C8.19574 41.7016 7.27743 43.4534 7.27743 45.4166C7.27743 47.3797 8.19574 49.1316 9.6244 50.2682C8.19574 51.4048 7.27743 53.1567 7.27743 55.1198C7.27743 58.5381 10.0585 61.3191 13.4767 61.3191H29.3591C33.543 65.7943 39.4952 68.5967 46.0905 68.5967C58.7234 68.5967 69.001 58.3191 69.001 45.6862C69.001 35.1721 61.8812 26.2908 52.2101 23.6069ZM55.1198 12.8029C57.052 12.8029 58.6238 14.3748 58.6238 16.3068C58.6238 18.2389 57.052 19.8108 55.1198 19.8108H46.4947H22.1018C20.1697 19.8108 18.5979 18.2389 18.5979 16.3068C18.5979 14.3748 20.1697 12.8029 22.1018 12.8029H55.1198ZM6.1993 10.1075C4.26714 10.1075 2.69535 8.53562 2.69535 6.60359C2.69535 4.67157 4.26714 3.09964 6.1993 3.09964H39.2173C41.1494 3.09964 42.7212 4.67157 42.7212 6.60359C42.7212 8.53562 41.1494 10.1075 39.2173 10.1075H6.1993ZM13.4767 22.5061H46.4947C47.0376 22.5061 47.5574 22.6323 48.0236 22.8581C47.3862 22.8046 46.7417 22.7758 46.0905 22.7758C39.7639 22.7758 34.0282 25.3538 29.8782 29.514H13.4767C11.5447 29.514 9.97278 27.9421 9.97278 26.0101C9.97278 24.0781 11.5447 22.5061 13.4767 22.5061ZM13.4767 32.2094H27.5754C26.0455 34.3054 24.8627 36.6695 24.1115 39.2173H13.4767C11.5446 39.2173 9.97278 37.6455 9.97278 35.7133C9.97278 33.7813 11.5446 32.2094 13.4767 32.2094ZM13.4767 41.9126H23.4926C23.2882 43.1408 23.1801 44.401 23.1801 45.6862C23.1801 46.7841 23.2595 47.8635 23.4095 48.9205H13.4767C11.5446 48.9205 9.97278 47.3487 9.97278 45.4166C9.97278 43.4844 11.5446 41.9126 13.4767 41.9126ZM13.4767 58.6238C11.5446 58.6238 9.97278 57.052 9.97278 55.1198C9.97278 53.1877 11.5446 51.6159 13.4767 51.6159H23.9597C24.6398 54.1512 25.7445 56.5141 27.1932 58.6238H13.4767ZM46.0905 65.9013C34.9439 65.9013 25.8755 56.8328 25.8755 45.6862C25.8755 34.5396 34.9439 25.4711 46.0905 25.4711C57.2371 25.4711 66.3056 34.5396 66.3056 45.6862C66.3056 56.8328 57.2371 65.9013 46.0905 65.9013Z" fill="#212121"/>
</g>
<defs>
<clipPath id="clip0">
<rect width="69.001" height="69.001" fill="white"/>
</clipPath>
</defs>
</svg>
