<svg width="69" height="69" viewBox="0 0 69 69" fill="none" xmlns="http://www.w3.org/2000/svg">
<g clip-path="url(#clip0)">
<path d="M61.4726 0.00013197C59.4763 0.00013197 57.5617 0.793182 56.15 2.20482C54.7384 3.61646 53.9454 5.53105 53.9454 7.5274C53.9417 8.78168 54.2568 10.0163 54.8612 11.1154L42.529 23.4476C40.7742 22.0741 38.6101 21.3279 36.3817 21.3279C34.1534 21.3279 31.9892 22.0741 30.2344 23.4476L20.6121 13.8001C21.2406 12.7349 21.459 11.477 21.2263 10.2623C20.9936 9.04758 20.3259 7.95944 19.3482 7.20188C18.3706 6.44433 17.1501 6.06939 15.9158 6.14736C14.6814 6.22534 13.5179 6.75086 12.6434 7.62542C11.7688 8.49998 11.2433 9.6635 11.1653 10.8978C11.0873 12.1322 11.4623 13.3526 12.2198 14.3303C12.9774 15.3079 14.0655 15.9757 15.2803 16.2084C16.495 16.441 17.7529 16.2226 18.8181 15.5941L28.4404 25.2165C27.067 26.9713 26.3208 29.1354 26.3208 31.3638C26.3208 33.5921 27.067 35.7563 28.4404 37.511L12.5454 53.3936C11.2594 52.2435 9.61744 51.57 7.89428 51.4859C6.17111 51.4017 4.47134 51.9121 3.07951 52.9315C1.68768 53.9509 0.688267 55.4175 0.248574 57.0858C-0.191119 58.754 -0.0444059 60.5227 0.664153 62.0957C1.37271 63.6687 2.60011 64.9505 4.14088 65.7267C5.68166 66.5028 7.44229 66.7262 9.12804 66.3593C10.8138 65.9924 12.3224 65.0576 13.4012 63.7113C14.4801 62.365 15.0637 60.689 15.0544 58.9638C15.0581 57.7095 14.743 56.4749 14.1386 55.3758L30.2344 39.2799C31.652 40.3867 33.3427 41.089 35.1272 41.3123V54.0585C33.2662 54.3731 31.5913 55.3753 30.4344 56.8665C29.2775 58.3577 28.723 60.2292 28.8808 62.11C29.0386 63.9907 29.8973 65.7436 31.2865 67.0212C32.6758 68.2987 34.4943 69.0078 36.3817 69.0078C38.2691 69.0078 40.0876 68.2987 41.4769 67.0212C42.8662 65.7436 43.7248 63.9907 43.8826 62.11C44.0405 60.2292 43.486 58.3577 42.3291 56.8665C41.1722 55.3753 39.4972 54.3731 37.6363 54.0585V41.3123C39.4207 41.089 41.1114 40.3867 42.529 39.2799L52.1513 48.9274C51.5228 49.9926 51.3045 51.2505 51.5371 52.4652C51.7698 53.68 52.4376 54.7681 53.4152 55.5257C54.3929 56.2832 55.6133 56.6581 56.8476 56.5802C58.082 56.5022 59.2455 55.9767 60.1201 55.1021C60.9946 54.2276 61.5201 53.064 61.5981 51.8297C61.6761 50.5953 61.3012 49.3749 60.5436 48.3973C59.786 47.4196 58.6979 46.7519 57.4832 46.5192C56.2684 46.2865 55.0106 46.5049 53.9454 47.1334L44.2979 37.511C45.6713 35.7563 46.4176 33.5921 46.4176 31.3638C46.4176 29.1354 45.6713 26.9713 44.2979 25.2165L56.4544 13.0976C57.3606 13.9212 58.4541 14.5113 59.64 14.8167C60.8259 15.1221 62.0683 15.1336 63.2596 14.8501C64.4509 14.5666 65.5551 13.9968 66.4763 13.19C67.3976 12.3832 68.1081 11.3639 68.5462 10.2204C68.9843 9.07687 69.1368 7.84374 68.9905 6.62794C68.8442 5.41215 68.4035 4.2504 67.7066 3.24348C67.0097 2.23656 66.0777 1.41487 64.9913 0.849684C63.905 0.284497 62.6972 -0.00711859 61.4726 0.00013197ZM13.7999 11.291C13.7999 10.7948 13.9471 10.3097 14.2228 9.89707C14.4985 9.48445 14.8903 9.16285 15.3488 8.97294C15.8073 8.78304 16.3118 8.73335 16.7985 8.83016C17.2852 8.92698 17.7323 9.16594 18.0832 9.51685C18.4341 9.86775 18.6731 10.3148 18.7699 10.8015C18.8667 11.2883 18.817 11.7928 18.6271 12.2512C18.4372 12.7097 18.1156 13.1016 17.703 13.3773C17.2903 13.653 16.8052 13.8001 16.309 13.8001C15.6435 13.8001 15.0053 13.5358 14.5348 13.0652C14.0642 12.5947 13.7999 11.9565 13.7999 11.291ZM7.52717 63.982C6.53467 63.982 5.56445 63.6876 4.73922 63.1362C3.91398 62.5848 3.27079 61.8011 2.89097 60.8841C2.51116 59.9672 2.41178 58.9582 2.60541 57.9848C2.79904 57.0113 3.27697 56.1172 3.97878 55.4154C4.68058 54.7136 5.57474 54.2356 6.54817 54.042C7.5216 53.8484 8.53059 53.9478 9.44754 54.3276C10.3645 54.7074 11.1482 55.3506 11.6996 56.1758C12.251 57.0011 12.5454 57.9713 12.5454 58.9638C12.5454 60.2947 12.0167 61.5711 11.0756 62.5122C10.1345 63.4533 8.85807 63.982 7.52717 63.982ZM41.3999 61.4729C41.3999 62.4654 41.1056 63.4356 40.5542 64.2608C40.0028 65.0861 39.219 65.7292 38.3021 66.1091C37.3851 66.4889 36.3761 66.5882 35.4027 66.3946C34.4293 66.201 33.5351 65.7231 32.8333 65.0212C32.1315 64.3194 31.6536 63.4253 31.46 62.4519C31.2663 61.4784 31.3657 60.4694 31.7455 59.5525C32.1253 58.6355 32.7685 57.8518 33.5938 57.3004C34.419 56.749 35.3892 56.4547 36.3817 56.4547C37.7126 56.4547 38.989 56.9834 39.9301 57.9245C40.8712 58.8656 41.3999 60.142 41.3999 61.4729ZM36.3817 38.891C34.893 38.891 33.4376 38.4496 32.1998 37.6225C30.9619 36.7954 29.9971 35.6198 29.4274 34.2443C28.8577 32.8689 28.7086 31.3554 28.9991 29.8953C29.2895 28.4351 30.0064 27.0939 31.0591 26.0412C32.1118 24.9885 33.4531 24.2716 34.9132 23.9811C36.3734 23.6907 37.8868 23.8398 39.2623 24.4095C40.6377 24.9792 41.8133 25.944 42.6404 27.1818C43.4675 28.4197 43.909 29.875 43.909 31.3638C43.909 33.3601 43.1159 35.2747 41.7043 36.6864C40.2927 38.098 38.3781 38.891 36.3817 38.891ZM58.9635 51.4365C58.9635 51.9327 58.8164 52.4179 58.5407 52.8305C58.265 53.2431 57.8731 53.5647 57.4146 53.7546C56.9562 53.9445 56.4517 53.9942 55.9649 53.8974C55.4782 53.8006 55.0311 53.5616 54.6802 53.2107C54.3293 52.8598 54.0904 52.4127 53.9936 51.926C53.8967 51.4393 53.9464 50.9348 54.1363 50.4763C54.3262 50.0178 54.6478 49.626 55.0605 49.3503C55.4731 49.0746 55.9582 48.9274 56.4544 48.9274C57.1199 48.9274 57.7581 49.1918 58.2286 49.6623C58.6992 50.1328 58.9635 50.771 58.9635 51.4365ZM61.4726 12.5456C60.4801 12.5456 59.5099 12.2513 58.6847 11.6999C57.8594 11.1485 57.2162 10.3647 56.8364 9.44778C56.4566 8.53083 56.3572 7.52184 56.5509 6.54841C56.7445 5.57497 57.2224 4.68082 57.9242 3.97901C58.626 3.27721 59.5202 2.79927 60.4936 2.60565C61.4671 2.41202 62.476 2.51139 63.393 2.89121C64.31 3.27102 65.0937 3.91422 65.6451 4.73945C66.1965 5.56469 66.4908 6.5349 66.4908 7.5274C66.4908 8.85831 65.9621 10.1347 65.021 11.0758C64.0799 12.0169 62.8035 12.5456 61.4726 12.5456Z" fill="#212121"/>
<path d="M47.7734 8.78223L53.0551 25.7186" stroke="#212121" stroke-width="1.25455" stroke-miterlimit="10"/>
<path d="M41.4004 15.6064L58.8386 18.8934" stroke="#212121" stroke-width="1.25455" stroke-miterlimit="10"/>
<path d="M28.9297 42.8682L43.8964 52.4027" stroke="#212121" stroke-width="1.25455" stroke-miterlimit="10"/>
<path d="M28.4648 52.2022L43.9083 43.458" stroke="#212121" stroke-width="1.25455" stroke-miterlimit="10"/>
</g>
<defs>
<clipPath id="clip0">
<rect width="69" height="69" fill="white"/>
</clipPath>
</defs>
</svg>
