<svg width="79" height="79" viewBox="0 0 79 79" fill="none" xmlns="http://www.w3.org/2000/svg">
<g clip-path="url(#clip0)">
<path d="M66.3552 20.0742C65.9604 20.0742 65.5656 19.9235 65.2642 19.6222C65.263 19.6216 65.2588 19.6174 65.2552 19.6137C64.6531 19.0195 64.6416 18.0497 65.2323 17.4409C65.826 16.8298 66.803 16.8147 67.4148 17.4084C67.4214 17.415 67.4413 17.4343 67.4479 17.4415C68.0488 18.0442 68.0488 19.0201 67.4467 19.6222C67.1447 19.9241 66.75 20.0742 66.3552 20.0742Z" fill="#212121"/>
<path d="M0.332634 40.2359C1.46394 31.6399 5.44914 23.5441 11.5535 17.4398C19.0188 9.97445 28.9433 5.86328 39.4999 5.86328C47.75 5.86328 55.6487 8.37482 62.3425 13.1261C63.0374 13.6197 63.2008 14.5829 62.7078 15.2778C62.2147 15.9727 61.2516 16.1361 60.556 15.6431C60.0582 15.2899 59.5531 14.9511 59.0414 14.6251L55.2033 21.2731C56.8571 22.355 58.4122 23.6141 59.8418 25.0437C61.2582 26.4601 62.5173 28.02 63.6034 29.6871L70.2514 25.8495C69.5583 24.7562 68.8067 23.6984 67.9966 22.6816C67.4662 22.015 67.5759 21.044 68.2426 20.513C68.9098 19.982 69.8801 20.0923 70.4111 20.7584C74.8719 26.3595 77.727 33.0943 78.6672 40.2353C79.7949 48.7994 78.035 57.6389 73.7141 65.1229C72.7961 66.7207 71.311 67.8647 69.5324 68.3451C68.9339 68.5072 68.3263 68.5868 67.7224 68.5868C66.532 68.5868 65.3567 68.2758 64.2971 67.667C62.6993 66.7485 61.5553 65.264 61.075 63.4853C60.5946 61.7061 60.8351 59.8473 61.7549 58.2471C64.6093 53.3023 65.7244 47.6928 64.9782 42.0248C64.2363 36.3894 61.7054 31.2722 57.6594 27.2262C52.8086 22.3755 46.3595 19.7048 39.4999 19.7048C32.6398 19.7048 26.19 22.3755 21.3399 27.2262C17.2938 31.2716 14.7636 36.3894 14.0211 42.0248C13.6642 44.7365 13.7342 47.4348 14.2163 50.0543L30.1595 44.0234C30.4501 42.0188 31.3734 40.163 32.823 38.7134C36.5032 35.0332 42.4912 35.0332 46.1715 38.7134C49.8517 42.3937 49.8517 48.3823 46.1715 52.0625C44.3314 53.9026 41.9144 54.8224 39.4975 54.8224C37.08 54.8224 34.6631 53.9026 32.823 52.0619C32.5626 51.8022 32.3185 51.5267 32.0907 51.2392L15.2723 53.987C15.7943 55.4504 16.453 56.8753 17.2462 58.2495C19.1406 61.5476 17.9996 65.7721 14.7021 67.6664C13.1049 68.585 11.2455 68.8254 9.46689 68.3451C7.68826 67.8647 6.20315 66.7201 5.28701 65.1259C0.96489 57.6395 -0.795059 48.7994 0.332634 40.2359ZM64.4291 59.7876C63.9222 60.6706 63.789 61.6977 64.0542 62.6807C64.32 63.6631 64.9523 64.484 65.8347 64.9909C66.7177 65.4984 67.7447 65.6316 68.7277 65.3664C69.7102 65.1006 70.5311 64.4684 71.0398 63.583C74.0184 58.4237 75.6578 52.7575 75.8935 46.9292H68.2377C67.9912 51.4345 66.6923 55.8681 64.4291 59.7876ZM68.0376 41.6222C68.1353 42.3605 68.2016 43.1013 68.2407 43.8426H75.8875C75.8405 42.777 75.7483 41.709 75.6072 40.6385C75.0467 36.3827 73.7484 32.2848 71.7914 28.5244L65.1482 32.3596C66.6236 35.2556 67.6127 38.3934 68.0376 41.6222ZM43.9896 49.8801C46.4662 47.4035 46.4662 43.3731 43.9896 40.8965C41.5124 38.4193 37.4826 38.4199 35.0054 40.8965C34.4859 41.4161 34.0676 42.0134 33.7596 42.6625L38.1613 40.9972C39.2516 40.5849 40.4468 40.662 41.5269 41.216C42.695 41.8145 43.596 42.9301 43.936 44.1994C44.2759 45.4682 44.0535 46.8839 43.3411 47.9869C42.6823 49.0061 41.6866 49.6715 40.536 49.8596L35.8932 50.6178C38.3668 52.3241 41.7897 52.0794 43.9896 49.8801ZM32.5427 48.0382C32.5469 48.0376 32.5512 48.037 32.5554 48.0358L40.0382 46.8134C40.3956 46.755 40.6216 46.5085 40.7488 46.3126C40.9923 45.9353 41.0712 45.4314 40.9549 44.9974C40.8386 44.5635 40.5185 44.1669 40.1189 43.962C39.9809 43.8914 39.7935 43.8233 39.5837 43.8233C39.4782 43.8233 39.3667 43.8408 39.2534 43.8836L32.1817 46.5585C32.1672 46.5645 32.1521 46.5699 32.1371 46.5754L25.0225 49.2665L32.5427 48.0382ZM37.957 16.6598V8.98418C32.5361 9.20839 27.328 10.6133 22.6273 13.0749L26.4667 19.7253C30.0077 17.9225 33.9043 16.8726 37.957 16.6598ZM56.3713 13.0767C51.646 10.6007 46.4409 9.20598 41.0429 8.98237V16.6598C45.0956 16.8726 48.9922 17.9225 52.5332 19.7253L56.3713 13.0767ZM23.7966 21.2731L19.9561 14.6214C17.732 16.0402 15.646 17.7116 13.736 19.6216C11.8265 21.531 10.157 23.6159 8.7394 25.8441L15.3959 29.6877C16.482 28.02 17.7417 26.4601 19.1581 25.0437C20.5877 23.6141 22.1427 22.355 23.7966 21.2731ZM13.8517 32.3596L7.19523 28.5166C5.24663 32.2559 3.95861 36.3363 3.39205 40.6385C3.25162 41.7084 3.1594 42.777 3.11179 43.8426H10.7585C10.7977 43.1013 10.8646 42.3605 10.9616 41.6222C11.3866 38.3934 12.3756 35.2556 13.8517 32.3596ZM7.96189 63.5854C8.46878 64.4684 9.28969 65.1006 10.2721 65.3658C11.2546 65.631 12.2822 65.4984 13.1646 64.9909C14.9866 63.944 15.6177 61.6097 14.5719 59.7906C13.5998 58.1066 12.806 56.328 12.1966 54.4897L10.3161 54.7971C10.2317 54.811 10.1486 54.8176 10.066 54.8176C9.37889 54.8176 8.7599 54.3571 8.57667 53.6736C8.37114 52.9076 8.77979 52.1114 9.52113 51.8305L11.3076 51.1554C11.0231 49.7626 10.8399 48.3498 10.7615 46.9292H3.10636C3.34203 52.7581 4.98143 58.4243 7.96189 63.5854Z" fill="#212121"/>
<path d="M30.2398 60.5605H48.7578C49.6101 60.5605 50.3008 61.2513 50.3008 62.1035V67.0416C50.3008 67.8939 49.6101 68.5846 48.7578 68.5846H30.2398C29.3875 68.5846 28.6962 67.8939 28.6962 67.0416V62.1035C28.6962 61.2513 29.3875 60.5605 30.2398 60.5605ZM31.7827 65.4986H47.2142V63.6465H31.7827V65.4986Z" fill="#212121"/>
<path d="M62.3086 43.8418C63.1608 43.8418 63.8516 44.5325 63.8516 45.3848C63.8516 46.237 63.1608 46.9277 62.3086 46.9277H62.2718C61.4196 46.9277 60.7289 46.237 60.7289 45.3848C60.7289 44.5325 61.4196 43.8418 62.2718 43.8418H62.3086Z" fill="#212121"/>
<path d="M49.5474 24.8933L49.5655 24.8614C49.9922 24.1236 50.9361 23.8705 51.6738 24.2972C52.4115 24.7233 52.6647 25.6672 52.2379 26.4055L52.2199 26.4369C51.9342 26.9317 51.4152 27.2084 50.8824 27.2084C50.6202 27.2084 50.355 27.1415 50.1121 27.0016C49.3738 26.5749 49.1213 25.6316 49.5474 24.8933Z" fill="#212121"/>
<path d="M28.1141 27.2126C27.5807 27.2126 27.0624 26.9359 26.7767 26.4411L26.7586 26.4091C26.3319 25.6714 26.585 24.7276 27.3228 24.3008C28.0605 23.8747 29.0044 24.1272 29.4311 24.8656L29.4492 24.8975C29.8753 25.6353 29.6228 26.5791 28.8844 27.0052C28.6415 27.1457 28.3763 27.2126 28.1141 27.2126Z" fill="#212121"/>
<path d="M16.6937 46.9342C15.8415 46.9342 15.1507 46.2435 15.1507 45.3912C15.1507 44.539 15.8415 43.8477 16.6937 43.8477H16.7299C17.5821 43.8477 18.2734 44.539 18.2734 45.3912C18.2734 46.2435 17.5821 46.9342 16.7299 46.9342H16.6937Z" fill="#212121"/>
<path d="M44.8662 70.1289H44.9023C45.7546 70.1289 46.4453 70.8196 46.4453 71.6719C46.4453 72.5241 45.7546 73.2148 44.9023 73.2148H44.8662C44.0139 73.2148 43.3226 72.5241 43.3226 71.6719C43.3226 70.8196 44.0139 70.1289 44.8662 70.1289Z" fill="#212121"/>
<path d="M34.0969 70.1289H40.4297C41.2813 70.1289 41.9727 70.8202 41.9727 71.6725C41.9727 72.5247 41.2813 73.2154 40.4297 73.2154H34.0969C33.2452 73.2154 32.5539 72.5247 32.5539 71.6725C32.5539 70.8202 33.2446 70.1289 34.0969 70.1289Z" fill="#212121"/>
</g>
<defs>
<clipPath id="clip0">
<rect width="79" height="79" transform="matrix(-1 0 0 1 79 0)" fill="white"/>
</clipPath>
</defs>
</svg>
