<svg width="74" height="66" viewBox="0 0 74 66" fill="none" xmlns="http://www.w3.org/2000/svg">
<g clip-path="url(#clip0)">
<path d="M69.7481 48.5789L62.0646 46.2739V44.4612C63.1671 43.6908 64.068 42.6664 64.6912 41.4745C65.3144 40.2826 65.6416 38.9582 65.6452 37.6132V34.0326C65.6452 31.8167 64.765 29.6916 63.1982 28.1248C61.6313 26.558 59.5062 25.6777 57.2904 25.6777C55.0745 25.6777 52.9495 26.558 51.3826 28.1248C49.8158 29.6916 48.9356 31.8167 48.9356 34.0326V37.6132C48.9392 38.9582 49.2664 40.2826 49.8896 41.4745C50.5128 42.6664 51.4137 43.6908 52.5162 44.4612V46.2739L47.1452 47.8852L41.7743 46.2739V44.4612C42.8767 43.6908 43.7776 42.6664 44.4009 41.4745C45.0241 40.2826 45.3513 38.9582 45.3549 37.6132V34.0326C45.3549 31.8167 44.4747 29.6916 42.9078 28.1248C41.341 26.558 39.2159 25.6777 37.0001 25.6777C34.7842 25.6777 32.6591 26.558 31.0923 28.1248C29.5255 29.6916 28.6452 31.8167 28.6452 34.0326V37.6132C28.6488 38.9582 28.9761 40.2826 29.5993 41.4745C30.2225 42.6664 31.1234 43.6908 32.2259 44.4612V46.2739L26.8549 47.8852L21.4839 46.2739V44.4612C22.5864 43.6908 23.4873 42.6664 24.1105 41.4745C24.7337 40.2826 25.061 38.9582 25.0646 37.6132V34.0326C25.0646 31.8167 24.1843 29.6916 22.6175 28.1248C21.0507 26.558 18.9256 25.6777 16.7097 25.6777C14.4939 25.6777 12.3688 26.558 10.802 28.1248C9.23514 29.6916 8.3549 31.8167 8.3549 34.0326V37.6132C8.35851 38.9582 8.68574 40.2826 9.30895 41.4745C9.93216 42.6664 10.8331 43.6908 11.9355 44.4612V46.2739L4.25208 48.5789C3.01989 48.9425 1.93908 49.6964 1.17226 50.7272C0.405444 51.7579 -0.00591737 53.0098 6.43234e-05 54.2945V65.0648H74.0001V54.2945C74.0061 53.0098 73.5947 51.7579 72.8279 50.7272C72.0611 49.6964 70.9802 48.9425 69.7481 48.5789ZM57.2904 28.0648C58.6653 28.0671 59.9974 28.5432 61.0624 29.4128C62.1273 30.2823 62.8601 31.4924 63.1373 32.839H59.9595C58.3893 32.8371 56.841 32.4715 55.4359 31.7708L54.6661 31.3874L54.0589 31.9946C53.5179 32.5336 52.786 32.8371 52.0224 32.839H51.4435C51.7207 31.4924 52.4534 30.2823 53.5184 29.4128C54.5834 28.5432 55.9155 28.0671 57.2904 28.0648ZM51.3226 37.6132V35.2261H52.0224C53.1244 35.2292 54.1992 34.8834 55.0928 34.2385C56.633 34.8887 58.2876 35.2245 59.9595 35.2261H63.2581V37.6132C63.2552 38.6596 62.9782 39.6869 62.4547 40.5929C61.9311 41.4988 61.1794 42.2518 60.2743 42.7768L59.6775 43.1214V46.5231L57.2904 48.1135L54.9033 46.5231V43.1214L54.3065 42.7768C53.4014 42.2518 52.6496 41.4988 52.1261 40.5929C51.6026 39.6869 51.3256 38.6596 51.3226 37.6132ZM37.0001 28.0648C38.375 28.0671 39.7071 28.5432 40.772 29.4128C41.837 30.2823 42.5698 31.4924 42.847 32.839H39.6691C38.099 32.8371 36.5507 32.4715 35.1456 31.7708L34.3758 31.3874L33.7685 31.9946C33.2276 32.5336 32.4957 32.8371 31.732 32.839H31.1532C31.4303 31.4924 32.1631 30.2823 33.2281 29.4128C34.2931 28.5432 35.6252 28.0671 37.0001 28.0648ZM31.0323 37.6132V35.2261H31.732C32.8341 35.2292 33.9088 34.8834 34.8024 34.2385C36.3427 34.8887 37.9973 35.2245 39.6691 35.2261H42.9678V37.6132C42.9649 38.6596 42.6879 39.6869 42.1643 40.5929C41.6408 41.4988 40.8891 42.2518 39.9839 42.7768L39.3872 43.1214V46.5231L37.0001 48.1135L34.613 46.5231V43.1214L34.0162 42.7768C33.1111 42.2518 32.3593 41.4988 31.8358 40.5929C31.3123 39.6869 31.0352 38.6596 31.0323 37.6132ZM33.2255 48.4656L37.0001 50.9839L40.7747 48.4656L48.7699 50.8646C49.5099 51.0826 50.1589 51.5351 50.6194 52.154C51.0798 52.7729 51.3266 53.5247 51.3226 54.296V62.6777H22.6775V54.2945C22.6735 53.5232 22.9204 52.7714 23.3808 52.1525C23.8412 51.5336 24.4902 51.0811 25.2302 50.8631L33.2255 48.4656ZM16.7097 28.0648C18.0846 28.0671 19.4167 28.5432 20.4817 29.4128C21.5467 30.2823 22.2795 31.4924 22.5566 32.839H21.9778C21.2141 32.8371 20.4822 32.5336 19.9413 31.9946L19.3311 31.3874L18.5612 31.7708C17.1573 32.4717 15.6099 32.8373 14.0407 32.839H10.8628C11.14 31.4924 11.8728 30.2823 12.9378 29.4128C14.0027 28.5432 15.3348 28.0671 16.7097 28.0648ZM10.742 37.6132V35.2261H14.0407C15.7125 35.2245 17.3672 34.8887 18.9074 34.2385C19.801 34.8834 20.8757 35.2292 21.9778 35.2261H22.6775V37.6132C22.6746 38.6596 22.3975 39.6869 21.874 40.5929C21.3505 41.4988 20.5987 42.2518 19.6936 42.7768L19.0968 43.1214V46.5231L16.7097 48.1135L14.3226 46.5231V43.1214L13.7259 42.7768C12.8208 42.2518 12.069 41.4988 11.5455 40.5929C11.0219 39.6869 10.7449 38.6596 10.742 37.6132ZM2.38716 54.2945C2.38321 53.5232 2.63004 52.7714 3.09045 52.1525C3.55086 51.5336 4.19992 51.0811 4.93986 50.8631L12.9351 48.4641L16.7097 50.9839L20.4843 48.4656L23.0952 49.2503C22.2357 49.7814 21.5265 50.5239 21.0355 51.4069C20.5445 52.29 20.2879 53.2842 20.2904 54.2945V62.6777H2.38716V54.2945ZM71.613 62.6777H53.7097V54.2945C53.7122 53.2842 53.4557 52.29 52.9646 51.4069C52.4736 50.5239 51.7645 49.7814 50.9049 49.2503L53.5158 48.4671L57.2904 50.9839L61.065 48.4656L69.0603 50.8646C69.8002 51.0826 70.4493 51.5351 70.9097 52.154C71.3701 52.7729 71.6169 53.5247 71.613 54.296V62.6777Z" fill="#212121"/>
<path d="M40.5787 0.613281L32.7639 0.641628C32.6714 1.36671 32.5401 2.07389 32.373 2.85118C32.3641 2.90042 32.3566 2.95114 32.3477 3.00038H40.5787C42.478 3.00038 44.2995 3.75487 45.6425 5.09787C46.9855 6.44087 47.74 8.26238 47.74 10.1617C47.74 12.061 46.9855 13.8825 45.6425 15.2255C44.2995 16.5685 42.478 17.323 40.5787 17.323C40.0149 17.3224 39.4598 17.4612 38.9627 17.727C38.4655 17.9927 38.0418 18.3772 37.7291 18.8462L36.998 19.9443L36.267 18.8462C35.9713 18.4012 35.5754 18.0316 35.1111 17.767C34.6468 17.5025 34.1271 17.3504 33.5934 17.323C33.641 18.1208 33.5989 18.9215 33.4681 19.7101C33.63 19.7183 33.7878 19.7641 33.9289 19.8439C34.07 19.9236 34.1906 20.0351 34.2812 20.1696L36.998 24.25L39.7148 20.1726C39.81 20.0307 39.9385 19.9143 40.0891 19.8337C40.2397 19.7531 40.4078 19.7106 40.5787 19.7101C43.1111 19.7101 45.5397 18.7041 47.3304 16.9134C49.1211 15.1227 50.1271 12.6941 50.1271 10.1617C50.1271 7.62928 49.1211 5.20061 47.3304 3.40994C45.5397 1.61927 43.1111 0.613281 40.5787 0.613281V0.613281Z" fill="#212121"/>
<path d="M32.3477 3.00076C32.3566 2.95152 32.3641 2.9008 32.373 2.85156L32.3477 3.00076Z" fill="#212121"/>
<path d="M33.418 19.7103H33.4687C33.5995 18.9218 33.6416 18.1211 33.594 17.3232C33.5358 17.3232 33.4762 17.3232 33.418 17.3232" fill="#212121"/>
<path d="M31.0312 8.96777H33.4183V11.3549H31.0312V8.96777Z" fill="#212121"/>
<path d="M35.8047 8.96777H38.1918V11.3549H35.8047V8.96777Z" fill="#212121"/>
<path d="M40.582 8.96777H42.9691V11.3549H40.582V8.96777Z" fill="#212121"/>
<path d="M34.3678 20.1726C34.2727 20.0309 34.1444 19.9147 33.9941 19.8341C33.8438 19.7534 33.676 19.7109 33.5054 19.7101C30.973 19.7101 28.5444 18.7041 26.7537 16.9134C24.963 15.1227 23.957 12.6941 23.957 10.1617C23.957 7.62928 24.963 5.20061 26.7537 3.40994C28.5444 1.61927 30.973 0.613281 33.5054 0.613281L41.3276 0.641628C41.4261 1.36671 41.5425 2.07389 41.7096 2.85118C41.7185 2.90042 41.726 2.95114 41.7349 3.00038H33.5054C31.6061 3.00038 29.7846 3.75487 28.4416 5.09787C27.0986 6.44087 26.3441 8.26238 26.3441 10.1617C26.3441 12.061 27.0986 13.8825 28.4416 15.2255C29.7846 16.5685 31.6061 17.323 33.5054 17.323" fill="#212121"/>
<path d="M59.1594 11.7779L55.0357 11.7928C54.9835 12.1762 54.9179 12.5492 54.8298 12.9595C54.8298 12.9848 54.8209 13.0117 54.8164 13.0385H59.1594C60.1485 13.0582 61.0904 13.4649 61.783 14.1713C62.4755 14.8778 62.8634 15.8276 62.8634 16.8169C62.8634 17.8061 62.4755 18.756 61.783 19.4624C61.0904 20.1688 60.1485 20.5755 59.1594 20.5952C58.8619 20.5949 58.5689 20.6682 58.3066 20.8085C58.0442 20.9488 57.8206 21.1518 57.6556 21.3994L57.2691 21.9782L56.8842 21.3994C56.7279 21.1648 56.5188 20.9702 56.2737 20.8311C56.0286 20.6919 55.7543 20.6122 55.4729 20.5982C55.4985 21.0185 55.4765 21.4405 55.4072 21.8559C55.4927 21.8599 55.576 21.8841 55.6504 21.9263C55.7248 21.9686 55.7881 22.0277 55.8354 22.0991L57.2691 24.2504L58.7029 22.0976C58.7529 22.0223 58.8207 21.9605 58.9004 21.9178C58.9801 21.8751 59.0691 21.8528 59.1594 21.8529C60.4957 21.8529 61.7772 21.3221 62.722 20.3772C63.6669 19.4324 64.1977 18.1509 64.1977 16.8146C64.1977 15.4784 63.6669 14.1969 62.722 13.252C61.7772 12.3072 60.4957 11.7764 59.1594 11.7764V11.7779Z" fill="#212121"/>
<path d="M54.8164 13.0381C54.8164 13.0112 54.8239 12.9843 54.8298 12.959L54.8164 13.0381Z" fill="#212121"/>
<path d="M55.3828 21.8544H55.4097C55.4789 21.439 55.501 21.017 55.4753 20.5967H55.3828" fill="#212121"/>
<path d="M54.1211 16.1865H55.3803V17.4457H54.1211V16.1865Z" fill="#212121"/>
<path d="M56.6406 16.1865H57.9013V17.4457H56.6406V16.1865Z" fill="#212121"/>
<path d="M59.1641 16.1865H60.4262V17.4457H59.167L59.1641 16.1865Z" fill="#212121"/>
<path d="M55.88 22.0976C55.8305 22.0222 55.7629 21.9604 55.6835 21.9177C55.604 21.8749 55.5152 21.8527 55.425 21.8529C54.0888 21.8529 52.8073 21.3221 51.8624 20.3772C50.9175 19.4324 50.3867 18.1509 50.3867 16.8146C50.3867 15.4784 50.9175 14.1969 51.8624 13.252C52.8073 12.3072 54.0888 11.7764 55.425 11.7764L59.5532 11.7928C59.6054 12.1747 59.6666 12.5477 59.7546 12.958L59.768 13.0371H55.425C54.9225 13.0271 54.4231 13.1174 53.9559 13.3028C53.4888 13.4882 53.0633 13.7649 52.7044 14.1168C52.3455 14.4686 52.0604 14.8885 51.8657 15.3519C51.6711 15.8152 51.5708 16.3128 51.5708 16.8154C51.5708 17.318 51.6711 17.8155 51.8657 18.2789C52.0604 18.7423 52.3455 19.1622 52.7044 19.514C53.0633 19.8658 53.4888 20.1426 53.9559 20.328C54.4231 20.5133 54.9225 20.6037 55.425 20.5937" fill="#212121"/>
<path d="M18.5774 11.7779L14.4552 11.7928C14.4015 12.1762 14.3358 12.5492 14.2478 12.9595L14.2344 13.0385H18.5774C19.0799 13.0286 19.5793 13.1189 20.0465 13.3043C20.5136 13.4897 20.9391 13.7664 21.298 14.1182C21.6569 14.4701 21.942 14.89 22.1367 15.3534C22.3313 15.8167 22.4316 16.3143 22.4316 16.8169C22.4316 17.3195 22.3313 17.817 22.1367 18.2804C21.942 18.7438 21.6569 19.1637 21.298 19.5155C20.9391 19.8673 20.5136 20.144 20.0465 20.3294C19.5793 20.5148 19.0799 20.6052 18.5774 20.5952C18.2801 20.5952 17.9874 20.6686 17.7254 20.8089C17.4633 20.9491 17.2399 21.152 17.075 21.3994L16.6886 21.9782L16.3022 21.3994C16.1455 21.1662 15.9363 20.9729 15.6915 20.8351C15.4467 20.6973 15.173 20.6187 14.8923 20.6056C14.9175 21.0261 14.8949 21.448 14.8252 21.8633C14.9108 21.8674 14.9944 21.8915 15.069 21.9338C15.1436 21.976 15.2073 22.0352 15.2549 22.1065L16.6886 24.2579L18.1224 22.0976C18.1722 22.0225 18.2398 21.9609 18.3192 21.9182C18.3986 21.8755 18.4873 21.8531 18.5774 21.8529C19.9136 21.8529 21.1951 21.3221 22.14 20.3772C23.0848 19.4324 23.6157 18.1509 23.6157 16.8146C23.6157 15.4784 23.0848 14.1969 22.14 13.252C21.1951 12.3072 19.9136 11.7764 18.5774 11.7764V11.7779Z" fill="#212121"/>
<path d="M14.8008 21.8544H14.8261C14.8959 21.439 14.9184 21.0171 14.8933 20.5967H14.8008" fill="#212121"/>
<path d="M13.5391 16.1865H14.7997V17.4457H13.5391V16.1865Z" fill="#212121"/>
<path d="M16.0586 16.1865H17.3178V17.4457H16.0586V16.1865Z" fill="#212121"/>
<path d="M18.5781 16.1865H19.8448V17.4457H18.5841L18.5781 16.1865Z" fill="#212121"/>
<path d="M15.3019 22.0976C15.252 22.0225 15.1844 21.9609 15.1051 21.9182C15.0257 21.8755 14.937 21.8531 14.8469 21.8529C13.5106 21.8529 12.2291 21.3221 11.2843 20.3772C10.3394 19.4324 9.80859 18.1509 9.80859 16.8146C9.80859 15.4784 10.3394 14.1969 11.2843 13.252C12.2291 12.3072 13.5106 11.7764 14.8469 11.7764L18.975 11.7928C19.0273 12.1747 19.0884 12.5477 19.1765 12.958L19.1899 13.0371H14.8469C14.3444 13.0271 13.8449 13.1174 13.3778 13.3028C12.9106 13.4882 12.4851 13.7649 12.1262 14.1168C11.7673 14.4686 11.4822 14.8885 11.2876 15.3519C11.093 15.8152 10.9927 16.3128 10.9927 16.8154C10.9927 17.318 11.093 17.8155 11.2876 18.2789C11.4822 18.7423 11.7673 19.1622 12.1262 19.514C12.4851 19.8658 12.9106 20.1426 13.3778 20.328C13.8449 20.5133 14.3444 20.6037 14.8469 20.5937" fill="#212121"/>
</g>
<defs>
<clipPath id="clip0">
<rect y="0.613281" width="74" height="64.4516" fill="white"/>
</clipPath>
</defs>
</svg>
